<svg width="266" height="34" viewBox="0 0 266 34" fill="none" xmlns="http://www.w3.org/2000/svg">
<path d="M248.205 22H242.592V21.1855L244.883 18.8594C245.309 18.4297 245.666 18.0469 245.955 17.7109C246.248 17.375 246.471 17.0449 246.623 16.7207C246.775 16.3926 246.852 16.0332 246.852 15.6426C246.852 15.1582 246.707 14.7891 246.418 14.5352C246.133 14.2773 245.756 14.1484 245.287 14.1484C244.877 14.1484 244.514 14.2188 244.197 14.3594C243.881 14.5 243.557 14.6992 243.225 14.957L242.703 14.3008C242.93 14.1094 243.176 13.9395 243.441 13.791C243.711 13.6426 243.998 13.5254 244.303 13.4395C244.611 13.3535 244.939 13.3105 245.287 13.3105C245.814 13.3105 246.27 13.4023 246.652 13.5859C247.035 13.7695 247.33 14.0312 247.537 14.3711C247.748 14.7109 247.854 15.1152 247.854 15.584C247.854 16.0371 247.764 16.459 247.584 16.8496C247.404 17.2363 247.152 17.6211 246.828 18.0039C246.504 18.3828 246.125 18.7852 245.691 19.2109L243.828 21.0684V21.1094H248.205V22ZM249.746 21.3906C249.746 21.1172 249.812 20.9238 249.945 20.8105C250.078 20.6934 250.24 20.6348 250.432 20.6348C250.631 20.6348 250.799 20.6934 250.936 20.8105C251.072 20.9238 251.141 21.1172 251.141 21.3906C251.141 21.6602 251.072 21.8574 250.936 21.9824C250.799 22.1035 250.631 22.1641 250.432 22.1641C250.24 22.1641 250.078 22.1035 249.945 21.9824C249.812 21.8574 249.746 21.6602 249.746 21.3906ZM249.746 16.1934C249.746 15.9121 249.812 15.7148 249.945 15.6016C250.078 15.4844 250.24 15.4258 250.432 15.4258C250.631 15.4258 250.799 15.4844 250.936 15.6016C251.072 15.7148 251.141 15.9121 251.141 16.1934C251.141 16.459 251.072 16.6523 250.936 16.7734C250.799 16.8945 250.631 16.9551 250.432 16.9551C250.24 16.9551 250.078 16.8945 249.945 16.7734C249.812 16.6523 249.746 16.459 249.746 16.1934ZM258.271 17.7051C258.271 18.4004 258.219 19.0215 258.113 19.5684C258.008 20.1152 257.842 20.5781 257.615 20.957C257.389 21.3359 257.096 21.625 256.736 21.8242C256.377 22.0195 255.945 22.1172 255.441 22.1172C254.805 22.1172 254.277 21.9434 253.859 21.5957C253.445 21.248 253.135 20.7461 252.928 20.0898C252.725 19.4297 252.623 18.6348 252.623 17.7051C252.623 16.791 252.715 16.0059 252.898 15.3496C253.086 14.6895 253.387 14.1836 253.801 13.832C254.215 13.4766 254.762 13.2988 255.441 13.2988C256.086 13.2988 256.617 13.4746 257.035 13.8262C257.453 14.1738 257.764 14.6777 257.967 15.3379C258.17 15.9941 258.271 16.7832 258.271 17.7051ZM253.602 17.7051C253.602 18.502 253.662 19.166 253.783 19.6973C253.904 20.2285 254.1 20.627 254.369 20.8926C254.643 21.1543 255 21.2852 255.441 21.2852C255.883 21.2852 256.238 21.1543 256.508 20.8926C256.781 20.6309 256.979 20.2344 257.1 19.7031C257.225 19.1719 257.287 18.5059 257.287 17.7051C257.287 16.9199 257.227 16.2637 257.105 15.7363C256.984 15.2051 256.789 14.8066 256.52 14.541C256.25 14.2715 255.891 14.1367 255.441 14.1367C254.992 14.1367 254.633 14.2715 254.363 14.541C254.094 14.8066 253.898 15.2051 253.777 15.7363C253.66 16.2637 253.602 16.9199 253.602 17.7051ZM259.566 18.3379C259.566 17.8223 259.602 17.3184 259.672 16.8262C259.746 16.334 259.869 15.877 260.041 15.4551C260.213 15.0293 260.447 14.6562 260.744 14.3359C261.041 14.0156 261.41 13.7656 261.852 13.5859C262.297 13.4023 262.83 13.3105 263.451 13.3105C263.627 13.3105 263.816 13.3203 264.02 13.3398C264.223 13.3555 264.391 13.3828 264.523 13.4219V14.2598C264.379 14.209 264.213 14.1719 264.025 14.1484C263.842 14.125 263.656 14.1133 263.469 14.1133C262.742 14.1133 262.17 14.2715 261.752 14.5879C261.338 14.9043 261.039 15.334 260.855 15.877C260.672 16.416 260.566 17.0234 260.539 17.6992H260.604C260.725 17.5039 260.879 17.3281 261.066 17.1719C261.254 17.0117 261.48 16.8848 261.746 16.791C262.016 16.6973 262.328 16.6504 262.684 16.6504C263.184 16.6504 263.619 16.752 263.99 16.9551C264.365 17.1582 264.654 17.4531 264.857 17.8398C265.064 18.2266 265.168 18.6953 265.168 19.2461C265.168 19.8359 265.059 20.3457 264.84 20.7754C264.621 21.2051 264.309 21.5371 263.902 21.7715C263.5 22.002 263.02 22.1172 262.461 22.1172C262.043 22.1172 261.658 22.0371 261.307 21.877C260.955 21.7168 260.648 21.4785 260.387 21.1621C260.129 20.8457 259.928 20.4531 259.783 19.9844C259.639 19.5117 259.566 18.9629 259.566 18.3379ZM262.449 21.2969C262.98 21.2969 263.406 21.127 263.727 20.7871C264.047 20.4473 264.207 19.9336 264.207 19.2461C264.207 18.6836 264.064 18.2383 263.779 17.9102C263.494 17.582 263.064 17.418 262.49 17.418C262.1 17.418 261.76 17.5 261.471 17.6641C261.182 17.8242 260.957 18.0273 260.797 18.2734C260.637 18.5195 260.557 18.7695 260.557 19.0234C260.557 19.2812 260.594 19.543 260.668 19.8086C260.746 20.0742 260.863 20.3203 261.02 20.5469C261.176 20.7734 261.373 20.9551 261.611 21.0918C261.85 21.2285 262.129 21.2969 262.449 21.2969Z" fill="#152536"/>
<g clip-path="url(#clip0_3335_8179)">
<path fill-rule="evenodd" clip-rule="evenodd" d="M15 30.5C22.4558 30.5 28.5 24.456 28.5 17C28.5 9.54416 22.456 3.49997 15 3.49997C7.54416 3.49997 1.49997 9.54416 1.49997 17C1.49997 24.4558 7.54416 30.5 15 30.5ZM15 32C23.2842 32 30 25.2842 30 17C30 8.71567 23.2842 2 15 2C6.71567 2 0 8.71567 0 17C0 25.2842 6.71567 32 15 32Z" fill="#68717A"/>
<path fill-rule="evenodd" clip-rule="evenodd" d="M18.898 17.0009L12.0001 12.4024V21.5996L18.898 17.0009ZM20.2916 16.1273C20.9151 16.5429 20.9151 17.459 20.2916 17.8746L12.1325 23.3142C11.4347 23.7794 10.5 23.279 10.5 22.4404V11.5615C10.5 10.7229 11.4347 10.2227 12.1325 10.6879L20.2916 16.1273Z" fill="#68717A"/>
</g>
<rect x="54" y="3.79297" width="3" height="25.6083" rx="1.5" fill="#0082B6"/>
<rect x="61" y="9.48047" width="3" height="14.2269" rx="1.5" fill="#0082B6"/>
<rect x="68" y="13.2773" width="3" height="6.6392" rx="1.5" fill="#0082B6"/>
<rect x="75" y="5.69141" width="3" height="21.8145" rx="1.5" fill="#0082B6"/>
<rect x="82" y="9.48047" width="3" height="14.2269" rx="1.5" fill="#0082B6"/>
<rect x="89" y="12.332" width="3" height="8.53611" rx="1.5" fill="#0082B6"/>
<rect x="96" y="9.48047" width="3" height="14.2269" rx="1.5" fill="#0082B6"/>
<rect x="103" y="4.74219" width="3" height="23.7114" rx="1.5" fill="#0082B6"/>
<rect x="110" width="3" height="33.196" rx="1.5" fill="#EFF0F4"/>
<rect x="117" y="8.53516" width="3" height="16.1238" rx="1.5" fill="#EFF0F4"/>
<rect x="124" y="11.3789" width="3" height="10.433" rx="1.5" fill="#EFF0F4"/>
<rect x="131" y="13.2773" width="3" height="6.6392" rx="1.5" fill="#EFF0F4"/>
<rect x="138" y="6.63672" width="3" height="19.9176" rx="1.5" fill="#EFF0F4"/>
<rect x="145" y="2.84375" width="3" height="27.5053" rx="1.5" fill="#EFF0F4"/>
<rect x="152" y="8.53516" width="3" height="16.1238" rx="1.5" fill="#EFF0F4"/>
<rect x="159" y="11.3789" width="3" height="10.433" rx="1.5" fill="#EFF0F4"/>
<rect x="166" y="5.69141" width="3" height="21.8145" rx="1.5" fill="#EFF0F4"/>
<rect x="173" y="10.4336" width="3" height="12.3299" rx="1.5" fill="#EFF0F4"/>
<rect x="180" y="12.332" width="3" height="8.53611" rx="1.5" fill="#EFF0F4"/>
<rect x="187" y="3.79297" width="3" height="25.6083" rx="1.5" fill="#EFF0F4"/>
<rect x="194" y="12.332" width="3" height="8.53611" rx="1.5" fill="#EFF0F4"/>
<rect x="201" y="6.63672" width="3" height="19.9176" rx="1.5" fill="#EFF0F4"/>
<rect x="208" y="12.332" width="3" height="8.53611" rx="1.5" fill="#EFF0F4"/>
<rect x="215" y="6.63672" width="3" height="19.9176" rx="1.5" fill="#EFF0F4"/>
<rect x="222" y="12.332" width="3" height="8.53611" rx="1.5" fill="#EFF0F4"/>
<rect x="229" y="13.2773" width="3" height="6.6392" rx="1.5" fill="#EFF0F4"/>
<rect x="47" y="8.53516" width="3" height="15.1753" rx="1.5" fill="#0082B6"/>
<rect x="40" y="13.2773" width="3" height="6.6392" rx="1.5" fill="#0082B6"/>
<defs>
<clipPath id="clip0_3335_8179">
<rect width="30" height="30" fill="white" transform="translate(0 2)"/>
</clipPath>
</defs>
</svg>
