<svg width="167" height="156" viewBox="0 0 167 156" fill="none" xmlns="http://www.w3.org/2000/svg">
<path opacity="0.3" d="M151.596 105.909C155.67 94.5098 156.943 82.2979 155.308 70.3032C153.673 58.3086 149.178 46.8829 142.202 36.9897C135.225 27.0966 125.972 19.026 115.223 13.4585C104.474 7.89107 92.5432 4.99003 80.4376 5.00003C68.3321 5.01002 56.4064 7.93077 45.6663 13.516C34.9261 19.1012 25.6865 27.187 18.7265 37.0917C11.7664 46.9964 7.29012 58.4295 5.675 70.4268C4.05988 82.4242 5.35331 94.634 9.44621 106.027" stroke="#26946C" stroke-width="10" stroke-linecap="round"/>
<path d="M9.40414 105.909C5.78462 95.7817 4.37058 84.9977 5.2567 74.2794C6.14283 63.561 9.30866 53.1557 14.5422 43.7601C19.7758 34.3644 26.9563 26.1954 35.603 19.7998C44.2497 13.4043 54.163 8.92989 64.6791 6.67622C75.1953 4.42255 86.0716 4.44163 96.5797 6.73217C107.088 9.02271 116.985 13.5319 125.61 19.9577C134.234 26.3835 141.386 34.5777 146.586 43.9916C151.787 53.4056 154.916 63.822 155.765 74.5433" stroke="#11895E" stroke-width="10" stroke-linecap="round"/>
<g filter="url(#filter0_d_3318_5801)">
<circle cx="156" cy="74" r="11" fill="#11895E"/>
<circle cx="156" cy="74" r="9.5" stroke="white" stroke-width="3"/>
</g>
<path d="M63.3027 48.582C65.7832 48.582 68.0195 48.9727 70.0117 49.7539C72.0039 50.5156 73.5859 51.6582 74.7578 53.1816C75.9297 54.7051 76.5156 56.5898 76.5156 58.8359C76.5156 60.5742 76.1543 62.0879 75.4316 63.377C74.7285 64.666 73.7715 65.7988 72.5605 66.7754C71.3496 67.7324 69.9922 68.582 68.4883 69.3242C70.168 70.1445 71.7109 71.0918 73.1172 72.166C74.543 73.2207 75.6855 74.4609 76.5449 75.8867C77.4238 77.3125 77.8633 78.9824 77.8633 80.8965C77.8633 83.2988 77.248 85.3789 76.0176 87.1367C74.8066 88.875 73.1172 90.2227 70.9492 91.1797C68.7812 92.1172 66.252 92.5859 63.3613 92.5859C60.2559 92.5859 57.6094 92.127 55.4219 91.209C53.2344 90.291 51.5742 88.9824 50.4414 87.2832C49.3086 85.5645 48.7422 83.5137 48.7422 81.1309C48.7422 79.1582 49.1328 77.4492 49.9141 76.0039C50.6953 74.5586 51.7402 73.3086 53.0488 72.2539C54.377 71.1992 55.832 70.3105 57.4141 69.5879C56.0664 68.7871 54.8359 67.8887 53.7227 66.8926C52.6094 65.877 51.7207 64.7148 51.0566 63.4062C50.4121 62.0781 50.0898 60.5449 50.0898 58.8066C50.0898 56.5801 50.6855 54.7148 51.877 53.2109C53.0684 51.6875 54.6602 50.5352 56.6523 49.7539C58.6641 48.9727 60.8809 48.582 63.3027 48.582ZM55.3047 80.8672C55.3047 82.7422 55.9688 84.2852 57.2969 85.4961C58.625 86.707 60.6074 87.3125 63.2441 87.3125C65.8613 87.3125 67.8535 86.7168 69.2207 85.5254C70.5879 84.334 71.2715 82.7617 71.2715 80.8086C71.2715 79.5586 70.9199 78.4551 70.2168 77.498C69.5332 76.541 68.6055 75.6914 67.4336 74.9492C66.2812 74.1875 65.002 73.4844 63.5957 72.8398L62.6582 72.459C61.1348 73.1035 59.8262 73.8359 58.7324 74.6562C57.6387 75.457 56.7891 76.3652 56.1836 77.3809C55.5977 78.3965 55.3047 79.5586 55.3047 80.8672ZM63.2441 53.8848C61.3496 53.8848 59.7871 54.3535 58.5566 55.291C57.3457 56.209 56.7402 57.5371 56.7402 59.2754C56.7402 60.5059 57.0332 61.5605 57.6191 62.4395C58.2246 63.3184 59.0352 64.0801 60.0508 64.7246C61.0664 65.3496 62.1895 65.9355 63.4199 66.4824C64.6113 65.9551 65.6855 65.3789 66.6426 64.7539C67.6191 64.1094 68.3906 63.3477 68.957 62.4688C69.543 61.5703 69.8359 60.4961 69.8359 59.2461C69.8359 57.5273 69.2207 56.209 67.9902 55.291C66.7793 54.3535 65.1973 53.8848 63.2441 53.8848ZM83.2539 73.748C83.2539 71.2285 83.4297 68.748 83.7812 66.3066C84.1523 63.8652 84.7773 61.5801 85.6562 59.4512C86.5352 57.3223 87.7461 55.4473 89.2891 53.8262C90.8516 52.2051 92.8145 50.9355 95.1777 50.0176C97.541 49.0801 100.383 48.6113 103.703 48.6113C104.562 48.6113 105.529 48.6504 106.604 48.7285C107.678 48.8066 108.566 48.9336 109.27 49.1094V54.8223C108.508 54.6074 107.668 54.4414 106.75 54.3242C105.852 54.207 104.953 54.1484 104.055 54.1484C100.461 54.1484 97.6582 54.832 95.6465 56.1992C93.6348 57.5469 92.1992 59.4023 91.3398 61.7656C90.4805 64.1094 89.9824 66.7949 89.8457 69.8223H90.1973C90.7832 68.8457 91.5156 67.9766 92.3945 67.2148C93.2734 66.4531 94.3477 65.8477 95.6172 65.3984C96.8867 64.9297 98.3613 64.6953 100.041 64.6953C102.541 64.6953 104.719 65.2227 106.574 66.2773C108.43 67.3125 109.855 68.8164 110.852 70.7891C111.867 72.7617 112.375 75.1543 112.375 77.9668C112.375 80.9941 111.799 83.6016 110.646 85.7891C109.514 87.9766 107.893 89.6562 105.783 90.8281C103.693 92 101.203 92.5859 98.3125 92.5859C96.1836 92.5859 94.2012 92.1953 92.3652 91.4141C90.5488 90.6328 88.957 89.4609 87.5898 87.8984C86.2227 86.3359 85.1582 84.3828 84.3965 82.0391C83.6348 79.6758 83.2539 76.9121 83.2539 73.748ZM98.1953 86.9023C100.422 86.9023 102.209 86.1797 103.557 84.7344C104.924 83.2695 105.607 81.0332 105.607 78.0254C105.607 75.584 105.002 73.6504 103.791 72.2246C102.6 70.7988 100.803 70.0859 98.4004 70.0859C96.7598 70.0859 95.3242 70.4375 94.0938 71.1406C92.8633 71.8438 91.9062 72.7324 91.2227 73.8066C90.5586 74.8809 90.2266 75.9746 90.2266 77.0879C90.2266 78.2207 90.3926 79.3633 90.7246 80.5156C91.0566 81.668 91.5547 82.7324 92.2188 83.709C92.8828 84.666 93.7129 85.4375 94.709 86.0234C95.7051 86.6094 96.8672 86.9023 98.1953 86.9023Z" fill="#11895E"/>
<path d="M40.1338 115L39.1562 112.225H35.335L34.3574 115H32.6279L36.3467 104.965H38.165L41.877 115H40.1338ZM38.7324 110.816L37.7822 108.082C37.7458 107.964 37.6934 107.797 37.625 107.583C37.5566 107.364 37.4883 107.143 37.4199 106.92C37.3516 106.692 37.2946 106.501 37.249 106.346C37.2035 106.533 37.1465 106.742 37.0781 106.975C37.0143 107.202 36.9505 107.417 36.8867 107.617C36.8275 107.818 36.7819 107.973 36.75 108.082L35.793 110.816H38.7324ZM44.7617 115L41.8838 107.433H43.5859L45.1445 111.876C45.2448 112.159 45.3359 112.464 45.418 112.792C45.5 113.12 45.557 113.396 45.5889 113.619H45.6436C45.6755 113.387 45.737 113.109 45.8281 112.785C45.9193 112.457 46.0127 112.154 46.1084 111.876L47.667 107.433H49.3623L46.4844 115H44.7617ZM53.5254 107.289C54.1999 107.289 54.7786 107.428 55.2617 107.706C55.7448 107.984 56.1162 108.378 56.376 108.889C56.6357 109.399 56.7656 110.01 56.7656 110.721V111.582H51.7139C51.7321 112.316 51.9281 112.881 52.3018 113.277C52.68 113.674 53.2087 113.872 53.8877 113.872C54.3708 113.872 54.8037 113.826 55.1865 113.735C55.5739 113.64 55.9727 113.501 56.3828 113.318V114.624C56.0046 114.802 55.6195 114.932 55.2275 115.014C54.8356 115.096 54.3662 115.137 53.8193 115.137C53.0765 115.137 52.4225 114.993 51.8574 114.706C51.2969 114.414 50.8571 113.981 50.5381 113.407C50.2236 112.833 50.0664 112.12 50.0664 111.268C50.0664 110.42 50.21 109.7 50.4971 109.107C50.7842 108.515 51.1875 108.064 51.707 107.754C52.2266 107.444 52.8327 107.289 53.5254 107.289ZM53.5254 108.499C53.0195 108.499 52.6094 108.663 52.2949 108.991C51.985 109.319 51.8027 109.8 51.748 110.434H55.1934C55.1888 110.055 55.125 109.72 55.002 109.429C54.8835 109.137 54.7012 108.909 54.4551 108.745C54.2135 108.581 53.9036 108.499 53.5254 108.499ZM62.4121 107.289C62.5397 107.289 62.6787 107.296 62.8291 107.31C62.9795 107.323 63.1094 107.341 63.2188 107.364L63.0684 108.868C62.9727 108.841 62.8542 108.82 62.7129 108.807C62.5762 108.793 62.4531 108.786 62.3438 108.786C62.0566 108.786 61.7832 108.834 61.5234 108.93C61.2637 109.021 61.0335 109.162 60.833 109.354C60.6325 109.54 60.4753 109.775 60.3613 110.058C60.2474 110.34 60.1904 110.668 60.1904 111.042V115H58.5771V107.433H59.835L60.0537 108.766H60.1289C60.2793 108.497 60.4661 108.251 60.6895 108.027C60.9128 107.804 61.168 107.626 61.4551 107.494C61.7467 107.357 62.0658 107.289 62.4121 107.289ZM67.5869 107.289C68.5439 107.289 69.2663 107.501 69.7539 107.925C70.2461 108.349 70.4922 109.009 70.4922 109.907V115H69.3506L69.043 113.927H68.9883C68.7741 114.2 68.5531 114.426 68.3252 114.604C68.0973 114.781 67.833 114.913 67.5322 115C67.236 115.091 66.8737 115.137 66.4453 115.137C65.9941 115.137 65.5908 115.055 65.2354 114.891C64.8799 114.722 64.5996 114.467 64.3945 114.125C64.1895 113.783 64.0869 113.35 64.0869 112.826C64.0869 112.047 64.3763 111.461 64.9551 111.069C65.5384 110.677 66.418 110.461 67.5938 110.42L68.9062 110.372V109.976C68.9062 109.451 68.7832 109.078 68.5371 108.854C68.2956 108.631 67.9538 108.52 67.5117 108.52C67.1335 108.52 66.7666 108.574 66.4111 108.684C66.0557 108.793 65.7093 108.927 65.3721 109.087L64.8525 107.952C65.2217 107.756 65.641 107.597 66.1104 107.474C66.5843 107.351 67.0765 107.289 67.5869 107.289ZM68.8994 111.384L67.9219 111.418C67.1198 111.445 66.557 111.582 66.2334 111.828C65.9098 112.074 65.748 112.411 65.748 112.84C65.748 113.214 65.8597 113.487 66.083 113.66C66.3063 113.829 66.6003 113.913 66.9648 113.913C67.5208 113.913 67.9811 113.756 68.3457 113.441C68.7148 113.122 68.8994 112.655 68.8994 112.04V111.384ZM74.9014 118.363C73.876 118.363 73.0898 118.179 72.543 117.81C71.9961 117.44 71.7227 116.923 71.7227 116.258C71.7227 115.793 71.8685 115.399 72.1602 115.075C72.4518 114.756 72.8688 114.535 73.4111 114.412C73.2061 114.321 73.0283 114.18 72.8779 113.988C72.7321 113.792 72.6592 113.576 72.6592 113.339C72.6592 113.056 72.7389 112.815 72.8984 112.614C73.0579 112.414 73.2972 112.22 73.6162 112.033C73.2197 111.865 72.9007 111.591 72.6592 111.213C72.4222 110.83 72.3037 110.381 72.3037 109.866C72.3037 109.319 72.4199 108.854 72.6523 108.472C72.8848 108.084 73.2243 107.79 73.6709 107.59C74.1175 107.385 74.6576 107.282 75.291 107.282C75.4277 107.282 75.5758 107.291 75.7354 107.31C75.8994 107.323 76.0498 107.341 76.1865 107.364C76.3278 107.382 76.4349 107.403 76.5078 107.426H79.126V108.321L77.8408 108.561C77.9639 108.734 78.0618 108.932 78.1348 109.155C78.2077 109.374 78.2441 109.613 78.2441 109.873C78.2441 110.657 77.973 111.274 77.4307 111.726C76.8929 112.172 76.1501 112.396 75.2021 112.396C74.9743 112.386 74.7533 112.368 74.5391 112.341C74.375 112.441 74.2497 112.553 74.1631 112.676C74.0765 112.794 74.0332 112.929 74.0332 113.079C74.0332 113.202 74.0765 113.302 74.1631 113.38C74.2497 113.453 74.3773 113.507 74.5459 113.544C74.7191 113.58 74.9287 113.599 75.1748 113.599H76.4805C77.3099 113.599 77.9434 113.774 78.3809 114.125C78.8184 114.476 79.0371 114.991 79.0371 115.67C79.0371 116.531 78.6816 117.194 77.9707 117.659C77.2598 118.129 76.2367 118.363 74.9014 118.363ZM74.9629 117.235C75.5234 117.235 75.9951 117.181 76.3779 117.071C76.7607 116.962 77.0501 116.805 77.2461 116.6C77.4421 116.399 77.54 116.16 77.54 115.882C77.54 115.636 77.4785 115.447 77.3555 115.314C77.2324 115.182 77.0479 115.091 76.8018 115.041C76.5557 114.991 76.2503 114.966 75.8857 114.966H74.6963C74.4001 114.966 74.138 115.011 73.9102 115.103C73.6823 115.198 73.5046 115.335 73.377 115.513C73.2539 115.69 73.1924 115.905 73.1924 116.155C73.1924 116.502 73.3451 116.768 73.6504 116.955C73.9603 117.142 74.3978 117.235 74.9629 117.235ZM75.2773 111.343C75.7467 111.343 76.0954 111.215 76.3232 110.96C76.5511 110.7 76.665 110.336 76.665 109.866C76.665 109.356 76.5465 108.973 76.3096 108.718C76.0771 108.463 75.7308 108.335 75.2705 108.335C74.8193 108.335 74.4753 108.465 74.2383 108.725C74.0059 108.984 73.8896 109.369 73.8896 109.88C73.8896 110.34 74.0059 110.7 74.2383 110.96C74.4753 111.215 74.8216 111.343 75.2773 111.343ZM83.5215 107.289C84.196 107.289 84.7747 107.428 85.2578 107.706C85.7409 107.984 86.1123 108.378 86.3721 108.889C86.6318 109.399 86.7617 110.01 86.7617 110.721V111.582H81.71C81.7282 112.316 81.9242 112.881 82.2979 113.277C82.6761 113.674 83.2048 113.872 83.8838 113.872C84.3669 113.872 84.7998 113.826 85.1826 113.735C85.57 113.64 85.9688 113.501 86.3789 113.318V114.624C86.0007 114.802 85.6156 114.932 85.2236 115.014C84.8317 115.096 84.3623 115.137 83.8154 115.137C83.0726 115.137 82.4186 114.993 81.8535 114.706C81.293 114.414 80.8532 113.981 80.5342 113.407C80.2197 112.833 80.0625 112.12 80.0625 111.268C80.0625 110.42 80.2061 109.7 80.4932 109.107C80.7803 108.515 81.1836 108.064 81.7031 107.754C82.2227 107.444 82.8288 107.289 83.5215 107.289ZM83.5215 108.499C83.0156 108.499 82.6055 108.663 82.291 108.991C81.9811 109.319 81.7988 109.8 81.7441 110.434H85.1895C85.1849 110.055 85.1211 109.72 84.998 109.429C84.8796 109.137 84.6973 108.909 84.4512 108.745C84.2096 108.581 83.8997 108.499 83.5215 108.499ZM98.1436 112.279C98.1436 112.872 97.9977 113.382 97.7061 113.811C97.4189 114.239 97.0042 114.567 96.4619 114.795C95.9242 115.023 95.2816 115.137 94.5342 115.137C94.1696 115.137 93.821 115.116 93.4883 115.075C93.1556 115.034 92.8411 114.975 92.5449 114.897C92.2533 114.815 91.9867 114.717 91.7451 114.604V113.059C92.1507 113.236 92.6042 113.398 93.1055 113.544C93.6068 113.685 94.1172 113.756 94.6367 113.756C95.0605 113.756 95.4115 113.701 95.6895 113.592C95.972 113.478 96.1816 113.318 96.3184 113.113C96.4551 112.904 96.5234 112.66 96.5234 112.382C96.5234 112.086 96.4437 111.835 96.2842 111.63C96.1247 111.425 95.8831 111.238 95.5596 111.069C95.2406 110.896 94.8395 110.712 94.3564 110.516C94.0283 110.383 93.7139 110.233 93.4131 110.064C93.1169 109.896 92.8525 109.698 92.6201 109.47C92.3877 109.242 92.2031 108.973 92.0664 108.663C91.9342 108.349 91.8682 107.979 91.8682 107.556C91.8682 106.991 92.0026 106.507 92.2715 106.106C92.5449 105.705 92.9277 105.398 93.4199 105.184C93.9167 104.969 94.4954 104.862 95.1562 104.862C95.6803 104.862 96.1725 104.917 96.6328 105.026C97.0977 105.136 97.5534 105.291 98 105.491L97.4805 106.811C97.0703 106.642 96.6715 106.507 96.2842 106.407C95.9014 106.307 95.5094 106.257 95.1084 106.257C94.762 106.257 94.4681 106.309 94.2266 106.414C93.985 106.519 93.8005 106.667 93.6729 106.858C93.5498 107.045 93.4883 107.269 93.4883 107.528C93.4883 107.82 93.5589 108.066 93.7002 108.267C93.846 108.463 94.0693 108.643 94.3701 108.807C94.6755 108.971 95.0674 109.153 95.5459 109.354C96.0973 109.581 96.5645 109.821 96.9473 110.071C97.3346 110.322 97.6309 110.623 97.8359 110.974C98.041 111.32 98.1436 111.755 98.1436 112.279ZM102.956 115.137C102.241 115.137 101.621 114.998 101.097 114.72C100.573 114.442 100.169 114.016 99.8867 113.441C99.6042 112.867 99.4629 112.138 99.4629 111.254C99.4629 110.333 99.6178 109.581 99.9277 108.998C100.238 108.415 100.666 107.984 101.213 107.706C101.764 107.428 102.396 107.289 103.106 107.289C103.558 107.289 103.965 107.335 104.33 107.426C104.699 107.512 105.011 107.619 105.267 107.747L104.788 109.032C104.51 108.918 104.225 108.823 103.934 108.745C103.642 108.668 103.362 108.629 103.093 108.629C102.651 108.629 102.282 108.727 101.985 108.923C101.694 109.119 101.475 109.41 101.329 109.798C101.188 110.185 101.117 110.666 101.117 111.24C101.117 111.796 101.19 112.266 101.336 112.648C101.482 113.027 101.698 113.314 101.985 113.51C102.272 113.701 102.626 113.797 103.045 113.797C103.46 113.797 103.831 113.747 104.159 113.646C104.487 113.546 104.797 113.416 105.089 113.257V114.651C104.802 114.815 104.494 114.936 104.166 115.014C103.838 115.096 103.435 115.137 102.956 115.137ZM113.565 111.199C113.565 111.828 113.483 112.386 113.319 112.874C113.155 113.362 112.916 113.774 112.602 114.111C112.287 114.444 111.909 114.699 111.467 114.877C111.025 115.05 110.526 115.137 109.97 115.137C109.45 115.137 108.974 115.05 108.541 114.877C108.108 114.699 107.732 114.444 107.413 114.111C107.099 113.774 106.855 113.362 106.682 112.874C106.508 112.386 106.422 111.828 106.422 111.199C106.422 110.365 106.565 109.659 106.853 109.08C107.144 108.497 107.559 108.052 108.097 107.747C108.634 107.442 109.275 107.289 110.018 107.289C110.715 107.289 111.33 107.442 111.863 107.747C112.396 108.052 112.813 108.497 113.114 109.08C113.415 109.663 113.565 110.37 113.565 111.199ZM108.076 111.199C108.076 111.751 108.142 112.222 108.274 112.614C108.411 113.006 108.621 113.307 108.903 113.517C109.186 113.722 109.55 113.824 109.997 113.824C110.444 113.824 110.808 113.722 111.091 113.517C111.373 113.307 111.581 113.006 111.713 112.614C111.845 112.222 111.911 111.751 111.911 111.199C111.911 110.648 111.845 110.181 111.713 109.798C111.581 109.41 111.373 109.117 111.091 108.916C110.808 108.711 110.441 108.608 109.99 108.608C109.325 108.608 108.84 108.832 108.534 109.278C108.229 109.725 108.076 110.365 108.076 111.199ZM119.246 107.289C119.374 107.289 119.513 107.296 119.663 107.31C119.813 107.323 119.943 107.341 120.053 107.364L119.902 108.868C119.807 108.841 119.688 108.82 119.547 108.807C119.41 108.793 119.287 108.786 119.178 108.786C118.891 108.786 118.617 108.834 118.357 108.93C118.098 109.021 117.868 109.162 117.667 109.354C117.466 109.54 117.309 109.775 117.195 110.058C117.081 110.34 117.024 110.668 117.024 111.042V115H115.411V107.433H116.669L116.888 108.766H116.963C117.113 108.497 117.3 108.251 117.523 108.027C117.747 107.804 118.002 107.626 118.289 107.494C118.581 107.357 118.9 107.289 119.246 107.289ZM124.469 107.289C125.143 107.289 125.722 107.428 126.205 107.706C126.688 107.984 127.06 108.378 127.319 108.889C127.579 109.399 127.709 110.01 127.709 110.721V111.582H122.657C122.675 112.316 122.871 112.881 123.245 113.277C123.623 113.674 124.152 113.872 124.831 113.872C125.314 113.872 125.747 113.826 126.13 113.735C126.517 113.64 126.916 113.501 127.326 113.318V114.624C126.948 114.802 126.563 114.932 126.171 115.014C125.779 115.096 125.31 115.137 124.763 115.137C124.02 115.137 123.366 114.993 122.801 114.706C122.24 114.414 121.8 113.981 121.481 113.407C121.167 112.833 121.01 112.12 121.01 111.268C121.01 110.42 121.153 109.7 121.44 109.107C121.728 108.515 122.131 108.064 122.65 107.754C123.17 107.444 123.776 107.289 124.469 107.289ZM124.469 108.499C123.963 108.499 123.553 108.663 123.238 108.991C122.928 109.319 122.746 109.8 122.691 110.434H126.137C126.132 110.055 126.068 109.72 125.945 109.429C125.827 109.137 125.645 108.909 125.398 108.745C125.157 108.581 124.847 108.499 124.469 108.499Z" fill="#152536"/>
<defs>
<filter id="filter0_d_3318_5801" x="145" y="63" width="22" height="23" filterUnits="userSpaceOnUse" color-interpolation-filters="sRGB">
<feFlood flood-opacity="0" result="BackgroundImageFix"/>
<feColorMatrix in="SourceAlpha" type="matrix" values="0 0 0 0 0 0 0 0 0 0 0 0 0 0 0 0 0 0 127 0" result="hardAlpha"/>
<feOffset dy="1"/>
<feComposite in2="hardAlpha" operator="out"/>
<feColorMatrix type="matrix" values="0 0 0 0 0 0 0 0 0 0 0 0 0 0 0 0 0 0 0.25 0"/>
<feBlend mode="normal" in2="BackgroundImageFix" result="effect1_dropShadow_3318_5801"/>
<feBlend mode="normal" in="SourceGraphic" in2="effect1_dropShadow_3318_5801" result="shape"/>
</filter>
</defs>
</svg>
