<svg width="25" height="25" viewBox="0 0 25 25" fill="none" xmlns="http://www.w3.org/2000/svg">
<path d="M22.917 13.5415C22.6407 13.5415 22.3758 13.6513 22.1804 13.8466C21.9851 14.042 21.8753 14.3069 21.8753 14.5832V18.9717C21.8745 19.7414 21.5684 20.4794 21.0241 21.0236C20.4798 21.5679 19.7419 21.874 18.9722 21.8748H6.02845C5.25875 21.874 4.52081 21.5679 3.97654 21.0236C3.43228 20.4794 3.12615 19.7414 3.12533 18.9717V14.5832C3.12533 14.3069 3.01558 14.042 2.82023 13.8466C2.62488 13.6513 2.35993 13.5415 2.08366 13.5415C1.80739 13.5415 1.54244 13.6513 1.34709 13.8466C1.15174 14.042 1.04199 14.3069 1.04199 14.5832V18.9717C1.04337 20.2938 1.56917 21.5613 2.50401 22.4961C3.43886 23.431 4.70638 23.9568 6.02845 23.9582H18.9722C20.2943 23.9568 21.5618 23.431 22.4966 22.4961C23.4315 21.5613 23.9573 20.2938 23.9587 18.9717V14.5832C23.9587 14.3069 23.8489 14.042 23.6536 13.8466C23.4582 13.6513 23.1933 13.5415 22.917 13.5415Z" fill="#152536"/>
<path d="M6.98603 9.06989L11.4579 4.59802V17.7084C11.4579 17.9847 11.5677 18.2497 11.763 18.445C11.9584 18.6404 12.2233 18.7501 12.4996 18.7501C12.7758 18.7501 13.0408 18.6404 13.2361 18.445C13.4315 18.2497 13.5412 17.9847 13.5412 17.7084V4.59802L18.0131 9.06989C18.2096 9.25964 18.4727 9.36464 18.7458 9.36226C19.0189 9.35989 19.2802 9.25034 19.4733 9.05721C19.6665 8.86407 19.776 8.60281 19.7784 8.32969C19.7808 8.05657 19.6758 7.79344 19.486 7.59698L13.236 1.34698C13.0407 1.1517 12.7758 1.04199 12.4996 1.04199C12.2234 1.04199 11.9585 1.1517 11.7631 1.34698L5.51311 7.59698C5.32336 7.79344 5.21837 8.05657 5.22074 8.32969C5.22312 8.60281 5.33267 8.86407 5.5258 9.05721C5.71893 9.25034 5.9802 9.35989 6.25332 9.36226C6.52644 9.36464 6.78957 9.25964 6.98603 9.06989Z" fill="#152536"/>
</svg>
