<svg width="20" height="20" viewBox="0 0 20 20" fill="none" xmlns="http://www.w3.org/2000/svg">
<path d="M3.77083 0.25C2.83705 0.25 1.94151 0.620944 1.28123 1.28123C0.620944 1.94151 0.25 2.83705 0.25 3.77083V16.2292C0.25 17.163 0.620944 18.0585 1.28123 18.7188C1.94151 19.3791 2.83705 19.75 3.77083 19.75H16.2292C17.163 19.75 18.0585 19.3791 18.7188 18.7188C19.3791 18.0585 19.75 17.163 19.75 16.2292V3.77083C19.75 2.83705 19.3791 1.94151 18.7188 1.28123C18.0585 0.620944 17.163 0.25 16.2292 0.25H3.77083ZM1.875 6.20833H18.125V16.2292C18.125 16.732 17.9253 17.2142 17.5697 17.5697C17.2142 17.9253 16.732 18.125 16.2292 18.125H3.77083C3.26803 18.125 2.78581 17.9253 2.43028 17.5697C2.07474 17.2142 1.875 16.732 1.875 16.2292V6.20833ZM14.6042 12.7083C14.245 12.7083 13.9006 12.851 13.6466 13.105C13.3927 13.3589 13.25 13.7034 13.25 14.0625C13.25 14.4216 13.3927 14.7661 13.6466 15.02C13.9006 15.274 14.245 15.4167 14.6042 15.4167C14.9633 15.4167 15.3078 15.274 15.5617 15.02C15.8157 14.7661 15.9583 14.4216 15.9583 14.0625C15.9583 13.7034 15.8157 13.3589 15.5617 13.105C15.3078 12.851 14.9633 12.7083 14.6042 12.7083ZM10 12.7083C9.64085 12.7083 9.29642 12.851 9.04246 13.105C8.7885 13.3589 8.64583 13.7034 8.64583 14.0625C8.64583 14.4216 8.7885 14.7661 9.04246 15.02C9.29642 15.274 9.64085 15.4167 10 15.4167C10.3591 15.4167 10.7036 15.274 10.9575 15.02C11.2115 14.7661 11.3542 14.4216 11.3542 14.0625C11.3542 13.7034 11.2115 13.3589 10.9575 13.105C10.7036 12.851 10.3591 12.7083 10 12.7083ZM14.6042 8.375C14.245 8.375 13.9006 8.51767 13.6466 8.77163C13.3927 9.02558 13.25 9.37002 13.25 9.72917C13.25 10.0883 13.3927 10.4328 13.6466 10.6867C13.9006 10.9407 14.245 11.0833 14.6042 11.0833C14.9633 11.0833 15.3078 10.9407 15.5617 10.6867C15.8157 10.4328 15.9583 10.0883 15.9583 9.72917C15.9583 9.37002 15.8157 9.02558 15.5617 8.77163C15.3078 8.51767 14.9633 8.375 14.6042 8.375ZM10 8.375C9.64085 8.375 9.29642 8.51767 9.04246 8.77163C8.7885 9.02558 8.64583 9.37002 8.64583 9.72917C8.64583 10.0883 8.7885 10.4328 9.04246 10.6867C9.29642 10.9407 9.64085 11.0833 10 11.0833C10.3591 11.0833 10.7036 10.9407 10.9575 10.6867C11.2115 10.4328 11.3542 10.0883 11.3542 9.72917C11.3542 9.37002 11.2115 9.02558 10.9575 8.77163C10.7036 8.51767 10.3591 8.375 10 8.375ZM5.39583 8.375C5.03669 8.375 4.69225 8.51767 4.43829 8.77163C4.18434 9.02558 4.04167 9.37002 4.04167 9.72917C4.04167 10.0883 4.18434 10.4328 4.43829 10.6867C4.69225 10.9407 5.03669 11.0833 5.39583 11.0833C5.75498 11.0833 6.09942 10.9407 6.35337 10.6867C6.60733 10.4328 6.75 10.0883 6.75 9.72917C6.75 9.37002 6.60733 9.02558 6.35337 8.77163C6.09942 8.51767 5.75498 8.375 5.39583 8.375ZM3.77083 1.875H16.2292C17.2757 1.875 18.125 2.72433 18.125 3.77083V4.58333H1.875V3.77083C1.875 2.72433 2.72433 1.875 3.77083 1.875Z" fill="#0082B6"/>
</svg>
