<svg width="25" height="22" viewBox="0 0 25 22" fill="none" xmlns="http://www.w3.org/2000/svg">
<path d="M21.4077 3.25H17.9189L17.5126 2.03125C17.3168 1.43948 16.9393 0.924574 16.4338 0.559863C15.9283 0.195152 15.3206 -0.000768602 14.6973 2.26608e-06H9.67769C9.05453 -0.000473901 8.44709 0.195574 7.94179 0.560256C7.43649 0.924937 7.05906 1.43968 6.86319 2.03125L6.45613 3.25H2.96725C2.18055 3.25086 1.42632 3.56376 0.870037 4.12004C0.313757 4.67632 0.000860252 5.43055 0 6.21725V18.161C0.00171975 18.9471 0.314995 19.7005 0.871183 20.2561C1.42737 20.8117 2.18111 21.1241 2.96725 21.125H21.411C22.1971 21.1233 22.9505 20.81 23.5061 20.2538C24.0617 19.6976 24.3741 18.9439 24.375 18.1578V6.214C24.3733 5.42787 24.06 4.67447 23.5038 4.11889C22.9476 3.56331 22.1939 3.25086 21.4077 3.25ZM22.75 18.1578C22.7496 18.5136 22.608 18.8548 22.3564 19.1064C22.1048 19.358 21.7636 19.4996 21.4077 19.5H2.96725C2.6114 19.4996 2.27024 19.358 2.01861 19.1064C1.76698 18.8548 1.62543 18.5136 1.625 18.1578V6.214C1.62629 5.85871 1.76822 5.51839 2.01976 5.26746C2.27129 5.01654 2.61196 4.87543 2.96725 4.875H7.04194C7.21239 4.87487 7.37849 4.82114 7.51673 4.7214C7.65496 4.62166 7.75832 4.48098 7.81219 4.31925L8.4045 2.54232C8.49344 2.27504 8.66431 2.04258 8.89286 1.87791C9.1214 1.71325 9.396 1.62476 9.67769 1.625H14.6973C14.9791 1.62469 15.2539 1.71326 15.4824 1.87809C15.711 2.04292 15.8818 2.27564 15.9705 2.54313L16.5628 4.31925C16.6167 4.48098 16.72 4.62166 16.8583 4.7214C16.9965 4.82114 17.1626 4.87487 17.3331 4.875H21.4077C21.7636 4.87543 22.1048 5.01699 22.3564 5.26861C22.608 5.52024 22.7496 5.8614 22.75 6.21725V18.1578Z" fill="#6C757D"/>
<path d="M12.0938 5C10.8885 5 9.71036 5.35739 8.70825 6.02698C7.70613 6.69657 6.92508 7.64829 6.46386 8.76177C6.00264 9.87526 5.88196 11.1005 6.11709 12.2826C6.35222 13.4647 6.93259 14.5505 7.78482 15.4027C8.63705 16.2549 9.72285 16.8353 10.9049 17.0704C12.087 17.3055 13.3122 17.1849 14.4257 16.7236C15.5392 16.2624 16.4909 15.4814 17.1605 14.4793C17.8301 13.4771 18.1875 12.299 18.1875 11.0938C18.1858 9.47812 17.5432 7.92915 16.4008 6.78672C15.2584 5.64429 13.7094 5.00172 12.0938 5ZM12.0938 15.5625C11.2099 15.5625 10.3459 15.3004 9.61105 14.8094C8.87617 14.3183 8.3034 13.6204 7.96517 12.8039C7.62694 11.9873 7.53844 11.0888 7.71087 10.2219C7.8833 9.35509 8.3089 8.55883 8.93387 7.93387C9.55884 7.3089 10.3551 6.88329 11.2219 6.71087C12.0888 6.53844 12.9873 6.62693 13.8039 6.96516C14.6204 7.30339 15.3183 7.87616 15.8094 8.61105C16.3004 9.34593 16.5625 10.2099 16.5625 11.0938C16.5612 12.2785 16.09 13.4144 15.2522 14.2522C14.4144 15.09 13.2785 15.5612 12.0938 15.5625Z" fill="#6C757D"/>
<path d="M11.8125 11.625C12.2612 11.625 12.625 11.2612 12.625 10.8125C12.625 10.3638 12.2612 10 11.8125 10C11.3638 10 11 10.3638 11 10.8125C11 11.2612 11.3638 11.625 11.8125 11.625Z" fill="#6C757D"/>
</svg>
