<svg width="22" height="22" viewBox="0 0 22 22" fill="none" xmlns="http://www.w3.org/2000/svg">
<path d="M11.0003 0.166016C16.9836 0.166016 21.8337 5.0161 21.8337 10.9993C21.8337 16.9826 16.9836 21.8327 11.0003 21.8327C9.27132 21.8351 7.56706 21.4219 6.03109 20.628L1.88625 21.7839C1.655 21.8485 1.41076 21.8504 1.17854 21.7894C0.946314 21.7285 0.734468 21.6069 0.564703 21.4371C0.394939 21.2674 0.273359 21.0555 0.212422 20.8233C0.151485 20.5911 0.153382 20.3468 0.217918 20.1156L1.37492 15.974C0.579049 14.4367 0.164751 12.7305 0.167001 10.9993C0.167001 5.0161 5.01709 0.166016 11.0003 0.166016ZM11.0003 1.79102C8.55813 1.79102 6.21596 2.76118 4.48906 4.48807C2.76216 6.21497 1.792 8.55715 1.792 10.9993C1.792 12.5918 2.19608 14.1226 2.95442 15.4811L3.11692 15.7736L1.91225 20.0896L6.2315 18.8849L6.524 19.0474C7.75292 19.7307 9.12198 20.1234 10.5262 20.1956C11.9304 20.2677 13.3325 20.0173 14.625 19.4635C15.9174 18.9098 17.0659 18.0674 17.9824 17.001C18.8988 15.9346 19.5588 14.6725 19.9119 13.3115C20.265 11.9504 20.3016 10.5266 20.0191 9.14922C19.7366 7.77181 19.1424 6.47739 18.2821 5.36522C17.4218 4.25305 16.3182 3.35266 15.056 2.73311C13.7938 2.11355 12.4064 1.79129 11.0003 1.79102ZM7.4795 12.0827H12.3523C12.5582 12.0827 12.7564 12.1609 12.9068 12.3015C13.0572 12.442 13.1487 12.6344 13.1627 12.8398C13.1767 13.0452 13.1123 13.2482 12.9824 13.4079C12.8525 13.5676 12.6668 13.672 12.4628 13.7001L12.3523 13.7077H7.4795C7.27364 13.7076 7.07548 13.6294 6.92506 13.4889C6.77464 13.3483 6.68317 13.1559 6.66914 12.9506C6.65511 12.7452 6.71956 12.5421 6.84947 12.3824C6.97938 12.2227 7.16506 12.1183 7.369 12.0903L7.4795 12.0827H12.3523H7.4795ZM7.4795 8.29101H14.5266C14.7324 8.29135 14.9303 8.36974 15.0805 8.51037C15.2308 8.651 15.322 8.84338 15.3359 9.04867C15.3498 9.25397 15.2853 9.45689 15.1554 9.61647C15.0255 9.77604 14.8398 9.88039 14.636 9.90843L14.5266 9.91601H7.4795C7.27364 9.91595 7.07548 9.83775 6.92506 9.69721C6.77464 9.55667 6.68317 9.36427 6.66914 9.15889C6.65511 8.95352 6.71956 8.75047 6.84947 8.59077C6.97938 8.43108 7.16506 8.32666 7.369 8.2986L7.4795 8.29101H14.5266H7.4795Z" fill="#0082B6"/>
</svg>
