<svg width="21" height="24" viewBox="0 0 21 24" fill="none" xmlns="http://www.w3.org/2000/svg">
<path d="M19.2749 7.14503V20.993C19.2749 21.8115 18.9581 22.5801 18.4047 23.1317C17.8538 23.6847 17.0872 23.9987 16.2849 24H5.05974C4.25718 23.9987 3.49055 23.6847 2.93991 23.1317C2.38648 22.5801 2.06968 21.8115 2.06968 20.993V7.14503C0.969553 6.86839 0.256683 5.86152 0.403847 4.79207C0.551241 3.72284 1.51278 2.923 2.65114 2.92278H5.68871V2.22021C5.68524 1.62939 5.93182 1.06206 6.37331 0.644685C6.8148 0.227532 7.41457 -0.00475635 8.03822 7.385e-05H13.3064C13.93 -0.00475635 14.5298 0.227532 14.9713 0.644685C15.4128 1.06206 15.6594 1.62939 15.6559 2.22021V2.92278H18.6935C19.8318 2.923 20.7934 3.72284 20.9408 4.79207C21.0879 5.86152 20.3751 6.86839 19.2749 7.14503ZM5.05974 22.8759H16.2849C17.2993 22.8759 18.0884 22.0504 18.0884 20.993V7.19443H3.25625V20.993C3.25625 22.0504 4.04536 22.8759 5.05974 22.8759ZM14.4693 2.22021C14.4733 1.92754 14.3518 1.64585 14.1326 1.43925C13.9136 1.23265 13.6156 1.11914 13.3064 1.12419H8.03822C7.72906 1.11914 7.43103 1.23265 7.21202 1.43925C6.99278 1.64563 6.87135 1.92754 6.87529 2.22021V2.92278H14.4693V2.22021ZM18.6935 4.0469H2.65114C2.06133 4.0469 1.58323 4.49984 1.58323 5.05861C1.58323 5.61737 2.06133 6.07031 2.65114 6.07031H18.6935C19.2833 6.07031 19.7614 5.61737 19.7614 5.05861C19.7614 4.49984 19.2833 4.0469 18.6935 4.0469Z" fill="#152536"/>
</svg>
