<svg width="20" height="19" viewBox="0 0 20 19" fill="none" xmlns="http://www.w3.org/2000/svg">
<path d="M4.02832 1.16715H7.63665C7.8346 1.16721 8.02513 1.24241 8.16977 1.37754C8.31441 1.51267 8.40236 1.69767 8.41585 1.89515C8.42934 2.09263 8.36737 2.28787 8.24245 2.44142C8.11754 2.59497 7.939 2.69538 7.7429 2.72236L7.63665 2.72965H4.02832C3.43444 2.72958 2.86267 2.95496 2.42858 3.36025C1.99448 3.76553 1.73043 4.3205 1.68978 4.91299L1.68457 5.0734V14.9692C1.6845 15.5631 1.90988 16.1349 2.31516 16.569C2.72045 17.0031 3.27541 17.2671 3.8679 17.3078L4.02832 17.313H13.9242C14.518 17.3131 15.0898 17.0877 15.5239 16.6824C15.958 16.2771 16.222 15.7221 16.2627 15.1297L16.2679 14.9692V14.4505C16.2662 14.2512 16.3406 14.0589 16.476 13.9127C16.6115 13.7665 16.7976 13.6776 16.9964 13.6642C17.1952 13.6508 17.3917 13.7138 17.5455 13.8404C17.6994 13.967 17.7991 14.1476 17.8242 14.3453L17.8304 14.4505V14.9692C17.8305 15.9692 17.4471 16.9312 16.7591 17.6569C16.0712 18.3827 15.1311 18.8169 14.1325 18.8703L13.9242 18.8755H4.02832C3.02832 18.8756 2.06637 18.4922 1.34063 17.8042C0.61488 17.1162 0.180612 16.1761 0.127279 15.1776L0.12207 14.9692V5.0734C0.12198 4.07341 0.505406 3.11146 1.19336 2.38571C1.88132 1.65996 2.82141 1.22569 3.81999 1.17236L4.02832 1.16715H7.63665H4.02832ZM12.1044 3.79215V0.906736C12.1043 0.763034 12.1438 0.622091 12.2187 0.499411C12.2935 0.376731 12.4007 0.277068 12.5285 0.211385C12.6563 0.145702 12.7998 0.116544 12.9431 0.127118C13.0864 0.137692 13.224 0.187589 13.3408 0.27132L13.4262 0.343195L19.67 6.33278C19.9617 6.61194 19.9887 7.06194 19.7502 7.37132L19.67 7.45986L13.4262 13.4515C13.3226 13.5511 13.1936 13.6201 13.0532 13.6511C12.9129 13.6821 12.7668 13.6737 12.6309 13.627C12.495 13.5802 12.3746 13.4969 12.283 13.3862C12.1914 13.2755 12.1321 13.1417 12.1117 12.9994L12.1044 12.888V10.0494L11.746 10.0807C9.24603 10.3411 6.8502 11.4661 4.54395 13.4765C4.00228 13.9484 3.16582 13.5026 3.2554 12.7911C3.94707 7.24944 6.84499 4.19528 11.7919 3.81194L12.1044 3.79111V0.906736V3.79215ZM13.6669 2.73903V4.55257C13.6669 4.75977 13.5846 4.95848 13.438 5.105C13.2915 5.25151 13.0928 5.33382 12.8856 5.33382C8.85019 5.33382 6.3502 7.07965 5.26895 10.7057L5.18665 10.9963L5.55332 10.7494C7.88561 9.22653 10.3314 8.45882 12.8867 8.45882C13.0754 8.45883 13.2578 8.5272 13.4001 8.65129C13.5424 8.77537 13.6349 8.94678 13.6606 9.13382L13.6679 9.24007V11.0557L18.0002 6.89632L13.6669 2.73903Z" fill="#152536"/>
</svg>
