<svg width="21" height="21" viewBox="0 0 21 21" fill="none" xmlns="http://www.w3.org/2000/svg">
<path d="M18.8573 14.7759C18.6832 14.7759 18.5163 14.845 18.3932 14.9681C18.2702 15.0912 18.201 15.2581 18.201 15.4321V17.6732C18.201 18.2015 17.9912 18.7081 17.6177 19.0816C17.2441 19.4551 16.7375 19.6649 16.2093 19.6649H4.79055C4.26231 19.6649 3.75571 19.4551 3.38219 19.0816C3.00867 18.7081 2.79883 18.2015 2.79883 17.6732V15.4321C2.79883 15.2581 2.72969 15.0912 2.60662 14.9681C2.48355 14.845 2.31663 14.7759 2.14258 14.7759C1.96853 14.7759 1.80161 14.845 1.67854 14.9681C1.55547 15.0912 1.48633 15.2581 1.48633 15.4321V17.6732C1.4872 18.5493 1.8356 19.3892 2.45507 20.0087C3.07454 20.6282 3.91448 20.9766 4.79055 20.9774H16.2093C17.0854 20.9766 17.9253 20.6282 18.5448 20.0087C19.1642 19.3892 19.5126 18.5493 19.5135 17.6732V15.4321C19.5135 15.2581 19.4444 15.0912 19.3213 14.9681C19.1982 14.845 19.0313 14.7759 18.8573 14.7759Z" fill="#0071A9"/>
<path d="M10.0339 14.5819C10.0949 14.6434 10.1675 14.6922 10.2474 14.7255C10.3274 14.7588 10.4132 14.776 10.4998 14.776C10.5865 14.776 10.6722 14.7588 10.7522 14.7255C10.8322 14.6922 10.9047 14.6434 10.9658 14.5819L14.6998 10.8478C14.804 10.7224 14.8578 10.5628 14.8507 10.3999C14.8437 10.2371 14.7763 10.0827 14.6616 9.96681C14.547 9.85093 14.3933 9.78187 14.2305 9.77308C14.0678 9.76428 13.9075 9.81637 13.7811 9.91922L11.1561 12.5442V2.78906C11.1561 2.61501 11.0869 2.44809 10.9639 2.32502C10.8408 2.20195 10.6739 2.13281 10.4998 2.13281C10.3258 2.13281 10.1589 2.20195 10.0358 2.32502C9.91271 2.44809 9.84357 2.61501 9.84357 2.78906V12.5344L7.21857 9.90938C7.09543 9.78624 6.92842 9.71706 6.75427 9.71706C6.58013 9.71706 6.41311 9.78624 6.28997 9.90938C6.16684 10.0325 6.09766 10.1995 6.09766 10.3737C6.09766 10.5478 6.16684 10.7148 6.28997 10.838L10.0339 14.5819Z" fill="#0071A9"/>
</svg>
