<svg width="24" height="24" viewBox="0 0 24 24" fill="none" xmlns="http://www.w3.org/2000/svg">
<path d="M15.4798 1.35794L15.4802 1.35794C15.663 1.35727 15.8441 1.39269 16.0132 1.46217C16.1822 1.53166 16.3359 1.63384 16.4654 1.76285C16.5949 1.89187 16.6977 2.04518 16.7678 2.21399C16.8379 2.38281 16.874 2.5638 16.874 2.7466V9.3339C16.8654 9.43222 16.877 9.53127 16.9083 9.62492C16.9401 9.72012 16.9914 9.80763 17.0589 9.88186C17.1265 9.95608 17.2088 10.0154 17.3006 10.056C17.3923 10.0965 17.4916 10.1175 17.592 10.1175C17.6923 10.1175 17.7916 10.0965 17.8834 10.056C17.9751 10.0154 18.0574 9.95608 18.125 9.88186C18.1925 9.80763 18.2438 9.72012 18.2756 9.62493C18.3069 9.53127 18.3185 9.43221 18.3099 9.3339V2.7466C18.3099 1.99163 18.01 1.26759 17.4762 0.733749C16.9423 0.199908 16.2183 -0.1 15.4633 -0.1H2.7466C1.99163 -0.1 1.26759 0.199908 0.733749 0.733749C0.199908 1.26759 -0.1 1.99163 -0.1 2.7466V20.3743C-0.1 21.1292 0.199908 21.8533 0.733749 22.3871C1.26759 22.9209 1.99163 23.2208 2.7466 23.2208H11.0523C11.2435 23.2208 11.4268 23.1449 11.5619 23.0098C11.6971 22.8746 11.773 22.6913 11.773 22.5001C11.773 22.309 11.6971 22.1256 11.5619 21.9905C11.4268 21.8553 11.2435 21.7794 11.0523 21.7794L2.7466 21.7794L2.74549 21.7794C2.56184 21.7814 2.37961 21.747 2.20935 21.6781C2.03909 21.6093 1.88419 21.5073 1.75361 21.3781C1.62303 21.249 1.51936 21.0952 1.44862 20.9257C1.37787 20.7562 1.34145 20.5744 1.34146 20.3907V2.7466V2.74659C1.34145 2.56293 1.37787 2.38109 1.44862 2.2116C1.51936 2.04211 1.62303 1.88834 1.75361 1.75919C1.88419 1.63004 2.03909 1.52807 2.20935 1.4592C2.37961 1.39032 2.56184 1.3559 2.74549 1.35794L2.74549 1.35794H2.7466L15.4798 1.35794Z" fill="#152536" stroke="#152536" stroke-width="0.2"/>
<path d="M14.3105 6.7352V6.73564L14.3199 6.73476C14.4985 6.7179 14.6644 6.63501 14.7852 6.50231C14.9059 6.36961 14.9729 6.19664 14.9729 6.01722C14.9729 5.83779 14.9059 5.66482 14.7852 5.53212C14.6644 5.39942 14.4985 5.31653 14.3199 5.29967L14.3199 5.29923H14.3105H3.87793C3.77961 5.29062 3.68055 5.3023 3.5869 5.33355C3.4917 5.36533 3.40419 5.41663 3.32997 5.48417C3.25575 5.55172 3.19645 5.63403 3.15587 5.72582C3.1153 5.81761 3.09434 5.91686 3.09434 6.01722C3.09434 6.11757 3.1153 6.21683 3.15587 6.30862C3.19645 6.4004 3.25575 6.48271 3.32997 6.55026C3.40419 6.6178 3.4917 6.66911 3.5869 6.70088C3.68055 6.73213 3.77961 6.74381 3.87793 6.7352H14.3105Z" fill="#152536" stroke="#152536" stroke-width="0.2"/>
<path d="M3.88929 11.5578H9.62967C9.82082 11.5578 10.0041 11.4818 10.1393 11.3467C10.2745 11.2115 10.3504 11.0282 10.3504 10.837C10.3504 10.6459 10.2745 10.4626 10.1393 10.3274C10.0041 10.1922 9.82082 10.1163 9.62967 10.1163H3.88929C3.69814 10.1163 3.51482 10.1922 3.37965 10.3274C3.24449 10.4626 3.16855 10.6459 3.16855 10.837C3.16855 11.0282 3.24449 11.2115 3.37965 11.3467C3.51481 11.4818 3.69814 11.5578 3.88929 11.5578Z" fill="#152536" stroke="#152536" stroke-width="0.2"/>
<path d="M22.3576 23.2204L22.3584 23.2204C22.5558 23.2187 22.7445 23.1391 22.8834 22.999C23.0223 22.8589 23.1003 22.6695 23.1003 22.4722V20.4012C23.1003 20.2043 23.022 20.0154 22.8828 19.8761C22.7435 19.7368 22.5546 19.6585 22.3576 19.6585C22.1606 19.6585 21.9717 19.7368 21.8324 19.8761C21.6931 20.0154 21.6149 20.2043 21.6149 20.4012V21.7295H14.3112V20.3243C14.3112 20.1274 14.2329 19.9385 14.0937 19.7992C13.9544 19.6599 13.7655 19.5816 13.5685 19.5816C13.3715 19.5816 13.1826 19.6599 13.0433 19.7992C12.904 19.9385 12.8258 20.1274 12.8258 20.3243L12.8258 22.4777L12.8258 22.4785C12.8274 22.6748 12.9061 22.8625 13.0449 23.0013C13.1837 23.14 13.3714 23.2187 13.5676 23.2204V23.2204H13.5685L22.3576 23.2204Z" fill="#152536" stroke="#152536" stroke-width="0.2"/>
<path d="M17.9137 20.084L17.9159 20.084C18.1059 20.0793 18.287 20.0025 18.4224 19.8691L21.1658 17.2684C21.2432 17.2043 21.3068 17.1251 21.3527 17.0356C21.3992 16.9451 21.4266 16.8459 21.4332 16.7443C21.4397 16.6427 21.4253 16.5408 21.3909 16.445C21.3564 16.3492 21.3026 16.2615 21.2329 16.1874C21.1631 16.1133 21.0788 16.0543 20.9853 16.0141C20.8917 15.9739 20.7909 15.9533 20.6891 15.9537C20.5873 15.9541 20.4867 15.9754 20.3934 16.0164C20.3012 16.0569 20.2182 16.1157 20.1494 16.1893L17.9133 18.3189L15.785 16.297L15.7849 16.2969C15.6418 16.1614 15.4508 16.0882 15.2537 16.0936C15.0567 16.0989 14.8699 16.1823 14.7344 16.3254C14.5989 16.4685 14.5258 16.6596 14.5311 16.8566C14.5365 17.0536 14.6199 17.2404 14.7629 17.3759C14.763 17.3759 14.763 17.3759 14.763 17.3759L17.399 19.8747C17.5364 20.0094 17.7213 20.0846 17.9137 20.084Z" fill="#152536" stroke="#152536" stroke-width="0.2"/>
<path d="M17.4486 19.5695C17.5879 19.7088 17.7768 19.7871 17.9738 19.7871C18.1707 19.7871 18.3596 19.7088 18.4989 19.5695C18.6382 19.4302 18.7165 19.2413 18.7165 19.0443V12.1339C18.7165 11.9369 18.6382 11.748 18.4989 11.6087C18.3596 11.4695 18.1707 11.3912 17.9738 11.3912C17.7768 11.3912 17.5879 11.4695 17.4486 11.6087C17.3093 11.748 17.2311 11.9369 17.2311 12.1339V19.0443C17.2311 19.2413 17.3093 19.4302 17.4486 19.5695Z" fill="#152536" stroke="#152536" stroke-width="0.2"/>
</svg>
