<svg width="12" height="7" viewBox="0 0 12 7" fill="none" xmlns="http://www.w3.org/2000/svg">
<path d="M0.861939 0.527744C0.986958 0.402764 1.1565 0.332553 1.33327 0.332553C1.51005 0.332553 1.67959 0.402764 1.80461 0.527744L5.99994 4.72308L10.1953 0.527744C10.2568 0.464071 10.3303 0.413282 10.4117 0.378343C10.493 0.343404 10.5805 0.325013 10.669 0.324244C10.7575 0.323475 10.8453 0.340343 10.9272 0.373863C11.0092 0.407384 11.0836 0.456886 11.1462 0.519481C11.2088 0.582076 11.2583 0.656511 11.2918 0.738441C11.3253 0.820372 11.3422 0.908158 11.3414 0.996678C11.3407 1.0852 11.3223 1.17268 11.2873 1.25401C11.2524 1.33535 11.2016 1.40891 11.1379 1.47041L6.47127 6.13708C6.34625 6.26206 6.17672 6.33227 5.99994 6.33227C5.82316 6.33227 5.65363 6.26206 5.52861 6.13708L0.861939 1.47041C0.736958 1.34539 0.666748 1.17585 0.666748 0.999077C0.666748 0.822301 0.736958 0.652763 0.861939 0.527744Z" fill="#ABB5BE"/>
</svg>
