<svg width="938" height="139" viewBox="0 0 938 139" fill="none" xmlns="http://www.w3.org/2000/svg">
<path d="M24.5449 136L23.4902 133.281H20.0566L19.0078 136H18L21.3516 127.398H22.248L25.5762 136H24.5449ZM23.1914 132.396L22.1895 129.695C22.166 129.625 22.127 129.51 22.0723 129.35C22.0215 129.189 21.9688 129.023 21.9141 128.852C21.8594 128.68 21.8145 128.541 21.7793 128.436C21.7402 128.596 21.6973 128.756 21.6504 128.916C21.6074 129.072 21.5645 129.219 21.5215 129.355C21.4785 129.488 21.4414 129.602 21.4102 129.695L20.3906 132.396H23.1914ZM33.2461 127.434V132.977C33.2461 133.582 33.123 134.121 32.877 134.594C32.6348 135.066 32.2676 135.439 31.7754 135.713C31.2832 135.982 30.666 136.117 29.9238 136.117C28.8652 136.117 28.0586 135.83 27.5039 135.256C26.9531 134.682 26.6777 133.914 26.6777 132.953V127.434H27.6797V132.982C27.6797 133.709 27.8711 134.27 28.2539 134.664C28.6406 135.059 29.2168 135.256 29.9824 135.256C30.5059 135.256 30.9336 135.162 31.2656 134.975C31.6016 134.783 31.8496 134.518 32.0098 134.178C32.1738 133.834 32.2559 133.438 32.2559 132.988V127.434H33.2461ZM39.1816 131.512H42.1758V135.666C41.7266 135.818 41.2637 135.932 40.7871 136.006C40.3145 136.08 39.7852 136.117 39.1992 136.117C38.3086 136.117 37.5566 135.939 36.9434 135.584C36.334 135.229 35.8711 134.723 35.5547 134.066C35.2383 133.406 35.0801 132.623 35.0801 131.717C35.0801 130.83 35.2539 130.057 35.6016 129.396C35.9531 128.736 36.459 128.225 37.1191 127.861C37.7832 127.494 38.5801 127.311 39.5098 127.311C39.9863 127.311 40.4375 127.355 40.8633 127.445C41.293 127.531 41.6914 127.654 42.0586 127.814L41.6777 128.682C41.3613 128.545 41.0117 128.428 40.6289 128.33C40.25 128.232 39.8574 128.184 39.4512 128.184C38.752 128.184 38.1523 128.328 37.6523 128.617C37.1562 128.906 36.7754 129.314 36.5098 129.842C36.248 130.369 36.1172 130.994 36.1172 131.717C36.1172 132.432 36.2324 133.055 36.4629 133.586C36.6934 134.113 37.0527 134.523 37.541 134.816C38.0293 135.109 38.6582 135.256 39.4277 135.256C39.8145 135.256 40.1465 135.234 40.4238 135.191C40.7012 135.145 40.9531 135.09 41.1797 135.027V132.402H39.1816V131.512Z" fill="#68717A"/>
<path d="M154.006 133.721C154.006 134.229 153.879 134.662 153.625 135.021C153.375 135.377 153.023 135.648 152.57 135.836C152.117 136.023 151.584 136.117 150.971 136.117C150.646 136.117 150.34 136.102 150.051 136.07C149.762 136.039 149.496 135.994 149.254 135.936C149.012 135.877 148.799 135.805 148.615 135.719V134.764C148.908 134.885 149.266 134.998 149.688 135.104C150.109 135.205 150.551 135.256 151.012 135.256C151.441 135.256 151.805 135.199 152.102 135.086C152.398 134.969 152.623 134.803 152.775 134.588C152.932 134.369 153.01 134.107 153.01 133.803C153.01 133.51 152.945 133.266 152.816 133.07C152.688 132.871 152.473 132.691 152.172 132.531C151.875 132.367 151.469 132.193 150.953 132.01C150.59 131.881 150.27 131.74 149.992 131.588C149.715 131.432 149.482 131.256 149.295 131.061C149.107 130.865 148.965 130.639 148.867 130.381C148.773 130.123 148.727 129.828 148.727 129.496C148.727 129.039 148.842 128.648 149.072 128.324C149.307 127.996 149.629 127.746 150.039 127.574C150.453 127.398 150.928 127.311 151.463 127.311C151.92 127.311 152.342 127.354 152.729 127.439C153.119 127.525 153.477 127.641 153.801 127.785L153.49 128.641C153.182 128.512 152.854 128.404 152.506 128.318C152.162 128.232 151.807 128.189 151.439 128.189C151.072 128.189 150.762 128.244 150.508 128.354C150.258 128.459 150.066 128.609 149.934 128.805C149.801 129 149.734 129.232 149.734 129.502C149.734 129.803 149.797 130.053 149.922 130.252C150.051 130.451 150.254 130.629 150.531 130.785C150.812 130.938 151.184 131.098 151.645 131.266C152.148 131.449 152.576 131.645 152.928 131.852C153.279 132.055 153.547 132.305 153.73 132.602C153.914 132.895 154.006 133.268 154.006 133.721ZM160.527 136H155.758V127.434H160.527V128.312H156.754V131.084H160.311V131.951H156.754V135.121H160.527V136ZM164.664 127.434C165.77 127.434 166.576 127.65 167.084 128.084C167.596 128.514 167.852 129.131 167.852 129.936C167.852 130.299 167.791 130.645 167.67 130.973C167.553 131.297 167.361 131.584 167.096 131.834C166.83 132.08 166.48 132.275 166.047 132.42C165.617 132.561 165.09 132.631 164.465 132.631H163.422V136H162.426V127.434H164.664ZM164.57 128.283H163.422V131.775H164.354C164.9 131.775 165.355 131.717 165.719 131.6C166.086 131.482 166.361 131.293 166.545 131.031C166.729 130.766 166.82 130.414 166.82 129.977C166.82 129.406 166.639 128.982 166.275 128.705C165.912 128.424 165.344 128.283 164.57 128.283Z" fill="#68717A"/>
<path d="M281.602 131.705C281.602 132.365 281.518 132.967 281.35 133.51C281.182 134.049 280.932 134.514 280.6 134.904C280.271 135.291 279.863 135.59 279.375 135.801C278.887 136.012 278.32 136.117 277.676 136.117C277.012 136.117 276.432 136.012 275.936 135.801C275.443 135.59 275.033 135.289 274.705 134.898C274.381 134.508 274.137 134.041 273.973 133.498C273.812 132.955 273.732 132.354 273.732 131.693C273.732 130.818 273.877 130.051 274.166 129.391C274.455 128.73 274.893 128.217 275.479 127.85C276.068 127.482 276.807 127.299 277.693 127.299C278.541 127.299 279.254 127.48 279.832 127.844C280.414 128.207 280.854 128.719 281.15 129.379C281.451 130.035 281.602 130.811 281.602 131.705ZM274.781 131.705C274.781 132.432 274.885 133.061 275.092 133.592C275.299 134.123 275.615 134.533 276.041 134.822C276.471 135.111 277.016 135.256 277.676 135.256C278.34 135.256 278.883 135.111 279.305 134.822C279.73 134.533 280.045 134.123 280.248 133.592C280.451 133.061 280.553 132.432 280.553 131.705C280.553 130.6 280.32 129.736 279.855 129.115C279.395 128.49 278.674 128.178 277.693 128.178C277.029 128.178 276.482 128.32 276.053 128.605C275.623 128.891 275.303 129.297 275.092 129.824C274.885 130.348 274.781 130.975 274.781 131.705ZM287.174 128.189C286.701 128.189 286.275 128.271 285.896 128.436C285.521 128.596 285.201 128.83 284.936 129.139C284.674 129.443 284.473 129.812 284.332 130.246C284.191 130.68 284.121 131.168 284.121 131.711C284.121 132.43 284.232 133.055 284.455 133.586C284.682 134.113 285.018 134.521 285.463 134.811C285.912 135.1 286.473 135.244 287.145 135.244C287.527 135.244 287.887 135.213 288.223 135.15C288.562 135.084 288.893 135.002 289.213 134.904V135.771C288.9 135.889 288.572 135.975 288.229 136.029C287.885 136.088 287.477 136.117 287.004 136.117C286.133 136.117 285.404 135.938 284.818 135.578C284.236 135.215 283.799 134.703 283.506 134.043C283.217 133.383 283.072 132.604 283.072 131.705C283.072 131.057 283.162 130.465 283.342 129.93C283.525 129.391 283.791 128.926 284.139 128.535C284.49 128.145 284.92 127.844 285.428 127.633C285.939 127.418 286.525 127.311 287.186 127.311C287.619 127.311 288.037 127.354 288.439 127.439C288.842 127.525 289.205 127.648 289.529 127.809L289.131 128.652C288.857 128.527 288.557 128.42 288.229 128.33C287.904 128.236 287.553 128.189 287.174 128.189ZM293.701 136H292.699V128.312H290.004V127.434H296.385V128.312H293.701V136Z" fill="#68717A"/>
<path d="M408.869 136H407.721L403.051 128.805H403.004C403.016 128.996 403.029 129.215 403.045 129.461C403.061 129.703 403.072 129.963 403.08 130.24C403.092 130.514 403.098 130.793 403.098 131.078V136H402.172V127.434H403.314L407.967 134.605H408.008C408 134.469 407.99 134.275 407.979 134.025C407.967 133.771 407.955 133.5 407.943 133.211C407.936 132.918 407.932 132.646 407.932 132.396V127.434H408.869V136ZM418.637 131.705C418.637 132.365 418.553 132.967 418.385 133.51C418.217 134.049 417.967 134.514 417.635 134.904C417.307 135.291 416.898 135.59 416.41 135.801C415.922 136.012 415.355 136.117 414.711 136.117C414.047 136.117 413.467 136.012 412.971 135.801C412.479 135.59 412.068 135.289 411.74 134.898C411.416 134.508 411.172 134.041 411.008 133.498C410.848 132.955 410.768 132.354 410.768 131.693C410.768 130.818 410.912 130.051 411.201 129.391C411.49 128.73 411.928 128.217 412.514 127.85C413.104 127.482 413.842 127.299 414.729 127.299C415.576 127.299 416.289 127.48 416.867 127.844C417.449 128.207 417.889 128.719 418.186 129.379C418.486 130.035 418.637 130.811 418.637 131.705ZM411.816 131.705C411.816 132.432 411.92 133.061 412.127 133.592C412.334 134.123 412.65 134.533 413.076 134.822C413.506 135.111 414.051 135.256 414.711 135.256C415.375 135.256 415.918 135.111 416.34 134.822C416.766 134.533 417.08 134.123 417.283 133.592C417.486 133.061 417.588 132.432 417.588 131.705C417.588 130.6 417.355 129.736 416.891 129.115C416.43 128.49 415.709 128.178 414.729 128.178C414.064 128.178 413.518 128.32 413.088 128.605C412.658 128.891 412.338 129.297 412.127 129.824C411.92 130.348 411.816 130.975 411.816 131.705ZM426.529 127.434L423.453 136H422.451L419.375 127.434H420.418L422.422 133.076C422.504 133.303 422.576 133.52 422.639 133.727C422.705 133.934 422.764 134.133 422.814 134.324C422.865 134.516 422.91 134.701 422.949 134.881C422.988 134.701 423.033 134.516 423.084 134.324C423.135 134.129 423.193 133.928 423.26 133.721C423.326 133.51 423.4 133.289 423.482 133.059L425.475 127.434H426.529Z" fill="#68717A"/>
<path d="M538.975 131.635C538.975 132.6 538.799 133.406 538.447 134.055C538.096 134.699 537.586 135.186 536.918 135.514C536.254 135.838 535.447 136 534.498 136H532.172V127.434H534.756C535.627 127.434 536.377 127.594 537.006 127.914C537.635 128.23 538.119 128.701 538.459 129.326C538.803 129.947 538.975 130.717 538.975 131.635ZM537.926 131.67C537.926 130.9 537.797 130.266 537.539 129.766C537.285 129.266 536.91 128.895 536.414 128.652C535.922 128.406 535.318 128.283 534.604 128.283H533.168V135.145H534.381C535.561 135.145 536.445 134.854 537.035 134.271C537.629 133.689 537.926 132.822 537.926 131.67ZM545.648 136H540.879V127.434H545.648V128.312H541.875V131.084H545.432V131.951H541.875V135.121H545.648V136ZM551.209 128.189C550.736 128.189 550.311 128.271 549.932 128.436C549.557 128.596 549.236 128.83 548.971 129.139C548.709 129.443 548.508 129.812 548.367 130.246C548.227 130.68 548.156 131.168 548.156 131.711C548.156 132.43 548.268 133.055 548.49 133.586C548.717 134.113 549.053 134.521 549.498 134.811C549.947 135.1 550.508 135.244 551.18 135.244C551.562 135.244 551.922 135.213 552.258 135.15C552.598 135.084 552.928 135.002 553.248 134.904V135.771C552.936 135.889 552.607 135.975 552.264 136.029C551.92 136.088 551.512 136.117 551.039 136.117C550.168 136.117 549.439 135.938 548.854 135.578C548.271 135.215 547.834 134.703 547.541 134.043C547.252 133.383 547.107 132.604 547.107 131.705C547.107 131.057 547.197 130.465 547.377 129.93C547.561 129.391 547.826 128.926 548.174 128.535C548.525 128.145 548.955 127.844 549.463 127.633C549.975 127.418 550.561 127.311 551.221 127.311C551.654 127.311 552.072 127.354 552.475 127.439C552.877 127.525 553.24 127.648 553.564 127.809L553.166 128.652C552.893 128.527 552.592 128.42 552.264 128.33C551.939 128.236 551.588 128.189 551.209 128.189Z" fill="#68717A"/>
<path d="M658.936 138.256C658.74 138.256 658.568 138.242 658.42 138.215C658.271 138.188 658.145 138.15 658.039 138.104V137.254C658.164 137.293 658.299 137.322 658.443 137.342C658.588 137.365 658.744 137.377 658.912 137.377C659.131 137.377 659.332 137.334 659.516 137.248C659.699 137.162 659.846 137.016 659.955 136.809C660.064 136.602 660.119 136.316 660.119 135.953V127.434H661.121V135.877C661.121 136.412 661.031 136.855 660.852 137.207C660.676 137.559 660.424 137.82 660.096 137.992C659.771 138.168 659.385 138.256 658.936 138.256ZM668.768 136L667.713 133.281H664.279L663.23 136H662.223L665.574 127.398H666.471L669.799 136H668.768ZM667.414 132.396L666.412 129.695C666.389 129.625 666.35 129.51 666.295 129.35C666.244 129.189 666.191 129.023 666.137 128.852C666.082 128.68 666.037 128.541 666.002 128.436C665.963 128.596 665.92 128.756 665.873 128.916C665.83 129.072 665.787 129.219 665.744 129.355C665.701 129.488 665.664 129.602 665.633 129.695L664.613 132.396H667.414ZM677.686 136H676.537L671.867 128.805H671.82C671.832 128.996 671.846 129.215 671.861 129.461C671.877 129.703 671.889 129.963 671.896 130.24C671.908 130.514 671.914 130.793 671.914 131.078V136H670.988V127.434H672.131L676.783 134.605H676.824C676.816 134.469 676.807 134.275 676.795 134.025C676.783 133.771 676.771 133.5 676.76 133.211C676.752 132.918 676.748 132.646 676.748 132.396V127.434H677.686V136Z" fill="#68717A"/>
<path d="M785.168 136H784.172V127.434H788.941V128.312H785.168V131.453H788.713V132.326H785.168V136ZM795.141 136H790.371V127.434H795.141V128.312H791.367V131.084H794.924V131.951H791.367V135.121H795.141V136ZM797.039 127.434H799.465C800.535 127.434 801.34 127.594 801.879 127.914C802.418 128.234 802.688 128.779 802.688 129.549C802.688 129.881 802.623 130.18 802.494 130.445C802.369 130.707 802.186 130.924 801.943 131.096C801.701 131.268 801.402 131.387 801.047 131.453V131.512C801.422 131.57 801.754 131.678 802.043 131.834C802.332 131.99 802.559 132.209 802.723 132.49C802.887 132.771 802.969 133.129 802.969 133.562C802.969 134.09 802.846 134.535 802.6 134.898C802.357 135.262 802.014 135.537 801.568 135.725C801.123 135.908 800.596 136 799.986 136H797.039V127.434ZM798.035 131.107H799.676C800.422 131.107 800.938 130.984 801.223 130.738C801.512 130.492 801.656 130.133 801.656 129.66C801.656 129.172 801.484 128.82 801.141 128.605C800.801 128.391 800.258 128.283 799.512 128.283H798.035V131.107ZM798.035 131.945V135.15H799.816C800.578 135.15 801.117 135.002 801.434 134.705C801.75 134.404 801.908 134 801.908 133.492C801.908 133.168 801.836 132.891 801.691 132.66C801.551 132.43 801.32 132.254 801 132.133C800.684 132.008 800.26 131.945 799.729 131.945H798.035Z" fill="#68717A"/>
<path d="M912.939 136L910.062 128.418H910.016C910.031 128.578 910.045 128.773 910.057 129.004C910.068 129.234 910.078 129.486 910.086 129.76C910.094 130.029 910.098 130.305 910.098 130.586V136H909.172V127.434H910.648L913.361 134.559H913.402L916.156 127.434H917.621V136H916.637V130.516C916.637 130.262 916.641 130.008 916.648 129.754C916.656 129.496 916.666 129.254 916.678 129.027C916.689 128.797 916.701 128.598 916.713 128.43H916.666L913.754 136H912.939ZM925.338 136L924.283 133.281H920.85L919.801 136H918.793L922.145 127.398H923.041L926.369 136H925.338ZM923.984 132.396L922.982 129.695C922.959 129.625 922.92 129.51 922.865 129.35C922.814 129.189 922.762 129.023 922.707 128.852C922.652 128.68 922.607 128.541 922.572 128.436C922.533 128.596 922.49 128.756 922.443 128.916C922.4 129.072 922.357 129.219 922.314 129.355C922.271 129.488 922.234 129.602 922.203 129.695L921.184 132.396H923.984ZM929.873 127.434C930.576 127.434 931.156 127.521 931.613 127.697C932.074 127.869 932.418 128.133 932.645 128.488C932.871 128.844 932.984 129.297 932.984 129.848C932.984 130.301 932.902 130.68 932.738 130.984C932.574 131.285 932.359 131.529 932.094 131.717C931.828 131.904 931.545 132.049 931.244 132.15L933.594 136H932.434L930.336 132.426H928.555V136H927.559V127.434H929.873ZM929.814 128.295H928.555V131.582H929.914C930.613 131.582 931.127 131.439 931.455 131.154C931.787 130.869 931.953 130.449 931.953 129.895C931.953 129.312 931.777 128.9 931.426 128.658C931.078 128.416 930.541 128.295 929.814 128.295Z" fill="#68717A"/>
<line y1="40.5" x2="935" y2="40.5" stroke="#EFF0F4"/>
<line y1="80.5" x2="935" y2="80.5" stroke="#EFF0F4"/>
<line y1="120.5" x2="935" y2="120.5" stroke="#EFF0F4"/>
<rect x="13" y="71" width="36" height="24" fill="#66A8F1"/>
<rect x="13" y="95" width="36" height="24" fill="#7E7AF7"/>
<rect x="13" y="57" width="36" height="14" fill="#E18965"/>
<path d="M13 55C13 50.5817 16.5817 47 21 47H41C45.4183 47 49 50.5817 49 55V57H13V55Z" fill="#EEC667"/>
<rect x="140" y="84" width="36" height="20" fill="#66A8F1"/>
<rect x="140" y="104" width="36" height="15" fill="#7E7AF7"/>
<rect x="140" y="78" width="36" height="6" fill="#E18965"/>
<path d="M140 58C140 53.5817 143.582 50 148 50H168C172.418 50 176 53.5817 176 58V78H140V58Z" fill="#EEC667"/>
<rect x="267" y="108" width="36" height="6" fill="#66A8F1"/>
<rect x="267" y="114" width="36" height="5" fill="#7E7AF7"/>
<rect x="267" y="80" width="36" height="28" fill="#E18965"/>
<path d="M267 64C267 59.5817 270.582 56 275 56H295C299.418 56 303 59.5817 303 64V80H267V64Z" fill="#EEC667"/>
<rect x="394" y="76" width="36" height="15" fill="#66A8F1"/>
<rect x="394" y="91" width="36" height="28" fill="#7E7AF7"/>
<rect x="394" y="68" width="36" height="8" fill="#E18965"/>
<path d="M394 58C394 53.5817 397.582 50 402 50H422C426.418 50 430 53.5817 430 58V68H394V58Z" fill="#EEC667"/>
<rect x="521" y="81" width="36" height="22" fill="#66A8F1"/>
<rect x="521" y="103" width="36" height="16" fill="#7E7AF7"/>
<rect x="521" y="53" width="36" height="28" fill="#E18965"/>
<path d="M521 33C521 28.5817 524.582 25 529 25H549C553.418 25 557 28.5817 557 33V53H521V33Z" fill="#EEC667"/>
<rect x="648" y="63" width="36" height="14" fill="#66A8F1"/>
<rect x="648" y="77" width="36" height="42" fill="#7E7AF7"/>
<rect x="648" y="41" width="36" height="22" fill="#E18965"/>
<path d="M648 25C648 20.5817 651.582 17 656 17H676C680.418 17 684 20.5817 684 25V41H648V25Z" fill="#EEC667"/>
<rect x="775" y="55" width="36" height="36" fill="#66A8F1"/>
<rect x="775" y="91" width="36" height="28" fill="#7E7AF7"/>
<rect x="775" y="35" width="36" height="20" fill="#E18965"/>
<path d="M775 15C775 10.5817 778.582 7 783 7H803C807.418 7 811 10.5817 811 15V35H775V15Z" fill="#EEC667"/>
<rect x="902" y="63" width="36" height="7" fill="#66A8F1"/>
<rect x="902" y="70" width="36" height="49" fill="#7E7AF7"/>
<rect x="902" y="28" width="36" height="35" fill="#E18965"/>
<path d="M902 8C902 3.58172 905.582 0 910 0H930C934.418 0 938 3.58172 938 8V28H902V8Z" fill="#EEC667"/>
</svg>
