<svg width="24" height="24" viewBox="0 0 24 24" fill="none" xmlns="http://www.w3.org/2000/svg">
<g clip-path="url(#clip0_3395_19160)">
<path d="M13.2285 0.922059C13.0575 0.781059 12.831 0.722559 12.612 0.763059L0.612 3.01306C0.2565 3.07906 0 3.38806 0 3.74956V20.2496C0 20.6096 0.2565 20.9201 0.612 20.9861L12.612 23.2361C12.657 23.2451 12.705 23.2496 12.75 23.2496C12.9225 23.2496 13.0935 23.1896 13.2285 23.0771C13.401 22.9346 13.5 22.7216 13.5 22.4996V1.49956C13.5 1.27606 13.401 1.06456 13.2285 0.922059ZM12 21.5951L1.5 19.6271V4.37206L12 2.40406V21.5951Z" fill="#152536"/>
<path d="M23.25 3.74951H12.75C12.336 3.74951 12 4.08551 12 4.49951C12 4.91351 12.336 5.24951 12.75 5.24951H22.5V18.7495H12.75C12.336 18.7495 12 19.0855 12 19.4995C12 19.9135 12.336 20.2495 12.75 20.2495H23.25C23.664 20.2495 24 19.9135 24 19.4995V4.49951C24 4.08551 23.664 3.74951 23.25 3.74951Z" fill="#152536"/>
<path d="M15.75 6.74951H12.75C12.336 6.74951 12 7.08551 12 7.49951C12 7.91351 12.336 8.24951 12.75 8.24951H15.75C16.164 8.24951 16.5 7.91351 16.5 7.49951C16.5 7.08551 16.164 6.74951 15.75 6.74951Z" fill="#152536"/>
<path d="M15.75 9.74951H12.75C12.336 9.74951 12 10.0855 12 10.4995C12 10.9135 12.336 11.2495 12.75 11.2495H15.75C16.164 11.2495 16.5 10.9135 16.5 10.4995C16.5 10.0855 16.164 9.74951 15.75 9.74951Z" fill="#152536"/>
<path d="M15.75 12.7495H12.75C12.336 12.7495 12 13.0855 12 13.4995C12 13.9135 12.336 14.2495 12.75 14.2495H15.75C16.164 14.2495 16.5 13.9135 16.5 13.4995C16.5 13.0855 16.164 12.7495 15.75 12.7495Z" fill="#152536"/>
<path d="M15.75 15.7495H12.75C12.336 15.7495 12 16.0855 12 16.4995C12 16.9135 12.336 17.2495 12.75 17.2495H15.75C16.164 17.2495 16.5 16.9135 16.5 16.4995C16.5 16.0855 16.164 15.7495 15.75 15.7495Z" fill="#152536"/>
<path d="M20.25 6.74951H18.75C18.336 6.74951 18 7.08551 18 7.49951C18 7.91351 18.336 8.24951 18.75 8.24951H20.25C20.664 8.24951 21 7.91351 21 7.49951C21 7.08551 20.664 6.74951 20.25 6.74951Z" fill="#152536"/>
<path d="M20.25 9.74951H18.75C18.336 9.74951 18 10.0855 18 10.4995C18 10.9135 18.336 11.2495 18.75 11.2495H20.25C20.664 11.2495 21 10.9135 21 10.4995C21 10.0855 20.664 9.74951 20.25 9.74951Z" fill="#152536"/>
<path d="M20.25 12.7495H18.75C18.336 12.7495 18 13.0855 18 13.4995C18 13.9135 18.336 14.2495 18.75 14.2495H20.25C20.664 14.2495 21 13.9135 21 13.4995C21 13.0855 20.664 12.7495 20.25 12.7495Z" fill="#152536"/>
<path d="M20.25 15.7495H18.75C18.336 15.7495 18 16.0855 18 16.4995C18 16.9135 18.336 17.2495 18.75 17.2495H20.25C20.664 17.2495 21 16.9135 21 16.4995C21 16.0855 20.664 15.7495 20.25 15.7495Z" fill="#152536"/>
<path d="M10.3153 14.5058L5.06529 8.50582C4.78929 8.19232 4.31679 8.16232 4.00629 8.43532C3.69429 8.70832 3.66279 9.18232 3.93579 9.49282L9.18579 15.4928C9.33429 15.6623 9.54129 15.7493 9.74979 15.7493C9.92529 15.7493 10.1008 15.6878 10.2448 15.5633C10.5568 15.2903 10.5883 14.8178 10.3153 14.5058Z" fill="#152536"/>
<path d="M10.2105 7.65842C9.88352 7.40192 9.41252 7.46342 9.15752 7.78892L3.90752 14.5389C3.65402 14.8659 3.71252 15.3384 4.03952 15.5919C4.17752 15.6984 4.33952 15.7494 4.50002 15.7494C4.72202 15.7494 4.94402 15.6504 5.09102 15.4614L10.341 8.71142C10.596 8.38292 10.5375 7.91192 10.2105 7.65842Z" fill="#152536"/>
</g>
<defs>
<clipPath id="clip0_3395_19160">
<rect width="24" height="24" fill="white"/>
</clipPath>
</defs>
</svg>
