<svg width="275" height="66" viewBox="0 0 275 66" fill="none" xmlns="http://www.w3.org/2000/svg">
<path d="M10.3957 53C10.3957 53 3.188 50.5 0 56.5V66H275V0C275 0 273.475 2.5 272.089 3.5C270.703 4.5 266.406 10.5 264.466 13.5C262.525 16.5 259.06 16 256.981 21C254.902 26 252.13 28 249.219 25.5C246.308 23 243.259 21 240.902 21H232.724C230.922 21 226.348 18.5 223.853 16C221.358 13.5 216.784 13.5 214.844 13.5H205.696C203.478 13.5 198.072 16 195.993 16C193.914 16 189.201 18.5 187.261 21C185.32 23.5 181.578 25.5 179.083 28C176.588 30.5 173.538 33.5 170.212 33.5C166.885 33.5 162.727 36.5 160.37 36.5H150.806C148.173 36.5 144.569 33.5 141.797 33.5H132.649C130.847 33.5 127.243 36.5 124.332 36.5C121.421 36.5 118.649 40 114.907 40C111.164 40 110.333 33.5 107.699 33.5C105.066 33.5 102.432 44 99.7984 44C97.1648 44 92.8679 40 90.6502 40H81.7792C79.1457 40 75.126 44 73.3241 44C71.5222 44 66.255 46.5 64.3145 46.5C62.374 46.5 58.0771 53 55.7208 50.5C53.3644 48 51.4239 46.5 47.9587 46.5H40.6124C38.6719 46.5 35.4839 50.5 33.1275 53C30.7712 55.5 27.999 56.5 25.504 56.5H18.0191C14.9697 56.5 12.8906 53 10.3957 53Z" fill="url(#paint0_linear_3533_1375)"/>
<defs>
<linearGradient id="paint0_linear_3533_1375" x1="137.5" y1="0" x2="137.5" y2="117" gradientUnits="userSpaceOnUse">
<stop stop-color="#11895E"/>
<stop offset="1" stop-color="#BCDDD2" stop-opacity="0"/>
</linearGradient>
</defs>
</svg>
