<svg width="167" height="168" viewBox="0 0 167 168" fill="none" xmlns="http://www.w3.org/2000/svg">
<g filter="url(#filter0_d_3533_1380)">
<circle cx="83.5" cy="82.5" r="82.5" fill="#11895E"/>
<circle cx="83.5" cy="82.5" r="81.5" stroke="white" stroke-width="2"/>
</g>
<path opacity="0.3" d="M144.282 104.223C147.765 94.4771 148.853 84.0368 147.455 73.7823C146.058 63.5278 142.215 53.7598 136.25 45.3019C130.286 36.844 122.376 29.9442 113.186 25.1845C103.996 20.4248 93.7962 17.9446 83.4469 17.9531C73.0976 17.9617 62.9021 20.4587 53.7201 25.2336C44.5381 30.0085 36.6389 36.9213 30.6887 45.389C24.7384 53.8568 20.9115 63.6312 19.5307 73.888C18.1499 84.1448 19.2557 94.5832 22.7548 104.323" stroke="white" stroke-width="10" stroke-linecap="round"/>
<path d="M22.7183 104.223C19.6239 95.5644 18.415 86.3449 19.1726 77.1816C19.9302 68.0182 22.6367 59.1225 27.111 51.09C31.5853 43.0574 37.7241 36.0735 45.1163 30.6058C52.5086 25.1381 60.9837 21.3129 69.9742 19.3862C78.9646 17.4595 88.263 17.4758 97.2467 19.434C106.23 21.3922 114.692 25.2472 122.065 30.7408C129.438 36.2344 135.552 43.2398 139.998 51.288C144.444 59.3361 147.12 68.2413 147.845 77.4073" stroke="white" stroke-width="10" stroke-linecap="round"/>
<circle cx="148.047" cy="76.9415" r="4.48446" fill="#11895E" stroke="white" stroke-width="3"/>
<path d="M66.3555 49.6113C68.8164 49.6113 71.082 49.9922 73.1523 50.7539C75.2422 51.5156 76.9121 52.668 78.1621 54.2109C79.4121 55.7344 80.0371 57.6484 80.0371 59.9531C80.0371 61.6719 79.6953 63.1758 79.0117 64.4648C78.3477 65.7539 77.4395 66.8867 76.2871 67.8633C75.1348 68.8203 73.8262 69.6602 72.3613 70.3828C73.8848 71.1836 75.3301 72.1211 76.6973 73.1953C78.0645 74.25 79.1777 75.4902 80.0371 76.916C80.916 78.3418 81.3555 80.002 81.3555 81.8965C81.3555 84.2793 80.7207 86.3496 79.4512 88.1074C78.1816 89.8457 76.4238 91.1934 74.1777 92.1504C71.9316 93.1074 69.3242 93.5859 66.3555 93.5859C63.1523 93.5859 60.4277 93.127 58.1816 92.209C55.9355 91.291 54.2266 89.9824 53.0547 88.2832C51.8828 86.5645 51.2969 84.5137 51.2969 82.1309C51.2969 80.1777 51.6582 78.4785 52.3809 77.0332C53.123 75.5879 54.1191 74.3477 55.3691 73.3125C56.6191 72.2578 57.9961 71.3594 59.5 70.6172C58.2305 69.8164 57.0684 68.9082 56.0137 67.8926C54.9785 66.877 54.1484 65.7148 53.5234 64.4062C52.918 63.0977 52.6152 61.5938 52.6152 59.8945C52.6152 57.6289 53.25 55.7344 54.5195 54.2109C55.8086 52.6875 57.498 51.5449 59.5879 50.7832C61.6777 50.002 63.9336 49.6113 66.3555 49.6113ZM59.6758 81.6035C59.6758 83.1465 60.2227 84.4258 61.3164 85.4414C62.4297 86.4375 64.0703 86.9355 66.2383 86.9355C68.4844 86.9355 70.1641 86.457 71.2773 85.5C72.3906 84.5234 72.9473 83.2441 72.9473 81.6621C72.9473 80.5684 72.625 79.6113 71.9805 78.791C71.3555 77.9707 70.5645 77.2383 69.6074 76.5938C68.6504 75.9297 67.6836 75.3145 66.707 74.748L65.916 74.3379C64.666 74.9043 63.5723 75.5391 62.6348 76.2422C61.7168 76.9453 60.9941 77.7363 60.4668 78.6152C59.9395 79.4941 59.6758 80.4902 59.6758 81.6035ZM66.2969 56.2324C64.8125 56.2324 63.582 56.6133 62.6055 57.375C61.6289 58.1367 61.1406 59.2109 61.1406 60.5977C61.1406 61.5742 61.375 62.4336 61.8438 63.1758C62.332 63.8984 62.9668 64.5332 63.748 65.0801C64.5488 65.627 65.418 66.1348 66.3555 66.6035C67.2539 66.1738 68.0938 65.6953 68.875 65.168C69.6562 64.6406 70.291 64.0059 70.7793 63.2637C71.2676 62.5215 71.5117 61.6328 71.5117 60.5977C71.5117 59.2109 71.0137 58.1367 70.0176 57.375C69.041 56.6133 67.8008 56.2324 66.2969 56.2324ZM85.6328 74.8066C85.6328 72.3457 85.8086 69.9141 86.1602 67.5117C86.5312 65.0898 87.166 62.8145 88.0645 60.6855C88.9629 58.5371 90.2227 56.6426 91.8438 55.002C93.4648 53.3418 95.5254 52.043 98.0254 51.1055C100.525 50.1484 103.553 49.6699 107.107 49.6699C107.947 49.6699 108.924 49.709 110.037 49.7871C111.17 49.8457 112.107 49.9531 112.85 50.1094V57.3457C112.068 57.1699 111.229 57.0332 110.33 56.9355C109.451 56.8184 108.572 56.7598 107.693 56.7598C104.139 56.7598 101.385 57.3262 99.4316 58.459C97.498 59.5918 96.1309 61.1641 95.3301 63.1758C94.5488 65.168 94.0898 67.4922 93.9531 70.1484H94.334C94.8809 69.1914 95.5645 68.3418 96.3848 67.5996C97.2246 66.8574 98.2402 66.2715 99.4316 65.8418C100.623 65.3926 102.02 65.168 103.621 65.168C106.121 65.168 108.289 65.7051 110.125 66.7793C111.961 67.834 113.377 69.3672 114.373 71.3789C115.369 73.3906 115.867 75.8418 115.867 78.7324C115.867 81.8184 115.271 84.4746 114.08 86.7012C112.889 88.9277 111.199 90.6367 109.012 91.8281C106.844 93 104.266 93.5859 101.277 93.5859C99.0898 93.5859 97.0488 93.2148 95.1543 92.4727C93.2598 91.7109 91.5996 90.5586 90.1738 89.0156C88.748 87.4727 87.6348 85.5293 86.834 83.1855C86.0332 80.8223 85.6328 78.0293 85.6328 74.8066ZM101.102 86.3496C102.879 86.3496 104.324 85.7441 105.438 84.5332C106.551 83.3223 107.107 81.4277 107.107 78.8496C107.107 76.7598 106.619 75.1191 105.643 73.9277C104.686 72.7168 103.23 72.1113 101.277 72.1113C99.9492 72.1113 98.7773 72.4141 97.7617 73.0195C96.7656 73.6055 95.9941 74.3574 95.4473 75.2754C94.9004 76.1738 94.627 77.1016 94.627 78.0586C94.627 79.0547 94.7637 80.041 95.0371 81.0176C95.3105 81.9941 95.7207 82.8828 96.2676 83.6836C96.8145 84.4844 97.4883 85.1289 98.2891 85.6172C99.1094 86.1055 100.047 86.3496 101.102 86.3496Z" fill="white"/>
<path d="M42.2344 108.572H45.9668V113.59C45.4427 113.763 44.9004 113.897 44.3398 113.993C43.7793 114.089 43.1504 114.137 42.4531 114.137C41.4368 114.137 40.5755 113.936 39.8691 113.535C39.1673 113.13 38.6341 112.544 38.2695 111.778C37.9049 111.008 37.7227 110.081 37.7227 108.996C37.7227 107.952 37.9255 107.048 38.3311 106.282C38.7367 105.512 39.3268 104.917 40.1016 104.498C40.8763 104.074 41.8151 103.862 42.918 103.862C43.4603 103.862 43.9844 103.917 44.4902 104.026C45.0007 104.131 45.4678 104.277 45.8916 104.464L45.3174 105.817C44.9801 105.658 44.6019 105.523 44.1826 105.414C43.7633 105.305 43.3281 105.25 42.877 105.25C42.1615 105.25 41.5439 105.405 41.0244 105.715C40.5094 106.025 40.113 106.462 39.835 107.027C39.557 107.588 39.418 108.251 39.418 109.017C39.418 109.759 39.5296 110.411 39.7529 110.972C39.9762 111.532 40.3249 111.97 40.7988 112.284C41.2773 112.594 41.8949 112.749 42.6514 112.749C43.0296 112.749 43.3509 112.729 43.6152 112.688C43.8796 112.646 44.1234 112.601 44.3467 112.551V109.974H42.2344V108.572ZM54.8945 110.199C54.8945 110.828 54.8125 111.386 54.6484 111.874C54.4844 112.362 54.2451 112.774 53.9307 113.111C53.6162 113.444 53.238 113.699 52.7959 113.877C52.3538 114.05 51.8548 114.137 51.2988 114.137C50.7793 114.137 50.3031 114.05 49.8701 113.877C49.4372 113.699 49.0612 113.444 48.7422 113.111C48.4277 112.774 48.1839 112.362 48.0107 111.874C47.8376 111.386 47.751 110.828 47.751 110.199C47.751 109.365 47.8945 108.659 48.1816 108.08C48.4733 107.497 48.888 107.052 49.4258 106.747C49.9635 106.442 50.6038 106.289 51.3467 106.289C52.0439 106.289 52.6592 106.442 53.1924 106.747C53.7256 107.052 54.1426 107.497 54.4434 108.08C54.7441 108.663 54.8945 109.37 54.8945 110.199ZM49.4053 110.199C49.4053 110.751 49.4714 111.222 49.6035 111.614C49.7402 112.006 49.9499 112.307 50.2324 112.517C50.515 112.722 50.8796 112.824 51.3262 112.824C51.7728 112.824 52.1374 112.722 52.4199 112.517C52.7025 112.307 52.9098 112.006 53.042 111.614C53.1742 111.222 53.2402 110.751 53.2402 110.199C53.2402 109.648 53.1742 109.181 53.042 108.798C52.9098 108.41 52.7025 108.117 52.4199 107.916C52.1374 107.711 51.7705 107.608 51.3193 107.608C50.654 107.608 50.1686 107.832 49.8633 108.278C49.5579 108.725 49.4053 109.365 49.4053 110.199ZM59.707 106.289C60.6641 106.289 61.3864 106.501 61.874 106.925C62.3662 107.349 62.6123 108.009 62.6123 108.907V114H61.4707L61.1631 112.927H61.1084C60.8942 113.2 60.6732 113.426 60.4453 113.604C60.2174 113.781 59.9531 113.913 59.6523 114C59.3561 114.091 58.9938 114.137 58.5654 114.137C58.1143 114.137 57.7109 114.055 57.3555 113.891C57 113.722 56.7197 113.467 56.5146 113.125C56.3096 112.783 56.207 112.35 56.207 111.826C56.207 111.047 56.4964 110.461 57.0752 110.069C57.6585 109.677 58.5381 109.461 59.7139 109.42L61.0264 109.372V108.976C61.0264 108.451 60.9033 108.078 60.6572 107.854C60.4157 107.631 60.0739 107.52 59.6318 107.52C59.2536 107.52 58.8867 107.574 58.5312 107.684C58.1758 107.793 57.8294 107.927 57.4922 108.087L56.9727 106.952C57.3418 106.756 57.7611 106.597 58.2305 106.474C58.7044 106.351 59.1966 106.289 59.707 106.289ZM61.0195 110.384L60.042 110.418C59.2399 110.445 58.6771 110.582 58.3535 110.828C58.0299 111.074 57.8682 111.411 57.8682 111.84C57.8682 112.214 57.9798 112.487 58.2031 112.66C58.4264 112.829 58.7204 112.913 59.085 112.913C59.641 112.913 60.1012 112.756 60.4658 112.441C60.835 112.122 61.0195 111.655 61.0195 111.04V110.384ZM66.4746 114H64.8613V103.363H66.4746V114ZM75.4775 104.006C76.7673 104.006 77.7083 104.27 78.3008 104.799C78.8932 105.327 79.1895 106.068 79.1895 107.021C79.1895 107.453 79.1211 107.866 78.9844 108.258C78.8522 108.645 78.6335 108.989 78.3281 109.29C78.0228 109.586 77.6195 109.821 77.1182 109.994C76.6214 110.167 76.0085 110.254 75.2793 110.254H74.2129V114H72.5723V104.006H75.4775ZM75.3682 105.366H74.2129V108.887H75.1084C75.6234 108.887 76.0609 108.827 76.4209 108.709C76.7809 108.586 77.0544 108.392 77.2412 108.128C77.4281 107.864 77.5215 107.515 77.5215 107.082C77.5215 106.503 77.346 106.073 76.9951 105.79C76.6488 105.507 76.1064 105.366 75.3682 105.366ZM84.8564 106.289C84.984 106.289 85.123 106.296 85.2734 106.31C85.4238 106.323 85.5537 106.341 85.6631 106.364L85.5127 107.868C85.417 107.841 85.2985 107.82 85.1572 107.807C85.0205 107.793 84.8975 107.786 84.7881 107.786C84.501 107.786 84.2275 107.834 83.9678 107.93C83.708 108.021 83.4779 108.162 83.2773 108.354C83.0768 108.54 82.9196 108.775 82.8057 109.058C82.6917 109.34 82.6348 109.668 82.6348 110.042V114H81.0215V106.433H82.2793L82.498 107.766H82.5732C82.7236 107.497 82.9105 107.251 83.1338 107.027C83.3571 106.804 83.6123 106.626 83.8994 106.494C84.1911 106.357 84.5101 106.289 84.8564 106.289ZM93.7637 110.199C93.7637 110.828 93.6816 111.386 93.5176 111.874C93.3535 112.362 93.1143 112.774 92.7998 113.111C92.4854 113.444 92.1071 113.699 91.665 113.877C91.223 114.05 90.724 114.137 90.168 114.137C89.6484 114.137 89.1722 114.05 88.7393 113.877C88.3063 113.699 87.9303 113.444 87.6113 113.111C87.2969 112.774 87.0531 112.362 86.8799 111.874C86.7067 111.386 86.6201 110.828 86.6201 110.199C86.6201 109.365 86.7637 108.659 87.0508 108.08C87.3424 107.497 87.7572 107.052 88.2949 106.747C88.8327 106.442 89.473 106.289 90.2158 106.289C90.9131 106.289 91.5283 106.442 92.0615 106.747C92.5947 107.052 93.0117 107.497 93.3125 108.08C93.6133 108.663 93.7637 109.37 93.7637 110.199ZM88.2744 110.199C88.2744 110.751 88.3405 111.222 88.4727 111.614C88.6094 112.006 88.819 112.307 89.1016 112.517C89.3841 112.722 89.7487 112.824 90.1953 112.824C90.6419 112.824 91.0065 112.722 91.2891 112.517C91.5716 112.307 91.779 112.006 91.9111 111.614C92.0433 111.222 92.1094 110.751 92.1094 110.199C92.1094 109.648 92.0433 109.181 91.9111 108.798C91.779 108.41 91.5716 108.117 91.2891 107.916C91.0065 107.711 90.6396 107.608 90.1885 107.608C89.5231 107.608 89.0378 107.832 88.7324 108.278C88.4271 108.725 88.2744 109.365 88.2744 110.199ZM97.7695 117.363C96.7441 117.363 95.958 117.179 95.4111 116.81C94.8643 116.44 94.5908 115.923 94.5908 115.258C94.5908 114.793 94.7367 114.399 95.0283 114.075C95.32 113.756 95.737 113.535 96.2793 113.412C96.0742 113.321 95.8965 113.18 95.7461 112.988C95.6003 112.792 95.5273 112.576 95.5273 112.339C95.5273 112.056 95.6071 111.815 95.7666 111.614C95.9261 111.414 96.1654 111.22 96.4844 111.033C96.0879 110.865 95.7689 110.591 95.5273 110.213C95.2904 109.83 95.1719 109.381 95.1719 108.866C95.1719 108.319 95.2881 107.854 95.5205 107.472C95.7529 107.084 96.0924 106.79 96.5391 106.59C96.9857 106.385 97.5257 106.282 98.1592 106.282C98.2959 106.282 98.444 106.291 98.6035 106.31C98.7676 106.323 98.918 106.341 99.0547 106.364C99.196 106.382 99.3031 106.403 99.376 106.426H101.994V107.321L100.709 107.561C100.832 107.734 100.93 107.932 101.003 108.155C101.076 108.374 101.112 108.613 101.112 108.873C101.112 109.657 100.841 110.274 100.299 110.726C99.7611 111.172 99.0182 111.396 98.0703 111.396C97.8424 111.386 97.6214 111.368 97.4072 111.341C97.2432 111.441 97.1178 111.553 97.0312 111.676C96.9447 111.794 96.9014 111.929 96.9014 112.079C96.9014 112.202 96.9447 112.302 97.0312 112.38C97.1178 112.453 97.2454 112.507 97.4141 112.544C97.5872 112.58 97.7969 112.599 98.043 112.599H99.3486C100.178 112.599 100.812 112.774 101.249 113.125C101.687 113.476 101.905 113.991 101.905 114.67C101.905 115.531 101.55 116.194 100.839 116.659C100.128 117.129 99.1048 117.363 97.7695 117.363ZM97.8311 116.235C98.3916 116.235 98.8633 116.181 99.2461 116.071C99.6289 115.962 99.9183 115.805 100.114 115.6C100.31 115.399 100.408 115.16 100.408 114.882C100.408 114.636 100.347 114.447 100.224 114.314C100.101 114.182 99.916 114.091 99.6699 114.041C99.4238 113.991 99.1185 113.966 98.7539 113.966H97.5645C97.2682 113.966 97.0062 114.011 96.7783 114.103C96.5505 114.198 96.3727 114.335 96.2451 114.513C96.1221 114.69 96.0605 114.905 96.0605 115.155C96.0605 115.502 96.2132 115.768 96.5186 115.955C96.8285 116.142 97.266 116.235 97.8311 116.235ZM98.1455 110.343C98.6149 110.343 98.9635 110.215 99.1914 109.96C99.4193 109.7 99.5332 109.336 99.5332 108.866C99.5332 108.356 99.4147 107.973 99.1777 107.718C98.9453 107.463 98.599 107.335 98.1387 107.335C97.6875 107.335 97.3434 107.465 97.1064 107.725C96.874 107.984 96.7578 108.369 96.7578 108.88C96.7578 109.34 96.874 109.7 97.1064 109.96C97.3434 110.215 97.6898 110.343 98.1455 110.343ZM107.21 106.289C107.338 106.289 107.477 106.296 107.627 106.31C107.777 106.323 107.907 106.341 108.017 106.364L107.866 107.868C107.771 107.841 107.652 107.82 107.511 107.807C107.374 107.793 107.251 107.786 107.142 107.786C106.854 107.786 106.581 107.834 106.321 107.93C106.062 108.021 105.831 108.162 105.631 108.354C105.43 108.54 105.273 108.775 105.159 109.058C105.045 109.34 104.988 109.668 104.988 110.042V114H103.375V106.433H104.633L104.852 107.766H104.927C105.077 107.497 105.264 107.251 105.487 107.027C105.711 106.804 105.966 106.626 106.253 106.494C106.545 106.357 106.864 106.289 107.21 106.289ZM112.433 106.289C113.107 106.289 113.686 106.428 114.169 106.706C114.652 106.984 115.023 107.378 115.283 107.889C115.543 108.399 115.673 109.01 115.673 109.721V110.582H110.621C110.639 111.316 110.835 111.881 111.209 112.277C111.587 112.674 112.116 112.872 112.795 112.872C113.278 112.872 113.711 112.826 114.094 112.735C114.481 112.64 114.88 112.501 115.29 112.318V113.624C114.912 113.802 114.527 113.932 114.135 114.014C113.743 114.096 113.273 114.137 112.727 114.137C111.984 114.137 111.33 113.993 110.765 113.706C110.204 113.414 109.764 112.981 109.445 112.407C109.131 111.833 108.974 111.12 108.974 110.268C108.974 109.42 109.117 108.7 109.404 108.107C109.691 107.515 110.095 107.064 110.614 106.754C111.134 106.444 111.74 106.289 112.433 106.289ZM112.433 107.499C111.927 107.499 111.517 107.663 111.202 107.991C110.892 108.319 110.71 108.8 110.655 109.434H114.101C114.096 109.055 114.032 108.72 113.909 108.429C113.791 108.137 113.608 107.909 113.362 107.745C113.121 107.581 112.811 107.499 112.433 107.499ZM122.57 111.84C122.57 112.337 122.45 112.756 122.208 113.098C121.966 113.439 121.613 113.699 121.148 113.877C120.688 114.05 120.123 114.137 119.453 114.137C118.924 114.137 118.469 114.098 118.086 114.021C117.708 113.948 117.35 113.834 117.013 113.679V112.291C117.373 112.46 117.776 112.605 118.223 112.729C118.674 112.852 119.1 112.913 119.501 112.913C120.03 112.913 120.41 112.831 120.643 112.667C120.875 112.498 120.991 112.275 120.991 111.997C120.991 111.833 120.943 111.687 120.848 111.56C120.757 111.427 120.583 111.293 120.328 111.156C120.077 111.015 119.708 110.846 119.221 110.65C118.742 110.459 118.339 110.268 118.011 110.076C117.683 109.885 117.434 109.655 117.266 109.386C117.097 109.112 117.013 108.764 117.013 108.34C117.013 107.67 117.277 107.162 117.806 106.815C118.339 106.465 119.043 106.289 119.918 106.289C120.383 106.289 120.82 106.337 121.23 106.433C121.645 106.524 122.051 106.658 122.447 106.836L121.941 108.046C121.6 107.896 121.256 107.772 120.909 107.677C120.567 107.576 120.219 107.526 119.863 107.526C119.449 107.526 119.132 107.59 118.913 107.718C118.699 107.845 118.592 108.028 118.592 108.265C118.592 108.442 118.644 108.593 118.749 108.716C118.854 108.839 119.034 108.962 119.289 109.085C119.549 109.208 119.909 109.361 120.369 109.543C120.82 109.716 121.21 109.898 121.538 110.09C121.871 110.277 122.126 110.507 122.304 110.78C122.481 111.054 122.57 111.407 122.57 111.84ZM129.393 111.84C129.393 112.337 129.272 112.756 129.03 113.098C128.789 113.439 128.436 113.699 127.971 113.877C127.51 114.05 126.945 114.137 126.275 114.137C125.747 114.137 125.291 114.098 124.908 114.021C124.53 113.948 124.172 113.834 123.835 113.679V112.291C124.195 112.46 124.598 112.605 125.045 112.729C125.496 112.852 125.922 112.913 126.323 112.913C126.852 112.913 127.232 112.831 127.465 112.667C127.697 112.498 127.813 112.275 127.813 111.997C127.813 111.833 127.766 111.687 127.67 111.56C127.579 111.427 127.406 111.293 127.15 111.156C126.9 111.015 126.531 110.846 126.043 110.65C125.564 110.459 125.161 110.268 124.833 110.076C124.505 109.885 124.257 109.655 124.088 109.386C123.919 109.112 123.835 108.764 123.835 108.34C123.835 107.67 124.099 107.162 124.628 106.815C125.161 106.465 125.865 106.289 126.74 106.289C127.205 106.289 127.643 106.337 128.053 106.433C128.467 106.524 128.873 106.658 129.27 106.836L128.764 108.046C128.422 107.896 128.078 107.772 127.731 107.677C127.39 107.576 127.041 107.526 126.686 107.526C126.271 107.526 125.954 107.59 125.735 107.718C125.521 107.845 125.414 108.028 125.414 108.265C125.414 108.442 125.466 108.593 125.571 108.716C125.676 108.839 125.856 108.962 126.111 109.085C126.371 109.208 126.731 109.361 127.191 109.543C127.643 109.716 128.032 109.898 128.36 110.09C128.693 110.277 128.948 110.507 129.126 110.78C129.304 111.054 129.393 111.407 129.393 111.84Z" fill="white"/>
<path opacity="0.3" d="M107.838 148.932C91.6505 153.67 74.2646 153.625 58.1058 148.805" stroke="white" stroke-width="4" stroke-linecap="round"/>
<path d="M58.1508 148.818C67.5936 151.63 77.513 152.827 87.4214 152.352" stroke="white" stroke-width="4" stroke-linecap="round"/>
<path d="M65.0825 134.645C65.6333 134.645 66.1177 134.744 66.5356 134.943C66.9575 135.139 67.2856 135.428 67.52 135.811C67.7544 136.189 67.8716 136.654 67.8716 137.205C67.8716 137.807 67.7446 138.326 67.4907 138.764C67.2368 139.197 66.8638 139.531 66.3716 139.766C65.8794 140 65.2798 140.117 64.5728 140.117C64.1235 140.117 63.7036 140.078 63.313 140C62.9263 139.922 62.5923 139.805 62.311 139.648V138.406C62.604 138.57 62.9556 138.705 63.3657 138.811C63.7759 138.912 64.1685 138.963 64.5435 138.963C64.9419 138.963 65.2837 138.904 65.5688 138.787C65.854 138.67 66.0728 138.49 66.2251 138.248C66.3813 138.006 66.4595 137.699 66.4595 137.328C66.4595 136.836 66.3013 136.457 65.9849 136.191C65.6724 135.922 65.1821 135.787 64.5142 135.787C64.2798 135.787 64.0298 135.809 63.7642 135.852C63.5024 135.891 63.2837 135.934 63.1079 135.98L62.5044 135.623L62.8267 131.434H67.2798V132.646H64.0396L63.8521 134.779C63.9927 134.748 64.1606 134.719 64.356 134.691C64.5513 134.66 64.7935 134.645 65.0825 134.645ZM73.0864 140H71.7036V134.486C71.7036 134.303 71.7056 134.119 71.7095 133.936C71.7134 133.752 71.7173 133.572 71.7212 133.396C71.729 133.221 71.7388 133.053 71.7505 132.893C71.6685 132.982 71.5669 133.08 71.4458 133.186C71.3286 133.291 71.2036 133.4 71.0708 133.514L70.0864 134.299L69.395 133.426L71.938 131.434H73.0864V140ZM81.647 140.117C80.8735 140.117 80.2524 139.836 79.7837 139.273C79.3188 138.707 79.0864 137.873 79.0864 136.771C79.0864 135.658 79.3228 134.816 79.7954 134.246C80.272 133.676 80.8989 133.391 81.6763 133.391C82.0044 133.391 82.2915 133.436 82.5376 133.525C82.7837 133.611 82.9946 133.729 83.1704 133.877C83.3501 134.025 83.5024 134.191 83.6274 134.375H83.6919C83.6724 134.254 83.6489 134.08 83.6216 133.854C83.5981 133.623 83.5864 133.41 83.5864 133.215V130.883H84.9692V140H83.8911L83.645 139.115H83.5864C83.4692 139.303 83.3208 139.473 83.1411 139.625C82.9653 139.773 82.7544 139.893 82.5083 139.982C82.2661 140.072 81.979 140.117 81.647 140.117ZM82.0337 138.998C82.6235 138.998 83.0396 138.828 83.2817 138.488C83.5239 138.148 83.6489 137.639 83.6567 136.959V136.777C83.6567 136.051 83.5396 135.494 83.3052 135.107C83.0708 134.717 82.6431 134.521 82.022 134.521C81.5259 134.521 81.147 134.723 80.8853 135.125C80.6274 135.523 80.4985 136.08 80.4985 136.795C80.4985 137.51 80.6274 138.057 80.8853 138.436C81.147 138.811 81.5298 138.998 82.0337 138.998ZM89.4868 133.391C90.3071 133.391 90.9263 133.572 91.3442 133.936C91.7661 134.299 91.9771 134.865 91.9771 135.635V140H90.9985L90.7349 139.08H90.688C90.5044 139.314 90.3149 139.508 90.1196 139.66C89.9243 139.812 89.6978 139.926 89.4399 140C89.186 140.078 88.8755 140.117 88.5083 140.117C88.1216 140.117 87.7759 140.047 87.4712 139.906C87.1665 139.762 86.9263 139.543 86.7505 139.25C86.5747 138.957 86.4868 138.586 86.4868 138.137C86.4868 137.469 86.7349 136.967 87.231 136.631C87.731 136.295 88.4849 136.109 89.4927 136.074L90.6177 136.033V135.693C90.6177 135.244 90.5122 134.924 90.3013 134.732C90.0942 134.541 89.8013 134.445 89.4224 134.445C89.0981 134.445 88.7837 134.492 88.479 134.586C88.1743 134.68 87.8774 134.795 87.5884 134.932L87.1431 133.959C87.4595 133.791 87.8188 133.654 88.2212 133.549C88.6274 133.443 89.0493 133.391 89.4868 133.391ZM90.6118 136.9L89.7739 136.93C89.0864 136.953 88.604 137.07 88.3267 137.281C88.0493 137.492 87.9106 137.781 87.9106 138.148C87.9106 138.469 88.0063 138.703 88.1978 138.852C88.3892 138.996 88.6411 139.068 88.9536 139.068C89.4302 139.068 89.8247 138.934 90.1372 138.664C90.4536 138.391 90.6118 137.99 90.6118 137.463V136.9ZM92.9263 133.514H94.4263L95.7563 137.217C95.8149 137.385 95.8677 137.551 95.9146 137.715C95.9653 137.875 96.0083 138.033 96.0435 138.189C96.0825 138.346 96.1138 138.502 96.1372 138.658H96.1724C96.2114 138.455 96.2661 138.229 96.3364 137.979C96.4106 137.725 96.4927 137.471 96.5825 137.217L97.8599 133.514H99.3423L96.5591 140.891C96.3989 141.312 96.2017 141.672 95.9673 141.969C95.7368 142.27 95.4634 142.496 95.147 142.648C94.8306 142.805 94.4692 142.883 94.063 142.883C93.8677 142.883 93.6978 142.871 93.5532 142.848C93.4087 142.828 93.2856 142.807 93.1841 142.783V141.682C93.2661 141.701 93.3696 141.719 93.4946 141.734C93.6196 141.75 93.7485 141.758 93.8813 141.758C94.1274 141.758 94.3403 141.709 94.52 141.611C94.6997 141.514 94.8521 141.375 94.9771 141.195C95.1021 141.02 95.2056 140.818 95.2876 140.592L95.5161 139.982L92.9263 133.514ZM104.686 138.148C104.686 138.574 104.583 138.934 104.375 139.227C104.168 139.52 103.866 139.742 103.467 139.895C103.073 140.043 102.588 140.117 102.014 140.117C101.561 140.117 101.17 140.084 100.842 140.018C100.518 139.955 100.211 139.857 99.9224 139.725V138.535C100.231 138.68 100.577 138.805 100.959 138.91C101.346 139.016 101.711 139.068 102.055 139.068C102.508 139.068 102.834 138.998 103.034 138.857C103.233 138.713 103.333 138.521 103.333 138.283C103.333 138.143 103.292 138.018 103.209 137.908C103.131 137.795 102.983 137.68 102.764 137.562C102.549 137.441 102.233 137.297 101.815 137.129C101.405 136.965 101.059 136.801 100.778 136.637C100.497 136.473 100.284 136.275 100.139 136.045C99.9946 135.811 99.9224 135.512 99.9224 135.148C99.9224 134.574 100.149 134.139 100.602 133.842C101.059 133.541 101.663 133.391 102.413 133.391C102.811 133.391 103.186 133.432 103.538 133.514C103.893 133.592 104.241 133.707 104.581 133.859L104.147 134.896C103.854 134.768 103.559 134.662 103.262 134.58C102.969 134.494 102.67 134.451 102.366 134.451C102.01 134.451 101.739 134.506 101.551 134.615C101.368 134.725 101.276 134.881 101.276 135.084C101.276 135.236 101.321 135.365 101.411 135.471C101.5 135.576 101.655 135.682 101.874 135.787C102.096 135.893 102.405 136.023 102.799 136.18C103.186 136.328 103.52 136.484 103.801 136.648C104.086 136.809 104.305 137.006 104.458 137.24C104.61 137.475 104.686 137.777 104.686 138.148Z" fill="white"/>
<defs>
<filter id="filter0_d_3533_1380" x="0" y="0" width="167" height="168" filterUnits="userSpaceOnUse" color-interpolation-filters="sRGB">
<feFlood flood-opacity="0" result="BackgroundImageFix"/>
<feColorMatrix in="SourceAlpha" type="matrix" values="0 0 0 0 0 0 0 0 0 0 0 0 0 0 0 0 0 0 127 0" result="hardAlpha"/>
<feOffset dy="2"/>
<feGaussianBlur stdDeviation="0.5"/>
<feComposite in2="hardAlpha" operator="out"/>
<feColorMatrix type="matrix" values="0 0 0 0 0 0 0 0 0 0 0 0 0 0 0 0 0 0 0.2 0"/>
<feBlend mode="normal" in2="BackgroundImageFix" result="effect1_dropShadow_3533_1380"/>
<feBlend mode="normal" in="SourceGraphic" in2="effect1_dropShadow_3533_1380" result="shape"/>
</filter>
</defs>
</svg>
