<svg width="16" height="16" viewBox="0 0 16 16" fill="none" xmlns="http://www.w3.org/2000/svg">
<path d="M13.8182 0H2.18182C0.976833 0 0 0.976833 0 2.18182V13.8182C0 15.0232 0.976833 16 2.18182 16H13.8182C15.0232 16 16 15.0232 16 13.8182V2.18182C16 0.976833 15.0232 0 13.8182 0Z" fill="#0077B5"/>
<path d="M5.76365 4.36364C5.76365 4.63334 5.68367 4.89698 5.53384 5.12123C5.384 5.34548 5.17103 5.52026 4.92186 5.62347C4.67268 5.72668 4.3985 5.75369 4.13398 5.70107C3.86946 5.64845 3.62649 5.51858 3.43578 5.32787C3.24507 5.13717 3.1152 4.89419 3.06258 4.62967C3.00996 4.36515 3.03697 4.09097 3.14018 3.8418C3.24339 3.59262 3.41817 3.37965 3.64242 3.22981C3.86667 3.07998 4.13031 3 4.40001 3C4.76167 3 5.10852 3.14367 5.36425 3.3994C5.61998 3.65513 5.76365 4.00198 5.76365 4.36364Z" fill="white"/>
<path d="M5.45477 6.63506V12.6596C5.45501 12.704 5.44646 12.7481 5.42962 12.7892C5.41278 12.8304 5.38797 12.8678 5.35663 12.8993C5.32529 12.9308 5.28803 12.9558 5.24699 12.9728C5.20595 12.9899 5.16194 12.9987 5.1175 12.9987H3.68022C3.63578 12.9988 3.59175 12.9901 3.55067 12.9732C3.50958 12.9562 3.47225 12.9313 3.44083 12.8999C3.4094 12.8685 3.38449 12.8312 3.36754 12.7901C3.35059 12.749 3.34192 12.705 3.34204 12.6605V6.63506C3.34204 6.54537 3.37767 6.45935 3.44109 6.39593C3.50452 6.3325 3.59053 6.29688 3.68022 6.29688H5.1175C5.20703 6.29712 5.29282 6.33285 5.35604 6.39625C5.41927 6.45964 5.45477 6.54552 5.45477 6.63506Z" fill="white"/>
<path d="M12.9674 9.77376V12.6901C12.9675 12.731 12.9596 12.7715 12.944 12.8092C12.9284 12.847 12.9055 12.8813 12.8766 12.9102C12.8477 12.9391 12.8134 12.962 12.7756 12.9776C12.7378 12.9932 12.6974 13.0012 12.6565 13.001H11.111C11.0702 13.0012 11.0297 12.9932 10.9919 12.9776C10.9541 12.962 10.9198 12.9391 10.8909 12.9102C10.862 12.8813 10.8391 12.847 10.8236 12.8092C10.808 12.7715 10.8 12.731 10.8001 12.6901V9.86376C10.8001 9.44195 10.9238 8.01649 9.6974 8.01649C8.7474 8.01649 8.55377 8.99195 8.51559 9.43013V12.6901C8.51559 12.7718 8.48346 12.8502 8.42614 12.9084C8.36881 12.9666 8.29089 12.9998 8.20922 13.001H6.7165C6.67571 13.001 6.63532 12.993 6.59765 12.9774C6.55998 12.9617 6.52577 12.9388 6.49697 12.9099C6.46817 12.881 6.44536 12.8468 6.42983 12.809C6.41431 12.7713 6.40638 12.7309 6.4065 12.6901V6.61104C6.40638 6.57025 6.41431 6.52984 6.42983 6.49213C6.44536 6.45441 6.46817 6.42013 6.49697 6.39125C6.52577 6.36236 6.55998 6.33945 6.59765 6.32381C6.63532 6.30818 6.67571 6.30013 6.7165 6.30013H8.20922C8.29168 6.30013 8.37076 6.33288 8.42907 6.39119C8.48738 6.4495 8.52013 6.52858 8.52013 6.61104V7.13649C8.87286 6.6074 9.39559 6.19922 10.511 6.19922C12.982 6.19922 12.9674 8.50649 12.9674 9.77376Z" fill="white"/>
</svg>
