<svg width="14" height="14" viewBox="0 0 14 14" fill="none" xmlns="http://www.w3.org/2000/svg">
<path d="M12.0176 13.5547H5.04492C4.19673 13.5547 3.50684 12.8648 3.50684 12.0166V5.04395C3.50684 4.19576 4.19673 3.50586 5.04492 3.50586H12.0176C12.8658 3.50586 13.5557 4.19576 13.5557 5.04395V12.0166C13.5557 12.8648 12.8658 13.5547 12.0176 13.5547ZM5.04492 4.53125C4.76222 4.53125 4.53223 4.76124 4.53223 5.04395V12.0166C4.53223 12.2993 4.76222 12.5293 5.04492 12.5293H12.0176C12.3003 12.5293 12.5303 12.2993 12.5303 12.0166V5.04395C12.5303 4.76124 12.3003 4.53125 12.0176 4.53125H5.04492ZM2.48145 9.45313H1.96875C1.68605 9.45313 1.45605 9.22313 1.45605 8.94043V1.96777C1.45605 1.68507 1.68605 1.45508 1.96875 1.45508H8.94141C9.22411 1.45508 9.4541 1.68507 9.4541 1.96777V2.45483H10.4795V1.96777C10.4795 1.11958 9.7896 0.429688 8.94141 0.429688H1.96875C1.12056 0.429688 0.430664 1.11958 0.430664 1.96777V8.94043C0.430664 9.78862 1.12056 10.4785 1.96875 10.4785H2.48145V9.45313Z" fill="#68717A"/>
</svg>
