<svg width="21" height="26" viewBox="0 0 21 26" fill="none" xmlns="http://www.w3.org/2000/svg">
<path d="M17.5007 25.0999H17.5006H6.20371H6.20359C5.42897 25.099 4.68633 24.7909 4.13859 24.2432C3.59085 23.6954 3.28274 22.9528 3.28184 22.1782L3.28184 22.178L3.28184 18.4927C3.28184 18.3419 3.34176 18.1972 3.44842 18.0906C3.55508 17.9839 3.69974 17.924 3.85059 17.924C4.00143 17.924 4.14609 17.9839 4.25275 18.0906C4.35941 18.1972 4.41934 18.3419 4.41934 18.4927V22.1779C4.41992 22.651 4.60812 23.1046 4.94265 23.4391C5.27718 23.7736 5.73074 23.9618 6.20384 23.9624H17.5005C17.9736 23.9618 18.4272 23.7736 18.7618 23.4391C19.0964 23.1046 19.2847 22.6511 19.2854 22.178C19.2854 22.178 19.2854 22.1779 19.2854 22.1779M17.5007 25.0999L20.3229 17.9551C20.3229 17.8308 20.2735 17.7115 20.1856 17.6236C20.0977 17.5357 19.9785 17.4863 19.8542 17.4863C19.7299 17.4863 19.6106 17.5357 19.5227 17.6236C19.4348 17.7115 19.3854 17.8308 19.3854 17.9551V22.178L19.2854 22.1779M17.5007 25.0999C18.2754 25.099 19.018 24.7909 19.5659 24.2432C20.1137 23.6955 20.4219 22.9528 20.4229 22.1782V22.178V17.9551C20.4229 17.8042 20.363 17.6596 20.2563 17.5529C20.1497 17.4463 20.005 17.3863 19.8542 17.3863C19.7033 17.3863 19.5587 17.4463 19.452 17.5529C19.3454 17.6596 19.2854 17.8042 19.2854 17.9551L19.2854 22.1779M17.5007 25.0999L19.2854 22.1779" fill="#152536" stroke="#152536" stroke-width="0.2"/>
<path d="M15.6393 2.25224L15.639 2.25204C15.4851 2.11434 15.2859 2.03799 15.0793 2.0375C15.0793 2.0375 15.0793 2.0375 15.0792 2.0375L15.6393 2.25224ZM15.6393 2.25224L19.0002 5.23956C19.089 5.31854 19.1601 5.41536 19.2089 5.5237C19.2577 5.63194 19.2831 5.74926 19.2835 5.86798C19.2835 5.86808 19.2835 5.86818 19.2835 5.86828L19.2835 16.6145C19.2835 16.7654 19.3434 16.91 19.4501 17.0167C19.5568 17.1234 19.7014 17.1833 19.8523 17.1833C20.0031 17.1833 20.1478 17.1234 20.2544 17.0167C20.3611 16.91 20.421 16.7654 20.421 16.6145V5.86893C20.4211 5.5891 20.3619 5.31243 20.2472 5.05716C20.1326 4.80188 19.9652 4.5738 19.7561 4.38792C19.756 4.38791 19.756 4.38791 19.756 4.38791L16.3951 1.40011L16.3287 1.47484L16.3951 1.40011C16.0326 1.07787 15.5645 0.899911 15.0795 0.9C15.0794 0.9 15.0794 0.9 15.0794 0.9L6.67242 0.9L6.67228 0.9C5.77296 0.901279 4.91086 1.2592 4.27508 1.89525C3.6393 2.5313 3.28175 3.39355 3.28086 4.29287V4.29297V10.0056C3.28086 10.1565 3.34078 10.3011 3.44744 10.4078C3.5541 10.5145 3.69877 10.5744 3.84961 10.5744C4.00045 10.5744 4.14511 10.5145 4.25178 10.4078C4.35844 10.3011 4.41836 10.1565 4.41836 10.0056V4.29307L15.6393 2.25224Z" fill="#152536" stroke="#152536" stroke-width="0.2"/>
<path d="M17.0281 6.18838H17.028C16.5029 6.18773 15.9995 5.97886 15.6283 5.60758C15.257 5.23631 15.0481 4.73294 15.0475 4.20788L15.0475 4.20775L15.0475 1.57666C15.0475 1.42582 15.1074 1.28115 15.214 1.17449C15.3207 1.06783 15.4654 1.00791 15.6162 1.00791C15.7671 1.00791 15.9117 1.06783 16.0184 1.17449C16.125 1.28115 16.185 1.42582 16.185 1.57666L16.185 4.20765L16.185 4.20775M17.0281 6.18838V5.15088C16.778 5.15063 16.5383 5.05119 16.3615 4.87437C16.1847 4.69755 16.0852 4.45781 16.085 4.20775H16.185M17.0281 6.18838H19.8284C19.9792 6.18838 20.1239 6.12846 20.2306 6.0218C20.3372 5.91513 20.3971 5.77047 20.3971 5.61963C20.3971 5.46879 20.3372 5.32412 20.2306 5.21746C20.1239 5.1108 19.9792 5.05088 19.8284 5.05088H17.0282M17.0281 6.18838L17.0282 5.05088M16.185 4.20775C16.1852 4.43129 16.2741 4.6456 16.4322 4.80366C16.5903 4.96175 16.8046 5.05066 17.0282 5.05088M16.185 4.20775L17.0282 5.05088" fill="#152536" stroke="#152536" stroke-width="0.2"/>
<path d="M10.5857 16.6036C10.1929 16.6036 10.168 16.5989 10.132 16.5923C10.0241 16.5725 9.92666 16.5154 9.85651 16.4312C9.78637 16.3469 9.74799 16.2407 9.74805 16.1311V12.3623C9.74805 12.238 9.79743 12.1188 9.88534 12.0308C9.97325 11.9429 10.0925 11.8936 10.2168 11.8936C10.3411 11.8936 10.4603 11.9429 10.5483 12.0308C10.6362 12.1188 10.6855 12.238 10.6855 12.3623V15.6656C10.9063 15.6656 11.181 15.6656 11.4402 15.6623H11.443C11.5674 15.6619 11.6867 15.711 11.7749 15.7986C11.8631 15.8862 11.9128 16.0053 11.9132 16.1296C11.9136 16.254 11.8645 16.3733 11.7769 16.4615C11.6893 16.5497 11.5702 16.5994 11.4459 16.5998C11.047 16.6026 10.7741 16.6036 10.5857 16.6036Z" fill="#152536"/>
<path d="M14.6448 16.604C14.0087 16.604 13.3876 16.3377 12.9826 15.891C12.9411 15.8454 12.9089 15.7921 12.888 15.7341C12.8672 15.6761 12.8579 15.6145 12.8609 15.5529C12.8638 15.4913 12.8789 15.4309 12.9052 15.3752C12.9316 15.3194 12.9686 15.2694 13.0143 15.228C13.06 15.1866 13.1134 15.1546 13.1715 15.1339C13.2296 15.1131 13.2912 15.1041 13.3527 15.1072C13.4143 15.1103 13.4747 15.1255 13.5304 15.152C13.5861 15.1785 13.636 15.2157 13.6773 15.2615C13.9074 15.5151 14.2688 15.6665 14.6448 15.6665C15.0104 15.6665 15.2687 15.4476 15.3062 15.2352C15.3568 14.954 14.978 14.7801 14.8098 14.7196C14.2252 14.504 13.7059 14.2729 13.6848 14.263C13.6622 14.253 13.6404 14.2412 13.6196 14.2279C13.426 14.1028 13.2727 13.9245 13.1781 13.7143C13.0835 13.5042 13.0515 13.2712 13.0862 13.0433C13.1584 12.5408 13.5259 12.1312 14.0457 11.9746C15.077 11.6648 15.9207 12.3632 15.9577 12.3932C16.052 12.4732 16.1109 12.5873 16.1214 12.7105C16.132 12.8337 16.0935 12.9561 16.0142 13.0511C15.9349 13.146 15.8213 13.2057 15.6982 13.2173C15.5751 13.2288 15.4523 13.1912 15.3568 13.1127C15.3423 13.1015 14.8487 12.7115 14.3162 12.8723C14.0724 12.9458 14.0237 13.1094 14.0143 13.1769C14.0066 13.2229 14.0112 13.27 14.0277 13.3136C14.0442 13.3571 14.0719 13.3956 14.108 13.4249C14.2402 13.4826 14.6705 13.6691 15.136 13.8402C16.0857 14.1908 16.3243 14.8762 16.2305 15.4012C16.1045 16.0977 15.4379 16.604 14.6448 16.604Z" fill="#152536"/>
<path d="M8.38005 16.6032C8.30489 16.6033 8.23082 16.5852 8.16408 16.5506C8.09735 16.516 8.03991 16.4659 7.99662 16.4045L5.34302 12.632C5.30763 12.5816 5.2825 12.5247 5.26908 12.4646C5.25566 12.4045 5.25421 12.3424 5.26481 12.2817C5.27541 12.2211 5.29785 12.1631 5.33086 12.1111C5.36386 12.0591 5.40678 12.0142 5.45716 11.9788C5.50755 11.9434 5.56441 11.9182 5.62451 11.9048C5.6846 11.8914 5.74675 11.89 5.80741 11.9006C5.86806 11.9112 5.92603 11.9336 5.97802 11.9666C6.03 11.9996 6.07497 12.0425 6.11037 12.0929L8.76349 15.8649C8.81281 15.9351 8.84193 16.0175 8.84768 16.1031C8.85343 16.1887 8.83558 16.2742 8.79608 16.3503C8.75658 16.4265 8.69695 16.4903 8.62368 16.5349C8.55041 16.5795 8.4663 16.6031 8.38052 16.6032H8.38005Z" fill="#152536"/>
<path d="M5.53448 16.6031C5.44866 16.603 5.36453 16.5793 5.29125 16.5347C5.21797 16.49 5.15835 16.4261 5.11889 16.3499C5.07944 16.2737 5.06166 16.1881 5.06749 16.1025C5.07332 16.0169 5.10255 15.9345 5.15198 15.8644L7.80932 12.0923C7.88093 11.9907 7.98998 11.9217 8.11248 11.9004C8.23498 11.8792 8.36089 11.9075 8.46252 11.9791C8.56416 12.0507 8.63318 12.1598 8.65441 12.2823C8.67564 12.4048 8.64734 12.5307 8.57573 12.6323L5.91838 16.4044C5.87504 16.4659 5.81753 16.516 5.75071 16.5506C5.68389 16.5852 5.60972 16.6032 5.53448 16.6031Z" fill="#152536"/>
<path d="M2.64063 21.3026H3.36109H3.3625C3.51334 21.3026 3.65801 21.2427 3.76467 21.1361C3.87133 21.0294 3.93125 20.8847 3.93125 20.7339C3.93125 20.583 3.87133 20.4384 3.76467 20.3317C3.65801 20.2251 3.51334 20.1651 3.3625 20.1651H2.64063C2.48067 20.1651 2.32726 20.1016 2.21415 19.9885C2.10104 19.8754 2.0375 19.722 2.0375 19.562C2.0375 19.4021 2.10104 19.2486 2.21415 19.1355C2.32726 19.0224 2.48067 18.9589 2.64063 18.9589H4.76969C4.92053 18.9589 5.06519 18.899 5.17185 18.7923C5.27852 18.6856 5.33844 18.541 5.33844 18.3901C5.33844 18.2393 5.27852 18.0946 5.17185 17.988C5.06519 17.8813 4.92053 17.8214 4.76969 17.8214H2.64063C2.17898 17.8214 1.73625 18.0048 1.40982 18.3312C1.08339 18.6576 0.9 19.1004 0.9 19.562C0.9 20.0237 1.08339 20.4664 1.40982 20.7928C1.73625 21.1193 2.17898 21.3026 2.64063 21.3026Z" fill="#152536" stroke="#152536" stroke-width="0.2"/>
<path d="M2.66623 10.5741H2.66621C2.50625 10.5741 2.35285 10.6376 2.23974 10.7508C2.12663 10.8639 2.06309 11.0173 2.06309 11.1772V11.1775L2.04293 19.4272C2.04293 19.4273 2.04293 19.4273 2.04293 19.4273L2.04293 19.4275L1.94293 19.4272L2.66623 10.5741ZM2.66623 10.5741L19.2837 10.5708V17.8216H3.13543C2.98459 17.8216 2.83992 17.8815 2.73326 17.9882C2.6266 18.0948 2.56668 18.2395 2.56668 18.3904C2.56668 18.5412 2.6266 18.6859 2.73326 18.7925C2.83992 18.8992 2.98459 18.9591 3.13543 18.9591H19.8534C20.0042 18.9591 20.1489 18.8992 20.2556 18.7925C20.3622 18.6859 20.4222 18.5412 20.4222 18.3904V10.0049C20.4222 9.85404 20.3622 9.70938 20.2556 9.60272C20.1489 9.49605 20.0042 9.43613 19.8534 9.43613L2.66762 9.43941C2.66761 9.43941 2.6676 9.43941 2.6676 9.43941L2.66623 10.5741ZM1.47559 19.996L1.47589 19.996L1.02699 11.1772L0.926992 11.177L0.926992 11.1771L0.906836 19.427V19.4272C0.906836 19.5781 0.966758 19.7227 1.07342 19.8294C1.18008 19.9361 1.32474 19.996 1.47559 19.996Z" fill="#152536" stroke="#152536" stroke-width="0.2"/>
</svg>
