<svg width="17" height="20" viewBox="0 0 17 20" fill="none" xmlns="http://www.w3.org/2000/svg">
<path d="M6.48723 19.0314C7.74238 18.847 8.89947 18.2705 9.81338 17.3683C10.9352 16.2583 11.5549 14.7874 11.5627 13.2185L11.5471 6.24065C12.0805 6.65249 12.6649 6.99766 13.2964 7.26045C14.2731 7.6723 15.3086 7.88411 16.3715 7.88411V5.62092C15.1909 5.39342 14.1632 4.73447 13.4612 3.8088C12.5355 3.11062 11.8687 2.08297 11.6373 0.902344H9.38976V9.42558L9.38584 14.0932C9.38584 15.3405 8.56607 16.3995 7.42859 16.7721C7.09912 16.8819 6.74219 16.9329 6.36956 16.9094C5.4282 16.8584 4.60843 16.3524 4.12599 15.6111C3.30622 15.1247 2.74925 14.2422 2.73356 13.2303C2.71002 11.6535 3.99655 10.3669 5.58902 10.3669C5.90281 10.3669 6.20483 10.4179 6.48723 10.5081V8.18613C4.90261 8.19789 3.41604 8.8137 2.29818 9.92372C1.18816 11.0259 0.552736 12.5321 0.556659 14.0932C0.556659 15.4817 1.03911 16.7996 1.92948 17.8547C2.97282 18.6588 4.24758 19.0941 5.58902 19.0941C5.89104 19.0981 6.19306 19.0745 6.48723 19.0314Z" fill="black"/>
</svg>
