<svg width="938" height="147" viewBox="0 0 938 147" fill="none" xmlns="http://www.w3.org/2000/svg">
<path d="M7.54492 144L6.49023 141.281H3.05664L2.00781 144H1L4.35156 135.398H5.24805L8.57617 144H7.54492ZM6.19141 140.396L5.18945 137.695C5.16602 137.625 5.12695 137.51 5.07227 137.35C5.02148 137.189 4.96875 137.023 4.91406 136.852C4.85938 136.68 4.81445 136.541 4.7793 136.436C4.74023 136.596 4.69727 136.756 4.65039 136.916C4.60742 137.072 4.56445 137.219 4.52148 137.355C4.47852 137.488 4.44141 137.602 4.41016 137.695L3.39062 140.396H6.19141ZM16.2461 135.434V140.977C16.2461 141.582 16.123 142.121 15.877 142.594C15.6348 143.066 15.2676 143.439 14.7754 143.713C14.2832 143.982 13.666 144.117 12.9238 144.117C11.8652 144.117 11.0586 143.83 10.5039 143.256C9.95312 142.682 9.67773 141.914 9.67773 140.953V135.434H10.6797V140.982C10.6797 141.709 10.8711 142.27 11.2539 142.664C11.6406 143.059 12.2168 143.256 12.9824 143.256C13.5059 143.256 13.9336 143.162 14.2656 142.975C14.6016 142.783 14.8496 142.518 15.0098 142.178C15.1738 141.834 15.2559 141.438 15.2559 140.988V135.434H16.2461ZM22.1816 139.512H25.1758V143.666C24.7266 143.818 24.2637 143.932 23.7871 144.006C23.3145 144.08 22.7852 144.117 22.1992 144.117C21.3086 144.117 20.5566 143.939 19.9434 143.584C19.334 143.229 18.8711 142.723 18.5547 142.066C18.2383 141.406 18.0801 140.623 18.0801 139.717C18.0801 138.83 18.2539 138.057 18.6016 137.396C18.9531 136.736 19.459 136.225 20.1191 135.861C20.7832 135.494 21.5801 135.311 22.5098 135.311C22.9863 135.311 23.4375 135.355 23.8633 135.445C24.293 135.531 24.6914 135.654 25.0586 135.814L24.6777 136.682C24.3613 136.545 24.0117 136.428 23.6289 136.33C23.25 136.232 22.8574 136.184 22.4512 136.184C21.752 136.184 21.1523 136.328 20.6523 136.617C20.1562 136.906 19.7754 137.314 19.5098 137.842C19.248 138.369 19.1172 138.994 19.1172 139.717C19.1172 140.432 19.2324 141.055 19.4629 141.586C19.6934 142.113 20.0527 142.523 20.541 142.816C21.0293 143.109 21.6582 143.256 22.4277 143.256C22.8145 143.256 23.1465 143.234 23.4238 143.191C23.7012 143.145 23.9531 143.09 24.1797 143.027V140.402H22.1816V139.512Z" fill="#68717A"/>
<path d="M141.006 141.721C141.006 142.229 140.879 142.662 140.625 143.021C140.375 143.377 140.023 143.648 139.57 143.836C139.117 144.023 138.584 144.117 137.971 144.117C137.646 144.117 137.34 144.102 137.051 144.07C136.762 144.039 136.496 143.994 136.254 143.936C136.012 143.877 135.799 143.805 135.615 143.719V142.764C135.908 142.885 136.266 142.998 136.688 143.104C137.109 143.205 137.551 143.256 138.012 143.256C138.441 143.256 138.805 143.199 139.102 143.086C139.398 142.969 139.623 142.803 139.775 142.588C139.932 142.369 140.01 142.107 140.01 141.803C140.01 141.51 139.945 141.266 139.816 141.07C139.688 140.871 139.473 140.691 139.172 140.531C138.875 140.367 138.469 140.193 137.953 140.01C137.59 139.881 137.27 139.74 136.992 139.588C136.715 139.432 136.482 139.256 136.295 139.061C136.107 138.865 135.965 138.639 135.867 138.381C135.773 138.123 135.727 137.828 135.727 137.496C135.727 137.039 135.842 136.648 136.072 136.324C136.307 135.996 136.629 135.746 137.039 135.574C137.453 135.398 137.928 135.311 138.463 135.311C138.92 135.311 139.342 135.354 139.729 135.439C140.119 135.525 140.477 135.641 140.801 135.785L140.49 136.641C140.182 136.512 139.854 136.404 139.506 136.318C139.162 136.232 138.807 136.189 138.439 136.189C138.072 136.189 137.762 136.244 137.508 136.354C137.258 136.459 137.066 136.609 136.934 136.805C136.801 137 136.734 137.232 136.734 137.502C136.734 137.803 136.797 138.053 136.922 138.252C137.051 138.451 137.254 138.629 137.531 138.785C137.812 138.938 138.184 139.098 138.645 139.266C139.148 139.449 139.576 139.645 139.928 139.852C140.279 140.055 140.547 140.305 140.73 140.602C140.914 140.895 141.006 141.268 141.006 141.721ZM147.527 144H142.758V135.434H147.527V136.312H143.754V139.084H147.311V139.951H143.754V143.121H147.527V144ZM151.664 135.434C152.77 135.434 153.576 135.65 154.084 136.084C154.596 136.514 154.852 137.131 154.852 137.936C154.852 138.299 154.791 138.645 154.67 138.973C154.553 139.297 154.361 139.584 154.096 139.834C153.83 140.08 153.48 140.275 153.047 140.42C152.617 140.561 152.09 140.631 151.465 140.631H150.422V144H149.426V135.434H151.664ZM151.57 136.283H150.422V139.775H151.354C151.9 139.775 152.355 139.717 152.719 139.6C153.086 139.482 153.361 139.293 153.545 139.031C153.729 138.766 153.82 138.414 153.82 137.977C153.82 137.406 153.639 136.982 153.275 136.705C152.912 136.424 152.344 136.283 151.57 136.283Z" fill="#68717A"/>
<path d="M272.602 139.705C272.602 140.365 272.518 140.967 272.35 141.51C272.182 142.049 271.932 142.514 271.6 142.904C271.271 143.291 270.863 143.59 270.375 143.801C269.887 144.012 269.32 144.117 268.676 144.117C268.012 144.117 267.432 144.012 266.936 143.801C266.443 143.59 266.033 143.289 265.705 142.898C265.381 142.508 265.137 142.041 264.973 141.498C264.812 140.955 264.732 140.354 264.732 139.693C264.732 138.818 264.877 138.051 265.166 137.391C265.455 136.73 265.893 136.217 266.479 135.85C267.068 135.482 267.807 135.299 268.693 135.299C269.541 135.299 270.254 135.48 270.832 135.844C271.414 136.207 271.854 136.719 272.15 137.379C272.451 138.035 272.602 138.811 272.602 139.705ZM265.781 139.705C265.781 140.432 265.885 141.061 266.092 141.592C266.299 142.123 266.615 142.533 267.041 142.822C267.471 143.111 268.016 143.256 268.676 143.256C269.34 143.256 269.883 143.111 270.305 142.822C270.73 142.533 271.045 142.123 271.248 141.592C271.451 141.061 271.553 140.432 271.553 139.705C271.553 138.6 271.32 137.736 270.855 137.115C270.395 136.49 269.674 136.178 268.693 136.178C268.029 136.178 267.482 136.32 267.053 136.605C266.623 136.891 266.303 137.297 266.092 137.824C265.885 138.348 265.781 138.975 265.781 139.705ZM278.174 136.189C277.701 136.189 277.275 136.271 276.896 136.436C276.521 136.596 276.201 136.83 275.936 137.139C275.674 137.443 275.473 137.812 275.332 138.246C275.191 138.68 275.121 139.168 275.121 139.711C275.121 140.43 275.232 141.055 275.455 141.586C275.682 142.113 276.018 142.521 276.463 142.811C276.912 143.1 277.473 143.244 278.145 143.244C278.527 143.244 278.887 143.213 279.223 143.15C279.562 143.084 279.893 143.002 280.213 142.904V143.771C279.9 143.889 279.572 143.975 279.229 144.029C278.885 144.088 278.477 144.117 278.004 144.117C277.133 144.117 276.404 143.938 275.818 143.578C275.236 143.215 274.799 142.703 274.506 142.043C274.217 141.383 274.072 140.604 274.072 139.705C274.072 139.057 274.162 138.465 274.342 137.93C274.525 137.391 274.791 136.926 275.139 136.535C275.49 136.145 275.92 135.844 276.428 135.633C276.939 135.418 277.525 135.311 278.186 135.311C278.619 135.311 279.037 135.354 279.439 135.439C279.842 135.525 280.205 135.648 280.529 135.809L280.131 136.652C279.857 136.527 279.557 136.42 279.229 136.33C278.904 136.236 278.553 136.189 278.174 136.189ZM284.701 144H283.699V136.312H281.004V135.434H287.385V136.312H284.701V144Z" fill="#68717A"/>
<path d="M403.869 144H402.721L398.051 136.805H398.004C398.016 136.996 398.029 137.215 398.045 137.461C398.061 137.703 398.072 137.963 398.08 138.24C398.092 138.514 398.098 138.793 398.098 139.078V144H397.172V135.434H398.314L402.967 142.605H403.008C403 142.469 402.99 142.275 402.979 142.025C402.967 141.771 402.955 141.5 402.943 141.211C402.936 140.918 402.932 140.646 402.932 140.396V135.434H403.869V144ZM413.637 139.705C413.637 140.365 413.553 140.967 413.385 141.51C413.217 142.049 412.967 142.514 412.635 142.904C412.307 143.291 411.898 143.59 411.41 143.801C410.922 144.012 410.355 144.117 409.711 144.117C409.047 144.117 408.467 144.012 407.971 143.801C407.479 143.59 407.068 143.289 406.74 142.898C406.416 142.508 406.172 142.041 406.008 141.498C405.848 140.955 405.768 140.354 405.768 139.693C405.768 138.818 405.912 138.051 406.201 137.391C406.49 136.73 406.928 136.217 407.514 135.85C408.104 135.482 408.842 135.299 409.729 135.299C410.576 135.299 411.289 135.48 411.867 135.844C412.449 136.207 412.889 136.719 413.186 137.379C413.486 138.035 413.637 138.811 413.637 139.705ZM406.816 139.705C406.816 140.432 406.92 141.061 407.127 141.592C407.334 142.123 407.65 142.533 408.076 142.822C408.506 143.111 409.051 143.256 409.711 143.256C410.375 143.256 410.918 143.111 411.34 142.822C411.766 142.533 412.08 142.123 412.283 141.592C412.486 141.061 412.588 140.432 412.588 139.705C412.588 138.6 412.355 137.736 411.891 137.115C411.43 136.49 410.709 136.178 409.729 136.178C409.064 136.178 408.518 136.32 408.088 136.605C407.658 136.891 407.338 137.297 407.127 137.824C406.92 138.348 406.816 138.975 406.816 139.705ZM421.529 135.434L418.453 144H417.451L414.375 135.434H415.418L417.422 141.076C417.504 141.303 417.576 141.52 417.639 141.727C417.705 141.934 417.764 142.133 417.814 142.324C417.865 142.516 417.91 142.701 417.949 142.881C417.988 142.701 418.033 142.516 418.084 142.324C418.135 142.129 418.193 141.928 418.26 141.721C418.326 141.51 418.4 141.289 418.482 141.059L420.475 135.434H421.529Z" fill="#68717A"/>
<path d="M537.975 139.635C537.975 140.6 537.799 141.406 537.447 142.055C537.096 142.699 536.586 143.186 535.918 143.514C535.254 143.838 534.447 144 533.498 144H531.172V135.434H533.756C534.627 135.434 535.377 135.594 536.006 135.914C536.635 136.23 537.119 136.701 537.459 137.326C537.803 137.947 537.975 138.717 537.975 139.635ZM536.926 139.67C536.926 138.9 536.797 138.266 536.539 137.766C536.285 137.266 535.91 136.895 535.414 136.652C534.922 136.406 534.318 136.283 533.604 136.283H532.168V143.145H533.381C534.561 143.145 535.445 142.854 536.035 142.271C536.629 141.689 536.926 140.822 536.926 139.67ZM544.648 144H539.879V135.434H544.648V136.312H540.875V139.084H544.432V139.951H540.875V143.121H544.648V144ZM550.209 136.189C549.736 136.189 549.311 136.271 548.932 136.436C548.557 136.596 548.236 136.83 547.971 137.139C547.709 137.443 547.508 137.812 547.367 138.246C547.227 138.68 547.156 139.168 547.156 139.711C547.156 140.43 547.268 141.055 547.49 141.586C547.717 142.113 548.053 142.521 548.498 142.811C548.947 143.1 549.508 143.244 550.18 143.244C550.562 143.244 550.922 143.213 551.258 143.15C551.598 143.084 551.928 143.002 552.248 142.904V143.771C551.936 143.889 551.607 143.975 551.264 144.029C550.92 144.088 550.512 144.117 550.039 144.117C549.168 144.117 548.439 143.938 547.854 143.578C547.271 143.215 546.834 142.703 546.541 142.043C546.252 141.383 546.107 140.604 546.107 139.705C546.107 139.057 546.197 138.465 546.377 137.93C546.561 137.391 546.826 136.926 547.174 136.535C547.525 136.145 547.955 135.844 548.463 135.633C548.975 135.418 549.561 135.311 550.221 135.311C550.654 135.311 551.072 135.354 551.475 135.439C551.877 135.525 552.24 135.648 552.564 135.809L552.166 136.652C551.893 136.527 551.592 136.42 551.264 136.33C550.939 136.236 550.588 136.189 550.209 136.189Z" fill="#68717A"/>
<path d="M660.936 146.256C660.74 146.256 660.568 146.242 660.42 146.215C660.271 146.188 660.145 146.15 660.039 146.104V145.254C660.164 145.293 660.299 145.322 660.443 145.342C660.588 145.365 660.744 145.377 660.912 145.377C661.131 145.377 661.332 145.334 661.516 145.248C661.699 145.162 661.846 145.016 661.955 144.809C662.064 144.602 662.119 144.316 662.119 143.953V135.434H663.121V143.877C663.121 144.412 663.031 144.855 662.852 145.207C662.676 145.559 662.424 145.82 662.096 145.992C661.771 146.168 661.385 146.256 660.936 146.256ZM670.768 144L669.713 141.281H666.279L665.23 144H664.223L667.574 135.398H668.471L671.799 144H670.768ZM669.414 140.396L668.412 137.695C668.389 137.625 668.35 137.51 668.295 137.35C668.244 137.189 668.191 137.023 668.137 136.852C668.082 136.68 668.037 136.541 668.002 136.436C667.963 136.596 667.92 136.756 667.873 136.916C667.83 137.072 667.787 137.219 667.744 137.355C667.701 137.488 667.664 137.602 667.633 137.695L666.613 140.396H669.414ZM679.686 144H678.537L673.867 136.805H673.82C673.832 136.996 673.846 137.215 673.861 137.461C673.877 137.703 673.889 137.963 673.896 138.24C673.908 138.514 673.914 138.793 673.914 139.078V144H672.988V135.434H674.131L678.783 142.605H678.824C678.816 142.469 678.807 142.275 678.795 142.025C678.783 141.771 678.771 141.5 678.76 141.211C678.752 140.918 678.748 140.646 678.748 140.396V135.434H679.686V144Z" fill="#68717A"/>
<path d="M791.168 144H790.172V135.434H794.941V136.312H791.168V139.453H794.713V140.326H791.168V144ZM801.141 144H796.371V135.434H801.141V136.312H797.367V139.084H800.924V139.951H797.367V143.121H801.141V144ZM803.039 135.434H805.465C806.535 135.434 807.34 135.594 807.879 135.914C808.418 136.234 808.688 136.779 808.688 137.549C808.688 137.881 808.623 138.18 808.494 138.445C808.369 138.707 808.186 138.924 807.943 139.096C807.701 139.268 807.402 139.387 807.047 139.453V139.512C807.422 139.57 807.754 139.678 808.043 139.834C808.332 139.99 808.559 140.209 808.723 140.49C808.887 140.771 808.969 141.129 808.969 141.562C808.969 142.09 808.846 142.535 808.6 142.898C808.357 143.262 808.014 143.537 807.568 143.725C807.123 143.908 806.596 144 805.986 144H803.039V135.434ZM804.035 139.107H805.676C806.422 139.107 806.938 138.984 807.223 138.738C807.512 138.492 807.656 138.133 807.656 137.66C807.656 137.172 807.484 136.82 807.141 136.605C806.801 136.391 806.258 136.283 805.512 136.283H804.035V139.107ZM804.035 139.945V143.15H805.816C806.578 143.15 807.117 143.002 807.434 142.705C807.75 142.404 807.908 142 807.908 141.492C807.908 141.168 807.836 140.891 807.691 140.66C807.551 140.43 807.32 140.254 807 140.133C806.684 140.008 806.26 139.945 805.729 139.945H804.035Z" fill="#68717A"/>
<path d="M916.939 144L914.062 136.418H914.016C914.031 136.578 914.045 136.773 914.057 137.004C914.068 137.234 914.078 137.486 914.086 137.76C914.094 138.029 914.098 138.305 914.098 138.586V144H913.172V135.434H914.648L917.361 142.559H917.402L920.156 135.434H921.621V144H920.637V138.516C920.637 138.262 920.641 138.008 920.648 137.754C920.656 137.496 920.666 137.254 920.678 137.027C920.689 136.797 920.701 136.598 920.713 136.43H920.666L917.754 144H916.939ZM929.338 144L928.283 141.281H924.85L923.801 144H922.793L926.145 135.398H927.041L930.369 144H929.338ZM927.984 140.396L926.982 137.695C926.959 137.625 926.92 137.51 926.865 137.35C926.814 137.189 926.762 137.023 926.707 136.852C926.652 136.68 926.607 136.541 926.572 136.436C926.533 136.596 926.49 136.756 926.443 136.916C926.4 137.072 926.357 137.219 926.314 137.355C926.271 137.488 926.234 137.602 926.203 137.695L925.184 140.396H927.984ZM933.873 135.434C934.576 135.434 935.156 135.521 935.613 135.697C936.074 135.869 936.418 136.133 936.645 136.488C936.871 136.844 936.984 137.297 936.984 137.848C936.984 138.301 936.902 138.68 936.738 138.984C936.574 139.285 936.359 139.529 936.094 139.717C935.828 139.904 935.545 140.049 935.244 140.15L937.594 144H936.434L934.336 140.426H932.555V144H931.559V135.434H933.873ZM933.814 136.295H932.555V139.582H933.914C934.613 139.582 935.127 139.439 935.455 139.154C935.787 138.869 935.953 138.449 935.953 137.895C935.953 137.312 935.777 136.9 935.426 136.658C935.078 136.416 934.541 136.295 933.814 136.295Z" fill="#68717A"/>
<line x1="1" y1="8.5" x2="936" y2="8.5" stroke="#EFF0F4"/>
<line x1="1" y1="48.5" x2="936" y2="48.5" stroke="#EFF0F4"/>
<line x1="1" y1="88.5" x2="936" y2="88.5" stroke="#EFF0F4"/>
<line x1="1" y1="128.5" x2="936" y2="128.5" stroke="#EFF0F4"/>
<path d="M36.3453 64C36.3453 64 11.8392 61.5 1 67.5V128H936V11C936 11 930.816 13.5 926.103 14.5C921.391 15.5 906.781 21.5 900.183 24.5C893.586 27.5 881.804 27 874.735 32C867.666 37 858.24 39 848.344 36.5C838.447 34 828.079 32 820.068 32H792.263C786.136 32 770.584 29.5 762.101 27C753.618 24.5 738.067 24.5 731.469 24.5H700.365C692.825 24.5 674.445 27 667.376 27C660.307 27 644.284 29.5 637.686 32C631.088 34.5 618.364 36.5 609.881 39C601.398 41.5 591.03 44.5 579.72 44.5C568.409 44.5 554.271 47.5 546.26 47.5H513.742C504.788 47.5 492.535 44.5 483.109 44.5H452.006C445.879 44.5 433.626 47.5 423.729 47.5C413.833 47.5 404.407 51 391.683 51C378.959 51 376.131 44.5 367.177 44.5C358.223 44.5 349.269 55 340.315 55C331.36 55 316.751 51 309.211 51H279.049C270.095 51 256.428 55 250.302 55C244.175 55 226.267 57.5 219.669 57.5C213.072 57.5 198.462 64 190.451 61.5C182.439 59 175.841 57.5 164.059 57.5H139.082C132.484 57.5 121.645 61.5 113.634 64C105.622 66.5 96.1966 67.5 87.7137 67.5H62.2651C51.8971 67.5 44.8281 64 36.3453 64Z" fill="url(#paint0_linear_3318_5750)"/>
<path d="M1 68C11.8392 61.9469 36.3453 64.469 36.3453 64.469C44.8281 64.469 51.8972 68 62.2651 68C72.6331 68 79.2308 68 87.7137 68C96.1966 68 105.622 66.9911 113.634 64.469C121.645 61.9469 132.484 57.9115 139.082 57.9115C145.68 57.9115 164.059 57.9115 164.059 57.9115C175.841 57.9115 182.439 59.4248 190.451 61.9469C198.462 64.469 213.072 57.9115 219.669 57.9115C226.267 57.9115 244.175 55.3894 250.302 55.3894C256.428 55.3894 270.095 51.354 279.049 51.354C288.004 51.354 301.67 51.354 309.211 51.354C316.751 51.354 331.36 55.3894 340.315 55.3894C349.269 55.3894 358.223 44.7965 367.177 44.7965C376.131 44.7965 378.959 51.354 391.683 51.354C404.407 51.354 413.833 47.823 423.729 47.823C433.626 47.823 445.879 44.7965 452.006 44.7965C458.132 44.7965 473.684 44.7965 483.109 44.7965C492.535 44.7965 504.788 47.823 513.742 47.823C522.696 47.823 538.248 47.823 546.26 47.823C554.271 47.823 568.409 44.7965 579.72 44.7965C591.03 44.7965 601.398 41.7699 609.881 39.2478C618.364 36.7257 631.088 34.708 637.686 32.1858C644.284 29.6637 660.307 27.1416 667.376 27.1416C674.445 27.1416 692.825 24.6195 700.365 24.6195C707.905 24.6195 724.871 24.6195 731.469 24.6195C738.067 24.6195 753.618 24.6195 762.101 27.1416C770.584 29.6637 786.136 32.1858 792.263 32.1858C798.389 32.1858 812.056 32.1858 820.068 32.1858C828.079 32.1858 838.447 34.2035 848.344 36.7257C858.24 39.2478 867.666 37.2301 874.735 32.1858C881.804 27.1416 893.586 27.646 900.183 24.6195C906.781 21.5929 921.391 15.5398 926.103 14.531C930.816 13.5221 936 11 936 11" stroke="#66A8F1" stroke-width="2"/>
<line x1="800" y1="5" x2="800" y2="128" stroke="#152536" stroke-width="2" stroke-dasharray="2 2"/>
<rect x="779" width="41" height="16" rx="8" fill="#262738"/>
<path d="M796.112 6.45801C796.112 6.78678 796.044 7.07161 795.907 7.3125C795.771 7.55339 795.585 7.75033 795.351 7.90332C795.119 8.05632 794.859 8.16862 794.569 8.24023V8.26953C795.142 8.34115 795.577 8.51693 795.873 8.79688C796.173 9.07682 796.322 9.45117 796.322 9.91992C796.322 10.3366 796.22 10.7093 796.015 11.0381C795.813 11.3669 795.5 11.6257 795.077 11.8145C794.654 12.0033 794.109 12.0977 793.441 12.0977C793.048 12.0977 792.68 12.0651 792.338 12C791.999 11.9382 791.68 11.8421 791.381 11.7119V10.4277C791.687 10.584 792.007 10.7028 792.343 10.7842C792.678 10.8623 792.991 10.9014 793.28 10.9014C793.821 10.9014 794.198 10.8086 794.413 10.623C794.631 10.4342 794.74 10.1706 794.74 9.83203C794.74 9.63346 794.69 9.46582 794.589 9.3291C794.488 9.19238 794.312 9.08822 794.062 9.0166C793.814 8.94499 793.467 8.90918 793.021 8.90918H792.479V7.75195H793.031C793.471 7.75195 793.804 7.71126 794.032 7.62988C794.263 7.54525 794.42 7.43132 794.501 7.28809C794.586 7.1416 794.628 6.97559 794.628 6.79004C794.628 6.53613 794.55 6.33757 794.394 6.19434C794.237 6.05111 793.977 5.97949 793.612 5.97949C793.384 5.97949 793.176 6.00879 792.987 6.06738C792.802 6.12272 792.634 6.19108 792.484 6.27246C792.335 6.35059 792.203 6.42708 792.089 6.50195L791.391 5.46191C791.671 5.26009 791.998 5.09245 792.372 4.95898C792.75 4.82552 793.199 4.75879 793.72 4.75879C794.455 4.75879 795.038 4.9069 795.468 5.20312C795.897 5.49935 796.112 5.91764 796.112 6.45801ZM799.584 4.76855C799.994 4.76855 800.372 4.83203 800.717 4.95898C801.065 5.08594 801.343 5.27799 801.552 5.53516C801.76 5.78906 801.864 6.10807 801.864 6.49219C801.864 6.77865 801.807 7.0293 801.693 7.24414C801.583 7.45898 801.431 7.64779 801.239 7.81055C801.047 7.97005 800.829 8.11003 800.585 8.23047C800.839 8.36393 801.08 8.52018 801.308 8.69922C801.535 8.875 801.721 9.08171 801.864 9.31934C802.011 9.55697 802.084 9.83366 802.084 10.1494C802.084 10.5465 801.978 10.8916 801.767 11.1846C801.555 11.4743 801.262 11.6989 800.888 11.8584C800.513 12.0179 800.079 12.0977 799.584 12.0977C799.05 12.0977 798.596 12.0212 798.222 11.8682C797.847 11.7152 797.562 11.4971 797.367 11.2139C797.172 10.9274 797.074 10.5856 797.074 10.1885C797.074 9.86296 797.134 9.57975 797.255 9.33887C797.379 9.09798 797.545 8.89128 797.753 8.71875C797.961 8.54297 798.191 8.39323 798.441 8.26953C798.23 8.13607 798.036 7.9847 797.86 7.81543C797.688 7.64616 797.549 7.45247 797.445 7.23438C797.344 7.01628 797.294 6.76562 797.294 6.48242C797.294 6.10482 797.4 5.78906 797.611 5.53516C797.826 5.28125 798.108 5.09082 798.456 4.96387C798.804 4.83366 799.18 4.76855 799.584 4.76855ZM798.471 10.1006C798.471 10.3577 798.562 10.571 798.744 10.7402C798.93 10.9062 799.203 10.9893 799.564 10.9893C799.939 10.9893 800.219 10.9095 800.404 10.75C800.59 10.5872 800.683 10.374 800.683 10.1104C800.683 9.92806 800.629 9.76855 800.521 9.63184C800.417 9.49512 800.285 9.37305 800.126 9.26562C799.966 9.15495 799.805 9.05241 799.643 8.95801L799.511 8.88965C799.302 8.98405 799.12 9.08984 798.964 9.20703C798.811 9.32422 798.69 9.45605 798.603 9.60254C798.515 9.74902 798.471 9.91504 798.471 10.1006ZM799.574 5.87207C799.327 5.87207 799.122 5.93555 798.959 6.0625C798.796 6.18945 798.715 6.36849 798.715 6.59961C798.715 6.76237 798.754 6.9056 798.832 7.0293C798.913 7.14974 799.019 7.25553 799.149 7.34668C799.283 7.43783 799.428 7.52246 799.584 7.60059C799.734 7.52897 799.874 7.44922 800.004 7.36133C800.134 7.27344 800.24 7.16764 800.321 7.04395C800.403 6.92025 800.443 6.77214 800.443 6.59961C800.443 6.36849 800.36 6.18945 800.194 6.0625C800.032 5.93555 799.825 5.87207 799.574 5.87207ZM807.807 7.9082C807.807 8.31836 807.776 8.72526 807.714 9.12891C807.655 9.53255 807.551 9.91341 807.401 10.2715C807.252 10.6263 807.042 10.9421 806.771 11.2188C806.501 11.4922 806.158 11.707 805.741 11.8633C805.325 12.0195 804.82 12.0977 804.228 12.0977C804.088 12.0977 803.923 12.0911 803.734 12.0781C803.546 12.0684 803.389 12.0521 803.266 12.0293V10.8184C803.396 10.8509 803.534 10.877 803.681 10.8965C803.827 10.9128 803.975 10.9209 804.125 10.9209C804.721 10.9209 805.18 10.8265 805.502 10.6377C805.827 10.4489 806.055 10.1868 806.186 9.85156C806.319 9.51628 806.396 9.12891 806.415 8.68945H806.356C806.262 8.8457 806.15 8.9873 806.02 9.11426C805.893 9.23796 805.73 9.33724 805.531 9.41211C805.333 9.48372 805.08 9.51953 804.774 9.51953C804.368 9.51953 804.013 9.43164 803.71 9.25586C803.41 9.07682 803.178 8.81966 803.012 8.48438C802.849 8.14583 802.768 7.7373 802.768 7.25879C802.768 6.74121 802.865 6.2985 803.061 5.93066C803.259 5.55957 803.541 5.27474 803.905 5.07617C804.27 4.8776 804.7 4.77832 805.194 4.77832C805.559 4.77832 805.899 4.8418 806.215 4.96875C806.531 5.09245 806.807 5.28288 807.045 5.54004C807.286 5.7972 807.473 6.12272 807.606 6.5166C807.74 6.91048 807.807 7.37435 807.807 7.9082ZM805.224 5.98926C804.931 5.98926 804.691 6.09017 804.506 6.29199C804.32 6.49382 804.228 6.80957 804.228 7.23926C804.228 7.58431 804.307 7.85775 804.467 8.05957C804.626 8.26139 804.869 8.3623 805.194 8.3623C805.419 8.3623 805.614 8.31348 805.78 8.21582C805.946 8.11491 806.075 7.98958 806.166 7.83984C806.26 7.68685 806.308 7.5306 806.308 7.37109C806.308 7.20508 806.285 7.04069 806.239 6.87793C806.194 6.71517 806.125 6.56706 806.034 6.43359C805.943 6.30013 805.829 6.19271 805.692 6.11133C805.559 6.02995 805.403 5.98926 805.224 5.98926Z" fill="white"/>
<defs>
<linearGradient id="paint0_linear_3318_5750" x1="468.5" y1="11" x2="468.5" y2="128" gradientUnits="userSpaceOnUse">
<stop stop-color="#66A8F1"/>
<stop offset="1" stop-color="#D9D9D9" stop-opacity="0"/>
</linearGradient>
</defs>
</svg>
