<svg width="29" height="30" viewBox="0 0 29 30" fill="none" xmlns="http://www.w3.org/2000/svg">
<path d="M6.35125 20.6694C7.71975 20.6694 8.83042 21.7801 8.83042 23.1486V26.6874C8.83042 27.3449 8.56922 27.9755 8.10429 28.4405C7.63935 28.9054 7.00877 29.1666 6.35125 29.1666H2.81242C2.1549 29.1666 1.52432 28.9054 1.05938 28.4405C0.594449 27.9755 0.333252 27.3449 0.333252 26.6874V23.1486C0.333252 21.7801 1.44392 20.6694 2.81242 20.6694H6.35125ZM11.3096 23.4999H27.6083C27.8775 23.5 28.1367 23.6023 28.3334 23.7861C28.5301 23.9698 28.6497 24.2214 28.668 24.49C28.6864 24.7586 28.6021 25.0241 28.4322 25.2329C28.2623 25.4418 28.0195 25.5783 27.7528 25.615L27.6083 25.6249H11.3096C11.0404 25.6248 10.7813 25.5226 10.5845 25.3388C10.3878 25.155 10.2682 24.9034 10.2499 24.6348C10.2315 24.3663 10.3158 24.1007 10.4857 23.8919C10.6556 23.6831 10.8984 23.5465 11.1651 23.5098L11.3096 23.4999H27.6083H11.3096ZM6.35125 10.7513C7.71975 10.7513 8.83042 11.862 8.83042 13.2305V16.7693C8.83042 17.4269 8.56922 18.0574 8.10429 18.5224C7.63935 18.9873 7.00877 19.2485 6.35125 19.2485H2.81242C2.1549 19.2485 1.52432 18.9873 1.05938 18.5224C0.594449 18.0574 0.333252 17.4269 0.333252 16.7693V13.2291C0.333252 11.8606 1.44392 10.7499 2.81242 10.7499H6.35125V10.7513ZM11.3096 13.5833H27.6083C27.8775 13.5833 28.1367 13.6856 28.3334 13.8694C28.5301 14.0532 28.6497 14.3048 28.668 14.5733C28.6864 14.8419 28.6021 15.1074 28.4322 15.3163C28.2623 15.5251 28.0195 15.6616 27.7528 15.6983L27.6083 15.7083H11.3096C11.0404 15.7082 10.7813 15.6059 10.5845 15.4221C10.3878 15.2383 10.2682 14.9867 10.2499 14.7182C10.2315 14.4496 10.3158 14.1841 10.4857 13.9752C10.6556 13.7664 10.8984 13.6299 11.1651 13.5932L11.3096 13.5833H27.6083H11.3096ZM6.35125 0.833252C7.71975 0.833252 8.83042 1.94392 8.83042 3.31242V6.85125C8.83042 7.50877 8.56922 8.13936 8.10429 8.60429C7.63935 9.06922 7.00877 9.33042 6.35125 9.33042H2.81242C2.1549 9.33042 1.52432 9.06922 1.05938 8.60429C0.594449 8.13936 0.333252 7.50877 0.333252 6.85125V3.31242C0.333252 1.94392 1.44392 0.833252 2.81242 0.833252H6.35125ZM11.3096 3.66659H27.6083C27.8775 3.66667 28.1367 3.76893 28.3334 3.95271C28.5301 4.1365 28.6497 4.38809 28.668 4.65667C28.6864 4.92524 28.6021 5.19077 28.4322 5.39959C28.2623 5.60842 28.0195 5.74498 27.7528 5.78167L27.6083 5.79159H11.3096C11.0404 5.7915 10.7813 5.68924 10.5845 5.50546C10.3878 5.32168 10.2682 5.07008 10.2499 4.80151C10.2315 4.53293 10.3158 4.26741 10.4857 4.05858C10.6556 3.84975 10.8984 3.7132 11.1651 3.6765L11.3096 3.66659H27.6083H11.3096Z" fill="white"/>
</svg>
