<svg width="34" height="34" viewBox="0 0 34 34" fill="none" xmlns="http://www.w3.org/2000/svg">
<circle cx="17" cy="17" r="17" fill="#F3F3F3"/>
<path d="M26 16.2217V21.8213C25.9765 22.4188 25.7052 22.9833 25.2453 23.3913C24.7854 23.7994 24.1743 24.0178 23.5455 23.9989H10.4545C9.82575 24.0178 9.21463 23.7994 8.75471 23.3913C8.2948 22.9833 8.02347 22.4188 8 21.8213V16.2217C8 16.0155 8.0862 15.8176 8.23964 15.6718C8.39308 15.5259 8.60119 15.444 8.81818 15.444C9.03518 15.444 9.24328 15.5259 9.39672 15.6718C9.55016 15.8176 9.63636 16.0155 9.63636 16.2217V21.8213C9.66292 22.0049 9.7626 22.1718 9.91485 22.2875C10.0671 22.4033 10.2603 22.4591 10.4545 22.4434H23.5455C23.7397 22.4591 23.9329 22.4033 24.0852 22.2875C24.2374 22.1718 24.3371 22.0049 24.3636 21.8213V16.2217C24.3636 16.0155 24.4498 15.8176 24.6033 15.6718C24.7567 15.5259 24.9648 15.444 25.1818 15.444C25.3988 15.444 25.6069 15.5259 25.7604 15.6718C25.9138 15.8176 26 16.0155 26 16.2217ZM15.0282 13.7564L16.1818 12.652V19.3326C16.1818 19.5388 16.268 19.7367 16.4215 19.8825C16.5749 20.0284 16.783 20.1103 17 20.1103C17.217 20.1103 17.4251 20.0284 17.5785 19.8825C17.732 19.7367 17.8182 19.5388 17.8182 19.3326V12.652L18.9718 13.7564C19.0479 13.8293 19.1384 13.8871 19.2381 13.9266C19.3378 13.9661 19.4447 13.9864 19.5527 13.9864C19.6607 13.9864 19.7677 13.9661 19.8674 13.9266C19.9671 13.8871 20.0576 13.8293 20.1336 13.7564C20.2095 13.6837 20.2695 13.5975 20.3102 13.5028C20.3509 13.408 20.3715 13.3065 20.3709 13.2042C20.3715 13.1018 20.3509 13.0004 20.3102 12.9056C20.2695 12.8109 20.2095 12.7247 20.1336 12.652L17.5809 10.2255C17.4408 10.0926 17.2548 10.0125 17.0573 10H16.9018C16.7381 10.0185 16.5841 10.0835 16.46 10.1867H16.4191L13.8664 12.652C13.7123 12.7985 13.6257 12.9971 13.6257 13.2042C13.6257 13.4113 13.7123 13.6099 13.8664 13.7564C14.0204 13.9028 14.2294 13.9851 14.4473 13.9851C14.6652 13.9851 14.8741 13.9028 15.0282 13.7564Z" fill="#152536"/>
</svg>
