<svg width="20" height="19" viewBox="0 0 20 19" fill="none" xmlns="http://www.w3.org/2000/svg">
<path d="M3.90625 1.04215H7.51458C7.71252 1.04221 7.90306 1.11741 8.0477 1.25254C8.19234 1.38767 8.28029 1.57267 8.29378 1.77015C8.30727 1.96763 8.2453 2.16287 8.12038 2.31642C7.99547 2.46997 7.81693 2.57038 7.62083 2.59736L7.51458 2.60465H3.90625C3.31237 2.60458 2.7406 2.82996 2.30651 3.23525C1.87241 3.64053 1.60836 4.1955 1.56771 4.78799L1.5625 4.9484V14.8442C1.56243 15.4381 1.78781 16.0099 2.19309 16.444C2.59838 16.8781 3.15334 17.1421 3.74583 17.1828L3.90625 17.188H13.8021C14.396 17.1881 14.9677 16.9627 15.4018 16.5574C15.8359 16.1521 16.1 15.5971 16.1406 15.0047L16.1458 14.8442V14.3255C16.1441 14.1262 16.2186 13.9339 16.354 13.7877C16.4894 13.6415 16.6756 13.5526 16.8744 13.5392C17.0732 13.5258 17.2696 13.5888 17.4235 13.7154C17.5773 13.842 17.677 14.0226 17.7021 14.2203L17.7083 14.3255V14.8442C17.7084 15.8442 17.325 16.8062 16.637 17.5319C15.9491 18.2577 15.009 18.6919 14.0104 18.7453L13.8021 18.7505H3.90625C2.90625 18.7506 1.9443 18.3672 1.21856 17.6792C0.49281 16.9912 0.0585416 16.0511 0.00520847 15.0526L1.58057e-08 14.8442V4.9484C-8.98854e-05 3.94841 0.383336 2.98646 1.07129 2.26071C1.75925 1.53496 2.69934 1.10069 3.69792 1.04736L3.90625 1.04215H7.51458H3.90625ZM11.9823 3.66715V0.781736C11.9822 0.638034 12.0217 0.497091 12.0966 0.374411C12.1714 0.251731 12.2786 0.152068 12.4065 0.0863853C12.5343 0.0207022 12.6777 -0.0084559 12.821 0.00211823C12.9643 0.0126924 13.102 0.0625891 13.2188 0.14632L13.3042 0.218195L19.5479 6.20778C19.8396 6.48694 19.8667 6.93694 19.6281 7.24632L19.5479 7.33486L13.3042 13.3265C13.2006 13.4261 13.0715 13.4951 12.9312 13.5261C12.7908 13.5571 12.6447 13.5487 12.5088 13.502C12.3729 13.4552 12.2526 13.3719 12.1609 13.2612C12.0693 13.1505 12.01 13.0167 11.9896 12.8744L11.9823 12.763V9.92445L11.624 9.9557C9.12396 10.2161 6.72813 11.3411 4.42188 13.3515C3.88021 13.8234 3.04375 13.3776 3.13333 12.6661C3.825 7.12444 6.72292 4.07028 11.6698 3.68694L11.9823 3.66611V0.781736V3.66715ZM13.5448 2.61403V4.42757C13.5448 4.63477 13.4625 4.83348 13.316 4.98C13.1695 5.12651 12.9707 5.20882 12.7635 5.20882C8.72812 5.20882 6.22813 6.95465 5.14688 10.5807L5.06458 10.8713L5.43125 10.6244C7.76354 9.10153 10.2094 8.33382 12.7646 8.33382C12.9534 8.33383 13.1358 8.4022 13.2781 8.52629C13.4203 8.65037 13.5129 8.82178 13.5385 9.00882L13.5458 9.11507V10.9307L17.8781 6.77132L13.5448 2.61403Z" fill="#152536"/>
</svg>
