<svg width="34" height="34" viewBox="0 0 34 34" fill="none" xmlns="http://www.w3.org/2000/svg">
<circle cx="17" cy="17" r="17" fill="#EEEEEE"/>
<path d="M27.072 14.4849L27.072 14.485C27.2579 15.0828 27.1062 15.7284 26.6729 16.1691L23.1692 19.7342C23.0539 19.8516 22.9999 20.0219 23.0275 20.19L23.8549 25.2236C23.9565 25.8422 23.718 26.4588 23.2273 26.8312C22.9499 27.042 22.6233 27.1494 22.2944 27.1494C22.0412 27.1494 21.7873 27.0857 21.5537 26.9574L17.2227 24.5807L27.072 14.4849ZM27.072 14.4849C26.8856 13.8864 26.3973 13.4539 25.7931 13.3621L25.7931 13.3621M27.072 14.4849L25.7931 13.3621M25.7931 13.3621L20.9505 12.6277C20.7955 12.6041 20.6586 12.5022 20.587 12.3504L20.587 12.3503M25.7931 13.3621L20.587 12.3503M20.587 12.3503L18.422 7.77026C18.422 7.77025 18.422 7.77024 18.422 7.77023C18.1552 7.20551 17.6104 6.85 17 6.85C16.39 6.85 15.8452 7.20552 15.5784 7.77022C15.5784 7.77023 15.5784 7.77025 15.5784 7.77026L13.413 12.3503L13.413 12.3504M20.587 12.3503L13.413 12.3504M13.413 12.3504C13.3414 12.502 13.2042 12.6041 13.0491 12.6277L8.20656 13.3625C7.60273 13.4539 7.11443 13.8865 6.92799 14.4849L6.92796 14.485M13.413 12.3504L6.92796 14.485M6.92796 14.485C6.74215 15.0828 6.89375 15.7284 7.32707 16.1691C7.32707 16.1691 7.32707 16.1691 7.32707 16.1691L10.8308 19.7338C10.9461 19.8512 11.0001 20.0219 10.9725 20.1896L10.9725 20.1896M6.92796 14.485L10.9725 20.1896M10.9725 20.1896L10.1455 25.2236M10.9725 20.1896L10.1455 25.2236M22.7695 25.4136L22.7695 25.4136L21.9425 20.38C21.9425 20.38 21.9425 20.38 21.9425 20.38C21.8549 19.8477 22.0233 19.304 22.3957 18.925L22.3957 18.925L25.8995 15.3603C25.8995 15.3603 25.8995 15.3603 25.8995 15.3603C26.0365 15.2208 26.0835 15.0254 26.0235 14.8324L26.0234 14.8323C25.9636 14.6396 25.8175 14.5141 25.633 14.4859L20.7906 13.7515C20.2719 13.6731 19.8268 13.334 19.5977 12.8484L22.7695 25.4136ZM22.7695 25.4136C22.8025 25.6138 22.7287 25.7996 22.5753 25.9162M22.7695 25.4136L22.5753 25.9162M22.5753 25.9162C22.4223 26.0317 22.237 26.0452 22.0706 25.9548C22.0706 25.9547 22.0706 25.9547 22.0705 25.9547L17.7398 23.5778L17.7396 23.5777M22.5753 25.9162L17.7396 23.5777M17.7396 23.5777C17.5089 23.4515 17.2543 23.3875 17 23.3875C16.7457 23.3875 16.4914 23.4515 16.2603 23.5781L16.2602 23.5782M17.7396 23.5777L16.2602 23.5782M16.2602 23.5782L11.9305 25.9546C11.9303 25.9547 11.9302 25.9547 11.93 25.9548C11.7627 26.0453 11.5776 26.0315 11.4253 25.9163C11.2719 25.7998 11.1983 25.6144 11.2309 25.4134C11.2309 25.4134 11.2309 25.4133 11.2309 25.4133L12.0579 20.38L12.0579 20.3799M16.2602 23.5782L12.0579 20.3799M12.0579 20.3799C12.1451 19.8482 11.9767 19.304 11.6043 18.9254C11.6043 18.9254 11.6043 18.9254 11.6043 18.9254L8.10011 15.3603C7.963 15.2207 7.91581 15.0253 7.97608 14.8326L7.97617 14.8323M12.0579 20.3799L7.97617 14.8323M7.97617 14.8323C8.03603 14.6396 8.18202 14.5141 8.36643 14.4859C8.36648 14.4859 8.36652 14.4859 8.36656 14.4859L13.2086 13.7515M7.97617 14.8323L16.5674 8.26831M16.5674 8.26831L16.5673 8.26838L14.402 12.8483C14.1728 13.334 13.7273 13.6731 13.2086 13.7515M16.5674 8.26831C16.6525 8.08787 16.8137 7.98601 16.9996 7.98601M16.5674 8.26831L16.9996 7.98601M13.2086 13.7515L13.1862 13.6032M13.2086 13.7515L13.2087 13.7515L13.1862 13.6032M13.1862 13.6032L8.34394 14.3376L14.2663 12.7843C14.0576 13.2266 13.6536 13.5326 13.1862 13.6032ZM10.1455 25.2236C10.0439 25.8422 10.2824 26.4587 10.773 26.8312M10.1455 25.2236L10.773 26.8312M10.773 26.8312C11.2644 27.205 11.907 27.2541 12.4467 26.9574L16.7773 24.5807C16.917 24.5042 17.0829 24.5041 17.2226 24.5806L10.773 26.8312ZM16.9996 7.98601C17.1858 7.98601 17.3466 8.08776 17.4323 8.26838L16.9996 7.98601ZM17.4323 8.2685L19.5976 12.8483L17.4323 8.2685Z" fill="#152536" stroke="#152536" stroke-width="0.3"/>
</svg>
