<svg width="22" height="25" viewBox="0 0 22 25" fill="none" xmlns="http://www.w3.org/2000/svg">
<path d="M16.2502 19.9824C16.2502 22.8314 14.9202 24.8801 12.742 24.8801C11.6045 24.8801 11.1775 24.2477 10.7703 22.7859L10.5288 21.8852C10.411 21.4664 10.2057 20.7536 9.914 19.7491C9.90605 19.7222 9.89426 19.6967 9.879 19.6732L6.53534 14.4396C5.74408 13.2016 4.57662 12.25 3.2045 11.7247L2.65267 11.5147C1.94804 11.2446 1.36118 10.7347 0.995242 10.0748C0.629304 9.41481 0.507711 8.64697 0.651838 7.90623L1.12317 5.47139C1.26141 4.76055 1.60033 4.10417 2.09983 3.57986C2.59933 3.05555 3.23853 2.68524 3.94184 2.51273L12.8412 0.331061C14.2599 -0.0165154 15.7586 0.210125 17.0111 0.961691C18.2636 1.71326 19.1688 2.92896 19.5297 4.34439L21.1805 10.8194C21.3231 11.3792 21.3358 11.9642 21.2178 12.5296C21.0998 13.0951 20.8542 13.6261 20.4996 14.0822C20.1451 14.5383 19.691 14.9073 19.1721 15.1611C18.6532 15.4149 18.0832 15.5468 17.5055 15.5467H15.3798C15.9585 17.4519 16.2502 18.9219 16.2502 19.9824ZM2.36684 8.23989C2.30163 8.5765 2.35711 8.92532 2.52353 9.22509C2.68995 9.52485 2.95667 9.7564 3.27684 9.87906L3.82984 10.0914C5.55142 10.7506 7.01616 11.9447 8.00884 13.4981L11.3537 18.7306C11.4587 18.8939 11.5392 19.0736 11.5928 19.2602L12.2368 21.5002L12.4842 22.4242C12.6475 22.9936 12.7292 23.1301 12.7408 23.1301C13.7535 23.1301 14.499 21.9821 14.499 19.9824C14.499 18.9499 14.1187 17.2571 13.351 14.9482C13.3072 14.8168 13.2953 14.6768 13.3162 14.5398C13.3371 14.4028 13.3902 14.2727 13.4712 14.1603C13.5522 14.0479 13.6587 13.9563 13.7821 13.8931C13.9054 13.8298 14.0419 13.7968 14.1805 13.7967H17.5055C17.8165 13.7965 18.1233 13.7253 18.4026 13.5886C18.6819 13.4518 18.9263 13.2531 19.1171 13.0076C19.3079 12.762 19.4402 12.4762 19.5038 12.1718C19.5674 11.8674 19.5607 11.5525 19.4842 11.2511L17.8333 4.77606C17.5862 3.80765 16.9668 2.97596 16.1097 2.46188C15.2526 1.9478 14.2272 1.79291 13.2565 2.03089L4.35717 4.21256C3.97838 4.30548 3.63412 4.50495 3.36514 4.78737C3.09615 5.0698 2.91369 5.42336 2.83934 5.80623L2.36684 8.23989Z" fill="#ABB5BE"/>
</svg>
