<svg width="13" height="13" viewBox="0 0 13 13" fill="none" xmlns="http://www.w3.org/2000/svg">
<path d="M0.982131 5.60264C0.889161 5.70538 0.840013 5.84038 0.845168 5.97885C0.850322 6.11731 0.909371 6.24829 1.00972 6.34383C1.11007 6.43938 1.24379 6.49194 1.38234 6.4903C1.52089 6.48866 1.65332 6.43295 1.75138 6.33505L5.9688 1.90726L5.9688 12.3438C5.9688 12.4847 6.02477 12.6199 6.1244 12.7195C6.22403 12.8191 6.35915 12.8751 6.50005 12.8751C6.64094 12.8751 6.77607 12.8191 6.8757 12.7195C6.97533 12.6199 7.0313 12.4847 7.0313 12.3438L7.0313 1.90726L11.2494 6.33505C11.3475 6.43295 11.4799 6.48866 11.6185 6.4903C11.757 6.49194 11.8907 6.43938 11.9911 6.34383C12.0914 6.24829 12.1505 6.11732 12.1556 5.97885C12.1608 5.84038 12.1116 5.70538 12.0187 5.60264L7.01288 0.346804C6.90374 0.231772 6.759 0.156905 6.60205 0.134304C6.5344 0.121339 6.46489 0.121579 6.39734 0.135013C6.24064 0.157765 6.09617 0.23262 5.98722 0.347513L0.982131 5.60264Z" fill="#1AA179"/>
</svg>
