<svg width="29" height="26" viewBox="0 0 29 26" fill="none" xmlns="http://www.w3.org/2000/svg">
<path d="M18.4014 10.1667C19.7699 10.1667 20.8806 11.2773 20.8806 12.6458V19.3736C20.8806 21.0647 20.2088 22.6866 19.013 23.8824C17.8172 25.0782 16.1953 25.75 14.5042 25.75C12.813 25.75 11.1912 25.0782 9.99536 23.8824C8.79955 22.6866 8.12775 21.0647 8.12775 19.3736V12.6458C8.12775 11.2773 9.237 10.1667 10.6069 10.1667H18.4014ZM18.4014 12.2917H10.6069C10.513 12.2917 10.4229 12.329 10.3565 12.3954C10.2901 12.4618 10.2528 12.5519 10.2528 12.6458V19.3736C10.2528 20.5011 10.7007 21.5825 11.498 22.3798C12.2953 23.1771 13.3766 23.625 14.5042 23.625C15.6317 23.625 16.7131 23.1771 17.5104 22.3798C18.3077 21.5825 18.7556 20.5011 18.7556 19.3736V12.6458C18.7556 12.5519 18.7183 12.4618 18.6519 12.3954C18.5854 12.329 18.4954 12.2917 18.4014 12.2917ZM2.81242 10.1667H7.60217C7.10237 10.7703 6.79713 11.5112 6.72667 12.2917H2.81242C2.71849 12.2917 2.6284 12.329 2.56199 12.3954C2.49557 12.4618 2.45825 12.5519 2.45825 12.6458V17.2486C2.45816 17.7839 2.57938 18.3123 2.81281 18.7941C3.04623 19.2758 3.38579 19.6985 3.80597 20.0302C4.22616 20.3619 4.71605 20.594 5.23884 20.7092C5.76163 20.8244 6.30373 20.8197 6.82442 20.6953C6.94484 21.4093 7.16442 22.0907 7.46617 22.724C6.62648 22.9486 5.74638 22.9771 4.89392 22.8073C4.04146 22.6375 3.23947 22.2739 2.54998 21.7446C1.86048 21.2153 1.30195 20.5346 0.917575 19.755C0.533197 18.9754 0.333269 18.1178 0.333252 17.2486V12.6458C0.333252 11.2773 1.44392 10.1667 2.81242 10.1667ZM21.4062 10.1667H26.1874C27.5559 10.1667 28.6666 11.2773 28.6666 12.6458V17.25C28.6668 18.1186 28.4673 18.9757 28.0835 19.755C27.6997 20.5342 27.1419 21.2148 26.4531 21.7442C25.7644 22.2735 24.9632 22.6375 24.1114 22.8078C23.2597 22.9782 22.3801 22.9505 21.5408 22.7268C21.8439 22.0922 22.0635 21.4107 22.1853 20.6968C22.7054 20.8197 23.2465 20.8233 23.7681 20.7074C24.2898 20.5915 24.7784 20.359 25.1975 20.0275C25.6165 19.6959 25.9551 19.2738 26.1879 18.7928C26.4207 18.3118 26.5416 17.7844 26.5416 17.25V12.6458C26.5416 12.5519 26.5043 12.4618 26.4379 12.3954C26.3714 12.329 26.2814 12.2917 26.1874 12.2917H22.2817C22.2112 11.5112 21.906 10.7703 21.4062 10.1667ZM14.4999 0.25C15.6271 0.25 16.7081 0.697767 17.5051 1.4948C18.3022 2.29183 18.7499 3.37283 18.7499 4.5C18.7499 5.62717 18.3022 6.70817 17.5051 7.5052C16.7081 8.30223 15.6271 8.75 14.4999 8.75C13.3728 8.75 12.2917 8.30223 11.4947 7.5052C10.6977 6.70817 10.2499 5.62717 10.2499 4.5C10.2499 3.37283 10.6977 2.29183 11.4947 1.4948C12.2917 0.697767 13.3728 0.25 14.4999 0.25ZM23.7083 1.66667C24.6476 1.66667 25.5484 2.03981 26.2126 2.704C26.8768 3.36819 27.2499 4.26902 27.2499 5.20833C27.2499 6.14764 26.8768 7.04848 26.2126 7.71267C25.5484 8.37686 24.6476 8.75 23.7083 8.75C22.7689 8.75 21.8681 8.37686 21.2039 7.71267C20.5397 7.04848 20.1666 6.14764 20.1666 5.20833C20.1666 4.26902 20.5397 3.36819 21.2039 2.704C21.8681 2.03981 22.7689 1.66667 23.7083 1.66667ZM5.29159 1.66667C6.2309 1.66667 7.13173 2.03981 7.79592 2.704C8.46012 3.36819 8.83325 4.26902 8.83325 5.20833C8.83325 6.14764 8.46012 7.04848 7.79592 7.71267C7.13173 8.37686 6.2309 8.75 5.29159 8.75C4.35228 8.75 3.45144 8.37686 2.78725 7.71267C2.12306 7.04848 1.74992 6.14764 1.74992 5.20833C1.74992 4.26902 2.12306 3.36819 2.78725 2.704C3.45144 2.03981 4.35228 1.66667 5.29159 1.66667ZM14.4999 2.375C13.9363 2.375 13.3958 2.59888 12.9973 2.9974C12.5988 3.39591 12.3749 3.93641 12.3749 4.5C12.3749 5.06358 12.5988 5.60409 12.9973 6.0026C13.3958 6.40112 13.9363 6.625 14.4999 6.625C15.0635 6.625 15.604 6.40112 16.0025 6.0026C16.401 5.60409 16.6249 5.06358 16.6249 4.5C16.6249 3.93641 16.401 3.39591 16.0025 2.9974C15.604 2.59888 15.0635 2.375 14.4999 2.375ZM23.7083 3.79167C23.3325 3.79167 22.9722 3.94092 22.7065 4.2066C22.4408 4.47228 22.2916 4.83261 22.2916 5.20833C22.2916 5.58406 22.4408 5.94439 22.7065 6.21007C22.9722 6.47574 23.3325 6.625 23.7083 6.625C24.084 6.625 24.4443 6.47574 24.71 6.21007C24.9757 5.94439 25.1249 5.58406 25.1249 5.20833C25.1249 4.83261 24.9757 4.47228 24.71 4.2066C24.4443 3.94092 24.084 3.79167 23.7083 3.79167ZM5.29159 3.79167C4.91586 3.79167 4.55553 3.94092 4.28985 4.2066C4.02418 4.47228 3.87492 4.83261 3.87492 5.20833C3.87492 5.58406 4.02418 5.94439 4.28985 6.21007C4.55553 6.47574 4.91586 6.625 5.29159 6.625C5.66731 6.625 6.02764 6.47574 6.29332 6.21007C6.559 5.94439 6.70825 5.58406 6.70825 5.20833C6.70825 4.83261 6.559 4.47228 6.29332 4.2066C6.02764 3.94092 5.66731 3.79167 5.29159 3.79167Z" fill="white"/>
</svg>
