<svg width="22" height="25" viewBox="0 0 22 25" fill="none" xmlns="http://www.w3.org/2000/svg">
<path d="M16.25 19.9824C16.25 22.8314 14.92 24.8801 12.7419 24.8801C11.6044 24.8801 11.1774 24.2477 10.7702 22.7859L10.5287 21.8852C10.4109 21.4664 10.2055 20.7536 9.91388 19.7491C9.90593 19.7222 9.89414 19.6967 9.87888 19.6732L6.53522 14.4396C5.74395 13.2016 4.5765 12.25 3.20438 11.7247L2.65255 11.5147C1.94792 11.2446 1.36106 10.7347 0.99512 10.0748C0.629182 9.41481 0.507589 8.64697 0.651716 7.90623L1.12305 5.47139C1.26129 4.76055 1.6002 4.10417 2.09971 3.57986C2.59921 3.05555 3.23841 2.68524 3.94172 2.51273L12.841 0.331061C14.2598 -0.0165154 15.7584 0.210125 17.011 0.961691C18.2635 1.71326 19.1687 2.92896 19.5295 4.34439L21.1804 10.8194C21.3229 11.3792 21.3357 11.9642 21.2177 12.5296C21.0997 13.0951 20.854 13.6261 20.4995 14.0822C20.145 14.5383 19.6909 14.9073 19.172 15.1611C18.6531 15.4149 18.083 15.5468 17.5054 15.5467H15.3797C15.9584 17.4519 16.25 18.9219 16.25 19.9824ZM2.36672 8.23989C2.30151 8.5765 2.35699 8.92532 2.52341 9.22509C2.68982 9.52485 2.95654 9.7564 3.27672 9.87906L3.82972 10.0914C5.5513 10.7506 7.01604 11.9447 8.00871 13.4981L11.3535 18.7306C11.4585 18.8939 11.539 19.0736 11.5927 19.2602L12.2367 21.5002L12.484 22.4242C12.6474 22.9936 12.729 23.1301 12.7407 23.1301C13.7534 23.1301 14.4989 21.9821 14.4989 19.9824C14.4989 18.9499 14.1185 17.2571 13.3509 14.9482C13.3071 14.8168 13.2952 14.6768 13.3161 14.5398C13.3369 14.4028 13.3901 14.2727 13.4711 14.1603C13.5521 14.0479 13.6586 13.9563 13.7819 13.8931C13.9052 13.8298 14.0418 13.7968 14.1804 13.7967H17.5054C17.8164 13.7965 18.1232 13.7253 18.4025 13.5886C18.6818 13.4518 18.9261 13.2531 19.117 13.0076C19.3078 12.762 19.4401 12.4762 19.5037 12.1718C19.5673 11.8674 19.5606 11.5525 19.484 11.2511L17.8332 4.77606C17.5861 3.80765 16.9667 2.97596 16.1096 2.46188C15.2525 1.9478 14.2271 1.79291 13.2564 2.03089L4.35705 4.21256C3.97826 4.30548 3.634 4.50495 3.36502 4.78737C3.09603 5.0698 2.91357 5.42336 2.83922 5.80623L2.36672 8.23989Z" fill="#ABB5BE"/>
</svg>
